<?xml version="1.0" encoding="UTF-8" standalone="no"?>
<svg width="245.886mm" height="127.353mm"
 viewBox="0 0 697 361"
 xmlns="http://www.w3.org/2000/svg" xmlns:xlink="http://www.w3.org/1999/xlink"  version="1.2" baseProfile="tiny">
<title>Qt SVG Document</title>
<desc>MATLAB, The MathWorks, Inc. Version 25.1.0.2973910 R2025a Update 1</desc>
<defs>
</defs>
<g fill="none" stroke="black" stroke-width="1" fill-rule="evenodd" stroke-linecap="square" stroke-linejoin="bevel" >

<g fill="#f5f5f5" fill-opacity="1" stroke="none" transform="matrix(0.749703,0,0,0.749987,-74.3199,-16.8934)"
font-family="Sans Serif" font-size="9" font-weight="400" font-style="normal" 
>
<path vector-effect="none" fill-rule="evenodd" d="M98,21 L1029,21 L1029,504 L98,504 L98,21"/>
</g>

<g fill="#ffffff" fill-opacity="1" stroke="none" transform="matrix(7.49703e-05,0,0,7.49987e-05,-74.3199,-16.8934)"
font-family="Sans Serif" font-size="9" font-weight="400" font-style="normal" 
>
<path vector-effect="none" fill-rule="evenodd" d="M1.47e+06,2.88e+06 L1.47e+06,4.67e+06 L1.024e+07,4.67e+06 L1.024e+07,2.88e+06 L1.47e+06,2.88e+06"/>
</g>

<g fill="#212121" fill-opacity="0.14902" stroke="#212121" stroke-opacity="0.14902" stroke-width="0.666667" stroke-linecap="butt" stroke-linejoin="round" transform="matrix(0.749703,0,0,0.749987,-74.3199,-16.8934)"
font-family="Sans Serif" font-size="9" font-weight="400" font-style="normal" 
>
<polyline fill="none" vector-effect="none" points="147,288 147,467 " />
<polyline fill="none" vector-effect="none" points="256.625,288 256.625,467 " />
<polyline fill="none" vector-effect="none" points="366.25,288 366.25,467 " />
<polyline fill="none" vector-effect="none" points="475.875,288 475.875,467 " />
<polyline fill="none" vector-effect="none" points="585.5,288 585.5,467 " />
<polyline fill="none" vector-effect="none" points="695.125,288 695.125,467 " />
<polyline fill="none" vector-effect="none" points="804.75,288 804.75,467 " />
<polyline fill="none" vector-effect="none" points="914.375,288 914.375,467 " />
<polyline fill="none" vector-effect="none" points="1024,288 1024,467 " />
<polyline fill="none" vector-effect="none" points="147,449.84 1024,449.84 " />
<polyline fill="none" vector-effect="none" points="147,413.669 1024,413.669 " />
<polyline fill="none" vector-effect="none" points="147,377.499 1024,377.499 " />
<polyline fill="none" vector-effect="none" points="147,341.328 1024,341.328 " />
<polyline fill="none" vector-effect="none" points="147,305.158 1024,305.158 " />
</g>

<g fill="#212121" fill-opacity="1" stroke="#212121" stroke-opacity="1" stroke-width="1" stroke-linecap="square" stroke-linejoin="bevel" transform="matrix(0.749703,0,0,0.749987,328.645,357)"
font-family="Helvetica" font-size="13" font-weight="400" font-style="normal" 
>
<text fill="#212121" fill-opacity="1" stroke="none" xml:space="preserve" x="0" y="0" font-family="Helvetica" font-size="13" font-weight="400" font-style="normal" 
 >Frequency (kHz)</text>
</g>

<g fill="#212121" fill-opacity="1" stroke="#212121" stroke-opacity="1" stroke-width="0.666667" stroke-linecap="square" stroke-linejoin="round" transform="matrix(0.749703,0,0,0.749987,-74.3199,-16.8934)"
font-family="Helvetica" font-size="13" font-weight="400" font-style="normal" 
>
<polyline fill="none" vector-effect="none" points="147,467 1024,467 " />
<polyline fill="none" vector-effect="none" points="147,288 1024,288 " />
<polyline fill="none" vector-effect="none" points="147,467 147,458.23 " />
<polyline fill="none" vector-effect="none" points="147,296.77 147,288 " />
<polyline fill="none" vector-effect="none" points="256.625,467 256.625,458.23 " />
<polyline fill="none" vector-effect="none" points="256.625,296.77 256.625,288 " />
<polyline fill="none" vector-effect="none" points="366.25,467 366.25,458.23 " />
<polyline fill="none" vector-effect="none" points="366.25,296.77 366.25,288 " />
<polyline fill="none" vector-effect="none" points="475.875,467 475.875,458.23 " />
<polyline fill="none" vector-effect="none" points="475.875,296.77 475.875,288 " />
<polyline fill="none" vector-effect="none" points="585.5,467 585.5,458.23 " />
<polyline fill="none" vector-effect="none" points="585.5,296.77 585.5,288 " />
<polyline fill="none" vector-effect="none" points="695.125,467 695.125,458.23 " />
<polyline fill="none" vector-effect="none" points="695.125,296.77 695.125,288 " />
<polyline fill="none" vector-effect="none" points="804.75,467 804.75,458.23 " />
<polyline fill="none" vector-effect="none" points="804.75,296.77 804.75,288 " />
<polyline fill="none" vector-effect="none" points="914.375,467 914.375,458.23 " />
<polyline fill="none" vector-effect="none" points="914.375,296.77 914.375,288 " />
<polyline fill="none" vector-effect="none" points="1024,467 1024,458.23 " />
<polyline fill="none" vector-effect="none" points="1024,296.77 1024,288 " />
</g>

<g fill="#212121" fill-opacity="1" stroke="#212121" stroke-opacity="1" stroke-width="1" stroke-linecap="square" stroke-linejoin="bevel" transform="matrix(0.749703,0,0,0.749987,33.2624,345)"
font-family="Helvetica" font-size="12" font-weight="400" font-style="normal" 
>
<text fill="#212121" fill-opacity="1" stroke="none" xml:space="preserve" x="0" y="0" font-family="Helvetica" font-size="12" font-weight="400" font-style="normal" 
 >0</text>
</g>

<g fill="#212121" fill-opacity="1" stroke="#212121" stroke-opacity="1" stroke-width="1" stroke-linecap="square" stroke-linejoin="bevel" transform="matrix(0.749703,0,0,0.749987,111.7,345)"
font-family="Helvetica" font-size="12" font-weight="400" font-style="normal" 
>
<text fill="#212121" fill-opacity="1" stroke="none" xml:space="preserve" x="0" y="0" font-family="Helvetica" font-size="12" font-weight="400" font-style="normal" 
 >0.5</text>
</g>

<g fill="#212121" fill-opacity="1" stroke="#212121" stroke-opacity="1" stroke-width="1" stroke-linecap="square" stroke-linejoin="bevel" transform="matrix(0.749703,0,0,0.749987,197.635,345)"
font-family="Helvetica" font-size="12" font-weight="400" font-style="normal" 
>
<text fill="#212121" fill-opacity="1" stroke="none" xml:space="preserve" x="0" y="0" font-family="Helvetica" font-size="12" font-weight="400" font-style="normal" 
 >1</text>
</g>

<g fill="#212121" fill-opacity="1" stroke="#212121" stroke-opacity="1" stroke-width="1" stroke-linecap="square" stroke-linejoin="bevel" transform="matrix(0.749703,0,0,0.749987,276.072,345)"
font-family="Helvetica" font-size="12" font-weight="400" font-style="normal" 
>
<text fill="#212121" fill-opacity="1" stroke="none" xml:space="preserve" x="0" y="0" font-family="Helvetica" font-size="12" font-weight="400" font-style="normal" 
 >1.5</text>
</g>

<g fill="#212121" fill-opacity="1" stroke="#212121" stroke-opacity="1" stroke-width="1" stroke-linecap="square" stroke-linejoin="bevel" transform="matrix(0.749703,0,0,0.749987,362.007,345)"
font-family="Helvetica" font-size="12" font-weight="400" font-style="normal" 
>
<text fill="#212121" fill-opacity="1" stroke="none" xml:space="preserve" x="0" y="0" font-family="Helvetica" font-size="12" font-weight="400" font-style="normal" 
 >2</text>
</g>

<g fill="#212121" fill-opacity="1" stroke="#212121" stroke-opacity="1" stroke-width="1" stroke-linecap="square" stroke-linejoin="bevel" transform="matrix(0.749703,0,0,0.749987,440.445,345)"
font-family="Helvetica" font-size="12" font-weight="400" font-style="normal" 
>
<text fill="#212121" fill-opacity="1" stroke="none" xml:space="preserve" x="0" y="0" font-family="Helvetica" font-size="12" font-weight="400" font-style="normal" 
 >2.5</text>
</g>

<g fill="#212121" fill-opacity="1" stroke="#212121" stroke-opacity="1" stroke-width="1" stroke-linecap="square" stroke-linejoin="bevel" transform="matrix(0.749703,0,0,0.749987,526.379,345)"
font-family="Helvetica" font-size="12" font-weight="400" font-style="normal" 
>
<text fill="#212121" fill-opacity="1" stroke="none" xml:space="preserve" x="0" y="0" font-family="Helvetica" font-size="12" font-weight="400" font-style="normal" 
 >3</text>
</g>

<g fill="#212121" fill-opacity="1" stroke="#212121" stroke-opacity="1" stroke-width="1" stroke-linecap="square" stroke-linejoin="bevel" transform="matrix(0.749703,0,0,0.749987,604.817,345)"
font-family="Helvetica" font-size="12" font-weight="400" font-style="normal" 
>
<text fill="#212121" fill-opacity="1" stroke="none" xml:space="preserve" x="0" y="0" font-family="Helvetica" font-size="12" font-weight="400" font-style="normal" 
 >3.5</text>
</g>

<g fill="#212121" fill-opacity="1" stroke="#212121" stroke-opacity="1" stroke-width="1" stroke-linecap="square" stroke-linejoin="bevel" transform="matrix(0.749703,0,0,0.749987,690.752,345)"
font-family="Helvetica" font-size="12" font-weight="400" font-style="normal" 
>
<text fill="#212121" fill-opacity="1" stroke="none" xml:space="preserve" x="0" y="0" font-family="Helvetica" font-size="12" font-weight="400" font-style="normal" 
 >4</text>
</g>

<g fill="#212121" fill-opacity="1" stroke="#212121" stroke-opacity="1" stroke-width="1" stroke-linecap="square" stroke-linejoin="bevel" transform="matrix(0,-0.749987,0.749703,0,8.24733,302.226)"
font-family="Helvetica" font-size="13" font-weight="400" font-style="normal" 
>
<text fill="#212121" fill-opacity="1" stroke="none" xml:space="preserve" x="0" y="0" font-family="Helvetica" font-size="13" font-weight="400" font-style="normal" 
 >Phase (degrees)</text>
</g>

<g fill="#212121" fill-opacity="1" stroke="#212121" stroke-opacity="1" stroke-width="0.666667" stroke-linecap="square" stroke-linejoin="round" transform="matrix(0.749703,0,0,0.749987,-74.3199,-16.8934)"
font-family="Helvetica" font-size="13" font-weight="400" font-style="normal" 
>
<polyline fill="none" vector-effect="none" points="147,467 147,288 " />
<polyline fill="none" vector-effect="none" points="1024,467 1024,288 " />
<polyline fill="none" vector-effect="none" points="147,449.84 155.77,449.84 " />
<polyline fill="none" vector-effect="none" points="1015.23,449.84 1024,449.84 " />
<polyline fill="none" vector-effect="none" points="147,413.669 155.77,413.669 " />
<polyline fill="none" vector-effect="none" points="1015.23,413.669 1024,413.669 " />
<polyline fill="none" vector-effect="none" points="147,377.499 155.77,377.499 " />
<polyline fill="none" vector-effect="none" points="1015.23,377.499 1024,377.499 " />
<polyline fill="none" vector-effect="none" points="147,341.328 155.77,341.328 " />
<polyline fill="none" vector-effect="none" points="1015.23,341.328 1024,341.328 " />
<polyline fill="none" vector-effect="none" points="147,305.158 155.77,305.158 " />
<polyline fill="none" vector-effect="none" points="1015.23,305.158 1024,305.158 " />
</g>

<g fill="#212121" fill-opacity="1" stroke="#212121" stroke-opacity="1" stroke-width="1" stroke-linecap="square" stroke-linejoin="bevel" transform="matrix(0.749703,0,0,0.749987,14.4948,323.48)"
font-family="Helvetica" font-size="12" font-weight="400" font-style="normal" 
>
<text fill="#212121" fill-opacity="1" stroke="none" xml:space="preserve" x="0" y="0" font-family="Helvetica" font-size="12" font-weight="400" font-style="normal" 
 >-400</text>
</g>

<g fill="#212121" fill-opacity="1" stroke="#212121" stroke-opacity="1" stroke-width="1" stroke-linecap="square" stroke-linejoin="bevel" transform="matrix(0.749703,0,0,0.749987,14.4948,296.353)"
font-family="Helvetica" font-size="12" font-weight="400" font-style="normal" 
>
<text fill="#212121" fill-opacity="1" stroke="none" xml:space="preserve" x="0" y="0" font-family="Helvetica" font-size="12" font-weight="400" font-style="normal" 
 >-200</text>
</g>

<g fill="#212121" fill-opacity="1" stroke="#212121" stroke-opacity="1" stroke-width="1" stroke-linecap="square" stroke-linejoin="bevel" transform="matrix(0.749703,0,0,0.749987,27.2398,269.226)"
font-family="Helvetica" font-size="12" font-weight="400" font-style="normal" 
>
<text fill="#212121" fill-opacity="1" stroke="none" xml:space="preserve" x="0" y="0" font-family="Helvetica" font-size="12" font-weight="400" font-style="normal" 
 >0</text>
</g>

<g fill="#212121" fill-opacity="1" stroke="#212121" stroke-opacity="1" stroke-width="1" stroke-linecap="square" stroke-linejoin="bevel" transform="matrix(0.749703,0,0,0.749987,17.4937,242.098)"
font-family="Helvetica" font-size="12" font-weight="400" font-style="normal" 
>
<text fill="#212121" fill-opacity="1" stroke="none" xml:space="preserve" x="0" y="0" font-family="Helvetica" font-size="12" font-weight="400" font-style="normal" 
 >200</text>
</g>

<g fill="#212121" fill-opacity="1" stroke="#212121" stroke-opacity="1" stroke-width="1" stroke-linecap="square" stroke-linejoin="bevel" transform="matrix(0.749703,0,0,0.749987,17.4937,214.971)"
font-family="Helvetica" font-size="12" font-weight="400" font-style="normal" 
>
<text fill="#212121" fill-opacity="1" stroke="none" xml:space="preserve" x="0" y="0" font-family="Helvetica" font-size="12" font-weight="400" font-style="normal" 
 >400</text>
</g>

<g fill="#212121" fill-opacity="1" stroke="#212121" stroke-opacity="1" stroke-width="1" stroke-linecap="square" stroke-linejoin="bevel" transform="matrix(0.749703,0,0,0.749987,350.387,194.894)"
font-family="Helvetica" font-size="13" font-weight="700" font-style="normal" 
>
<text fill="#212121" fill-opacity="1" stroke="none" xml:space="preserve" x="0" y="0" font-family="Helvetica" font-size="13" font-weight="700" font-style="normal" 
 >Phase</text>
</g>

<g fill="none" stroke="#1171be" stroke-opacity="1" stroke-width="0.666667" stroke-linecap="butt" stroke-linejoin="round" transform="matrix(0.749703,0,0,0.749987,-74.3199,-16.8934)"
font-family="Helvetica" font-size="13" font-weight="700" font-style="normal" 
>
<polyline fill="none" vector-effect="none" points="147.428,296.136 147.856,296.157 148.285,296.178 148.713,296.199 149.141,296.22 149.569,296.241 149.998,296.262 150.426,296.283 150.854,296.304 151.282,296.325 151.71,296.346 152.139,296.366 152.567,296.387 152.995,296.408 153.423,296.429 153.852,296.45 154.28,296.471 154.708,296.492 155.136,296.513 155.564,296.534 155.993,296.555 156.421,296.576 156.849,296.597 157.277,296.618 157.706,296.639 158.134,296.66 158.562,296.681 158.99,296.702 159.418,296.723 159.847,296.743 160.275,296.764 160.703,296.785 161.131,296.806 161.56,296.827 161.988,296.848 162.416,296.869 162.844,296.89 163.272,296.911 163.701,296.932 164.129,296.953 164.557,296.974 164.985,296.995 165.414,297.016 165.842,297.037 166.27,297.058 166.698,297.079 167.126,297.101 167.555,297.122 167.983,297.143 168.411,297.164 168.839,297.185 169.268,297.206 169.696,297.227 170.124,297.248 170.552,297.269 170.98,297.29 171.409,297.311 171.837,297.332 172.265,297.353 172.693,297.375 173.122,297.396 173.55,297.417 173.978,297.438 174.406,297.459 174.834,297.48 175.263,297.501 175.691,297.523 176.119,297.544 176.547,297.565 176.976,297.586 177.404,297.607 177.832,297.629 178.26,297.65 178.688,297.671 179.117,297.692 179.545,297.714 179.973,297.735 180.401,297.756 180.83,297.777 181.258,297.799 181.686,297.82 182.114,297.841 182.542,297.863 182.971,297.884 183.399,297.905 183.827,297.927 184.255,297.948 184.684,297.969 185.112,297.991 185.54,298.012 185.968,298.033 186.396,298.055 186.825,298.076 187.253,298.098 187.681,298.119 188.109,298.14 188.538,298.162 188.966,298.183 189.394,298.205 189.822,298.226 190.25,298.248 190.679,298.269 191.107,298.291 191.535,298.312 191.963,298.334 192.392,298.356 192.82,298.377 193.248,298.399 193.676,298.42 194.104,298.442 194.533,298.464 194.961,298.485 195.389,298.507 195.817,298.529 196.246,298.55 196.674,298.572 197.102,298.594 197.53,298.615 197.958,298.637 198.387,298.659 198.815,298.681 199.243,298.702 199.671,298.724 200.1,298.746 200.528,298.768 200.956,298.79 201.384,298.811 201.813,298.833 202.241,298.855 202.669,298.877 203.097,298.899 203.525,298.921 203.954,298.943 204.382,298.965 204.81,298.987 205.238,299.009 205.667,299.031 206.095,299.053 206.523,299.075 206.951,299.097 207.379,299.119 207.808,299.141 208.236,299.163 208.664,299.185 209.092,299.208 209.521,299.23 209.949,299.252 210.377,299.274 210.805,299.296 211.233,299.319 211.662,299.341 212.09,299.363 212.518,299.385 212.946,299.408 213.375,299.43 213.803,299.452 214.231,299.475 214.659,299.497 215.087,299.52 215.516,299.542 215.944,299.564 216.372,299.587 216.8,299.609 217.229,299.632 217.657,299.654 218.085,299.677 218.513,299.7 218.941,299.722 219.37,299.745 219.798,299.767 220.226,299.79 220.654,299.813 221.083,299.835 221.511,299.858 221.939,299.881 222.367,299.904 222.795,299.927 223.224,299.949 223.652,299.972 224.08,299.995 224.508,300.018 224.937,300.041 225.365,300.064 225.793,300.087 226.221,300.11 226.649,300.133 227.078,300.156 227.506,300.179 227.934,300.202 228.362,300.225 228.791,300.248 229.219,300.271 229.647,300.294 230.075,300.318 230.503,300.341 230.932,300.364 231.36,300.387 231.788,300.411 232.216,300.434 232.645,300.457 233.073,300.481 233.501,300.504 233.929,300.528 234.357,300.551 234.786,300.574 235.214,300.598 235.642,300.622 236.07,300.645 236.499,300.669 236.927,300.692 237.355,300.716 237.783,300.74 238.211,300.763 238.64,300.787 239.068,300.811 239.496,300.835 239.924,300.858 240.353,300.882 240.781,300.906 241.209,300.93 241.637,300.954 242.065,300.978 242.494,301.002 242.922,301.026 243.35,301.05 243.778,301.074 244.207,301.098 244.635,301.123 245.063,301.147 245.491,301.171 245.919,301.195 246.348,301.22 246.776,301.244 247.204,301.268 247.632,301.293 248.061,301.317 248.489,301.341 248.917,301.366 249.345,301.39 249.773,301.415 250.202,301.44 250.63,301.464 251.058,301.489 251.486,301.514 251.915,301.538 252.343,301.563 252.771,301.588 253.199,301.613 253.627,301.637 254.056,301.662 254.484,301.687 254.912,301.712 255.34,301.737 255.769,301.762 256.197,301.787 256.625,301.813 257.053,301.838 257.481,301.863 257.91,301.888 258.338,301.913 258.766,301.939 259.194,301.964 259.623,301.989 260.051,302.015 260.479,302.04 260.907,302.066 261.335,302.091 261.764,302.117 262.192,302.143 262.62,302.168 263.048,302.194 263.477,302.22 263.905,302.246 264.333,302.271 264.761,302.297 265.189,302.323 265.618,302.349 266.046,302.375 266.474,302.401 266.902,302.427 267.331,302.453 267.759,302.479 268.187,302.506 268.615,302.532 269.043,302.558 269.472,302.585 269.9,302.611 270.328,302.637 270.756,302.664 271.185,302.69 271.613,302.717 272.041,302.744 272.469,302.77 272.897,302.797 273.326,302.824 273.754,302.851 274.182,302.877 274.61,302.904 275.039,302.931 275.467,302.958 275.895,302.985 276.323,303.012 276.751,303.039 277.18,303.067 277.608,303.094 278.036,303.121 278.464,303.149 278.893,303.176 279.321,303.203 279.749,303.231 280.177,303.258 280.605,303.286 281.034,303.314 281.462,303.341 281.89,303.369 282.318,303.397 282.747,303.425 283.175,303.453 283.603,303.481 284.031,303.509 284.459,303.537 284.888,303.565 285.316,303.593 285.744,303.621 286.172,303.65 286.601,303.678 287.029,303.706 287.457,303.735 287.885,303.763 288.313,303.792 288.742,303.82 289.17,303.849 289.598,303.878 290.026,303.907 290.455,303.936 290.883,303.965 291.311,303.993 291.739,304.023 292.167,304.052 292.596,304.081 293.024,304.11 293.452,304.139 293.88,304.169 294.309,304.198 294.737,304.228 295.165,304.257 295.593,304.287 296.021,304.316 296.45,304.346 296.878,304.376 297.306,304.406 297.734,304.436 298.163,304.466 298.591,304.496 299.019,304.526 299.447,304.556 299.875,304.586 300.304,304.617 300.732,304.647 301.16,304.678 301.588,304.708 302.017,304.739 302.445,304.769 302.873,304.8 303.301,304.831 303.729,304.862 304.158,304.893 304.586,304.924 305.014,304.955 305.442,304.986 305.871,305.017 306.299,305.049 306.727,305.08 307.155,305.111 307.583,305.143 308.012,305.175 308.44,305.206 308.868,305.238 309.296,305.27 309.725,305.302 310.153,305.334 310.581,305.366 311.009,305.398 311.438,305.43 311.866,305.463 312.294,305.495 312.722,305.527 313.15,305.56 313.579,305.593 314.007,305.625 314.435,305.658 314.863,305.691 315.292,305.724 315.72,305.757 316.148,305.79 316.576,305.823 317.004,305.857 317.433,305.89 317.861,305.924 318.289,305.957 318.717,305.991 319.146,306.025 319.574,306.058 320.002,306.092 320.43,306.126 320.858,306.16 321.287,306.195 321.715,306.229 322.143,306.263 322.571,306.298 323,306.332 323.428,306.367 323.856,306.402 324.284,306.437 324.712,306.472 325.141,306.507 325.569,306.542 325.997,306.577 326.425,306.612 326.854,306.648 327.282,306.683 327.71,306.719 328.138,306.755 328.566,306.791 328.995,306.826 329.423,306.863 329.851,306.899 330.279,306.935 330.708,306.971 331.136,307.008 331.564,307.044 331.992,307.081 332.42,307.118 332.849,307.155 333.277,307.192 333.705,307.229 334.133,307.266 334.562,307.303 334.99,307.341 335.418,307.378 335.846,307.416 336.274,307.454 336.703,307.492 337.131,307.53 337.559,307.568 337.987,307.606 338.416,307.644 338.844,307.683 339.272,307.722 339.7,307.76 340.128,307.799 340.557,307.838 340.985,307.877 341.413,307.916 341.841,307.956 342.27,307.995 342.698,308.035 343.126,308.075 343.554,308.114 343.982,308.154 344.411,308.194 344.839,308.235 345.267,308.275 345.695,308.316 346.124,308.356 346.552,308.397 346.98,308.438 347.408,308.479 347.836,308.52 348.265,308.561 348.693,308.603 349.121,308.645 349.549,308.686 349.978,308.728 350.406,308.77 350.834,308.812 351.262,308.855 351.69,308.897 352.119,308.94 352.547,308.982 352.975,309.025 353.403,309.068 353.832,309.112 354.26,309.155 354.688,309.199 355.116,309.242 355.544,309.286 355.973,309.33 356.401,309.374 356.829,309.419 357.257,309.463 357.686,309.508 358.114,309.552 358.542,309.597 358.97,309.643 359.398,309.688 359.827,309.733 360.255,309.779 360.683,309.825 361.111,309.871 361.54,309.917 361.968,309.963 362.396,310.01 362.824,310.056 363.252,310.103 363.681,310.15 364.109,310.197 364.537,310.245 364.965,310.292 365.394,310.34 365.822,310.388 366.25,310.436 366.678,310.485 367.106,310.533 367.535,310.582 367.963,310.631 368.391,310.68 368.819,310.729 369.248,310.779 369.676,310.829 370.104,310.879 370.532,310.929 370.96,310.979 371.389,311.03 371.817,311.08 372.245,311.131 372.673,311.182 373.102,311.234 373.53,311.285 373.958,311.337 374.386,311.389 374.814,311.442 375.243,311.494 375.671,311.547 376.099,311.6 376.527,311.653 376.956,311.706 377.384,311.76 377.812,311.814 378.24,311.868 378.668,311.922 379.097,311.977 379.525,312.032 379.953,312.087 380.381,312.142 380.81,312.198 381.238,312.254 381.666,312.31 382.094,312.366 382.522,312.423 382.951,312.48 383.379,312.537 383.807,312.594 384.235,312.652 384.664,312.71 385.092,312.768 385.52,312.827 385.948,312.885 386.376,312.945 386.805,313.004 387.233,313.064 387.661,313.124 388.089,313.184 388.518,313.244 388.946,313.305 389.374,313.366 389.802,313.428 390.23,313.489 390.659,313.551 391.087,313.614 391.515,313.676 391.943,313.739 392.372,313.803 392.8,313.866 393.228,313.93 393.656,313.995 394.084,314.059 394.513,314.124 394.941,314.19 395.369,314.255 395.797,314.321 396.226,314.388 396.654,314.454 397.082,314.521 397.51,314.589 397.938,314.657 398.367,314.725 398.795,314.793 399.223,314.862 399.651,314.932 400.08,315.001 400.508,315.071 400.936,315.142 401.364,315.213 401.792,315.284 402.221,315.356 402.649,315.428 403.077,315.5 403.505,315.573 403.934,315.647 404.362,315.721 404.79,315.795 405.218,315.87 405.646,315.945 406.075,316.02 406.503,316.096 406.931,316.173 407.359,316.25 407.788,316.327 408.216,316.405 408.644,316.483 409.072,316.562 409.5,316.642 409.929,316.722 410.357,316.802 410.785,316.883 411.213,316.964 411.642,317.046 412.07,317.129 412.498,317.212 412.926,317.295 413.354,317.379 413.783,317.464 414.211,317.549 414.639,317.635 415.067,317.721 415.496,317.808 415.924,317.896 416.352,317.984 416.78,318.073 417.208,318.162 417.637,318.252 418.065,318.343 418.493,318.434 418.921,318.526 419.35,318.618 419.778,318.712 420.206,318.806 420.634,318.9 421.063,318.995 421.491,319.091 421.919,319.188 422.347,319.285 422.775,319.384 423.204,319.482 423.632,319.582 424.06,319.682 424.488,319.784 424.917,319.885 425.345,319.988 425.773,320.092 426.201,320.196 426.629,320.301 427.058,320.407 427.486,320.514 427.914,320.622 428.342,320.73 428.771,320.84 429.199,320.95 429.627,321.061 430.055,321.173 430.483,321.286 430.912,321.401 431.34,321.516 431.768,321.632 432.196,321.748 432.625,321.866 433.053,321.985 433.481,322.105 433.909,322.227 434.337,322.349 434.766,322.472 435.194,322.596 435.622,322.722 436.05,322.848 436.479,322.976 436.907,323.105 437.335,323.235 437.763,323.366 438.191,323.498 438.62,323.632 439.048,323.767 439.476,323.903 439.904,324.04 440.333,324.179 440.761,324.319 441.189,324.46 441.617,324.603 442.045,324.747 442.474,324.892 442.902,325.039 443.33,325.187 443.758,325.337 444.187,325.488 444.615,325.641 445.043,325.795 445.471,325.95 445.899,326.107 446.328,326.266 446.756,326.426 447.184,326.588 447.612,326.751 448.041,326.916 448.469,327.083 448.897,327.251 449.325,327.421 449.753,327.593 450.182,327.766 450.61,327.941 451.038,328.118 451.466,328.296 451.895,328.476 452.323,328.658 452.751,328.842 453.179,329.027 453.607,329.215 454.036,329.404 454.464,329.594 454.892,329.787 455.32,329.981 455.749,330.177 456.177,330.375 456.605,330.575 457.033,330.776 457.461,330.98 457.89,331.185 458.318,331.392 458.746,331.6 459.174,331.811 459.603,332.023 460.031,332.236 460.459,332.452 460.887,332.669 461.315,332.888 461.744,333.108 462.172,333.33 462.6,333.554 463.028,333.779 463.457,334.005 463.885,334.233 464.313,334.463 464.741,334.693 465.169,334.925 465.598,335.159 466.026,335.393 466.454,335.629 466.882,335.866 467.311,336.104 467.739,336.343 468.167,336.583 468.595,336.823 469.023,337.065 469.452,337.307 469.88,337.55 470.308,337.794 470.736,338.038 471.165,338.282 471.593,338.527 472.021,338.773 472.449,339.018 472.877,339.264 473.306,339.51 473.734,339.756 474.162,340.002 474.59,340.248 475.019,340.494 475.447,340.74 475.875,340.985 476.303,341.23 476.731,341.475 477.16,341.719 477.588,341.963 478.016,342.206 478.444,342.448 478.873,342.69 479.301,342.931 479.729,343.172 480.157,343.411 480.585,343.65 481.014,343.888 481.442,344.125 481.87,344.36 482.298,344.595 482.727,344.829 483.155,345.062 483.583,345.294 484.011,345.524 484.439,345.754 484.868,345.982 485.296,346.209 485.724,346.435 486.152,346.66 486.581,346.883 487.009,347.106 487.437,347.327 487.865,347.547 488.293,347.765 488.722,347.982 489.15,348.198 489.578,348.413 490.006,348.627 490.435,348.839 490.863,349.05 491.291,349.26 491.719,349.469 492.147,349.676 492.576,349.882 493.004,350.087 493.432,350.291 493.86,350.493 494.289,350.695 494.717,350.895 495.145,351.094 495.573,351.292 496.001,351.489 496.43,351.685 496.858,351.879 497.286,352.073 497.714,352.265 498.143,352.456 498.571,352.647 498.999,352.836 499.427,353.024 499.855,353.211 500.284,353.397 500.712,353.583 501.14,353.767 501.568,353.95 501.997,354.133 502.425,354.314 502.853,354.495 503.281,354.675 503.709,354.854 504.138,355.032 504.566,355.209 504.994,355.385 505.422,355.561 505.851,355.735 506.279,355.909 506.707,356.082 507.135,356.255 507.563,356.427 507.992,356.597 508.42,356.768 508.848,356.937 509.276,357.106 509.705,357.274 510.133,357.442 510.561,357.608 510.989,357.775 511.417,357.94 511.846,358.105 512.274,358.269 512.702,358.433 513.13,358.596 513.559,358.759 513.987,358.921 514.415,359.082 514.843,359.243 515.271,359.403 515.7,359.563 516.128,359.722 516.556,359.881 516.984,360.039 517.413,360.197 517.841,360.354 518.269,360.511 518.697,360.668 519.125,360.823 519.554,360.979 519.982,361.134 520.41,361.288 520.838,361.443 521.267,361.596 521.695,361.75 522.123,361.902 522.551,362.055 522.979,362.207 523.408,362.359 523.836,362.51 524.264,362.661 524.692,362.812 525.121,362.962 525.549,363.112 525.977,363.261 526.405,363.41 526.833,363.559 527.262,363.708 527.69,363.856 528.118,364.004 528.546,364.151 528.975,364.299 529.403,364.446 529.831,364.592 530.259,364.739 530.688,364.885 531.116,365.03 531.544,365.176 531.972,365.321 532.4,365.466 532.829,365.611 533.257,365.755 533.685,365.899 534.113,366.043 534.542,366.187 534.97,366.33 535.398,366.474 535.826,366.617 536.254,366.759 536.683,366.902 537.111,367.044 537.539,367.186 537.967,367.328 538.396,367.47 538.824,367.611 539.252,367.752 539.68,367.893 540.108,368.034 540.537,368.175 540.965,368.315 541.393,368.455 541.821,368.595 542.25,368.735 542.678,368.875 543.106,369.014 543.534,369.154 543.962,369.293 544.391,369.432 544.819,369.571 545.247,369.709 545.675,369.848 546.104,369.986 546.532,370.125 546.96,370.263 547.388,370.401 547.816,370.538 548.245,370.676 548.673,370.814 549.101,370.951 549.529,371.088 549.958,371.225 550.386,371.362 550.814,371.499 551.242,371.636 551.67,371.773 552.099,371.909 552.527,372.046 552.955,372.182 553.383,372.318 553.812,372.454 554.24,372.59 554.668,372.726 555.096,372.862 555.524,372.998 555.953,373.133 556.381,373.269 556.809,373.404 557.237,373.54 557.666,373.675 558.094,373.81 558.522,373.945 558.95,374.08 559.378,374.215 559.807,374.35 560.235,374.485 560.663,374.62 561.091,374.755 561.52,374.89 561.948,375.024 562.376,375.159 562.804,375.293 563.232,375.428 563.661,375.562 564.089,375.697 564.517,375.831 564.945,375.965 565.374,376.099 565.802,376.234 566.23,376.368 566.658,376.502 567.086,376.636 567.515,376.77 567.943,376.904 568.371,377.038 568.799,377.172 569.228,377.306 569.656,377.44 570.084,377.574 570.512,377.708 570.94,377.842 571.369,377.976 571.797,378.11 572.225,378.244 572.653,378.378 573.082,378.512 573.51,378.646 573.938,378.78 574.366,378.914 574.794,379.048 575.223,379.182 575.651,379.316 576.079,379.45 576.507,379.585 576.936,379.719 577.364,379.853 577.792,379.987 578.22,380.121 578.648,380.255 579.077,380.39 579.505,380.524 579.933,380.658 580.361,380.793 580.79,380.927 581.218,381.062 581.646,381.196 582.074,381.331 582.502,381.465 582.931,381.6 583.359,381.735 583.787,381.87 584.215,382.004 584.644,382.139 585.072,382.274 585.5,382.409 585.928,382.545 586.356,382.68 586.785,382.815 587.213,382.95 587.641,383.086 588.069,383.221 588.498,383.357 588.926,383.493 589.354,383.629 589.782,383.765 590.21,383.901 590.639,384.037 591.067,384.173 591.495,384.309 591.923,384.446 592.352,384.582 592.78,384.719 593.208,384.856 593.636,384.993 594.064,385.13 594.493,385.267 594.921,385.404 595.349,385.542 595.777,385.679 596.206,385.817 596.634,385.955 597.062,386.093 597.49,386.231 597.918,386.369 598.347,386.507 598.775,386.646 599.203,386.785 599.631,386.924 600.06,387.063 600.488,387.202 600.916,387.341 601.344,387.481 601.772,387.621 602.201,387.761 602.629,387.901 603.057,388.041 603.485,388.182 603.914,388.322 604.342,388.463 604.77,388.604 605.198,388.746 605.626,388.887 606.055,389.029 606.483,389.171 606.911,389.313 607.339,389.456 607.768,389.598 608.196,389.741 608.624,389.884 609.052,390.028 609.48,390.171 609.909,390.315 610.337,390.459 610.765,390.604 611.193,390.748 611.622,390.893 612.05,391.038 612.478,391.184 612.906,391.33 613.334,391.476 613.763,391.622 614.191,391.769 614.619,391.916 615.047,392.063 615.476,392.211 615.904,392.358 616.332,392.507 616.76,392.655 617.188,392.804 617.617,392.953 618.045,393.103 618.473,393.253 618.901,393.403 619.33,393.554 619.758,393.705 620.186,393.857 620.614,394.009 621.042,394.161 621.471,394.314 621.899,394.467 622.327,394.62 622.755,394.774 623.184,394.928 623.612,395.083 624.04,395.239 624.468,395.394 624.896,395.55 625.325,395.707 625.753,395.864 626.181,396.022 626.609,396.18 627.038,396.339 627.466,396.498 627.894,396.658 628.322,396.818 628.75,396.979 629.179,397.14 629.607,397.302 630.035,397.465 630.463,397.628 630.892,397.792 631.32,397.956 631.748,398.121 632.176,398.287 632.604,398.453 633.033,398.62 633.461,398.788 633.889,398.956 634.317,399.125 634.746,399.295 635.174,399.465 635.602,399.636 636.03,399.808 636.458,399.981 636.887,400.154 637.315,400.328 637.743,400.503 638.171,400.679 638.6,400.856 639.028,401.033 639.456,401.211 639.884,401.391 640.313,401.571 640.741,401.752 641.169,401.933 641.597,402.116 642.025,402.3 642.454,402.484 642.882,402.67 643.31,402.857 643.738,403.044 644.167,403.233 644.595,403.422 645.023,403.613 645.451,403.804 645.879,403.997 646.308,404.191 646.736,404.385 647.164,404.581 647.592,404.778 648.021,404.976 648.449,405.175 648.877,405.375 649.305,405.577 649.733,405.779 650.162,405.983 650.59,406.187 651.018,406.393 651.446,406.6 651.875,406.808 652.303,407.017 652.731,407.228 653.159,407.439 653.587,407.652 654.016,407.866 654.444,408.08 654.872,408.296 655.3,408.513 655.729,408.732 656.157,408.951 656.585,409.171 657.013,409.393 657.441,409.615 657.87,409.839 658.298,410.063 658.726,410.288 659.154,410.515 659.583,410.742 660.011,410.97 660.439,411.199 660.867,411.429 661.295,411.659 661.724,411.891 662.152,412.123 662.58,412.355 663.008,412.589 663.437,412.823 663.865,413.057 664.293,413.292 664.721,413.527 665.149,413.763 665.578,413.999 666.006,414.235 666.434,414.472 666.862,414.709 667.291,414.945 667.719,415.182 668.147,415.419 668.575,415.656 669.003,415.892 669.432,416.129 669.86,416.365 670.288,416.601 670.716,416.836 671.145,417.071 671.573,417.305 672.001,417.539 672.429,417.773 672.857,418.005 673.286,418.237 673.714,418.468 674.142,418.698 674.57,418.927 674.999,419.156 675.427,419.383 675.855,419.609 676.283,419.834 676.711,420.058 677.14,420.281 677.568,420.502 677.996,420.722 678.424,420.941 678.853,421.159 679.281,421.375 679.709,421.59 680.137,421.803 680.565,422.015 680.994,422.225 681.422,422.434 681.85,422.641 682.278,422.846 682.707,423.05 683.135,423.253 683.563,423.454 683.991,423.653 684.419,423.85 684.848,424.046 685.276,424.24 685.704,424.433 686.132,424.624 686.561,424.813 686.989,425.001 687.417,425.187 687.845,425.371 688.273,425.553 688.702,425.734 689.13,425.914 689.558,426.091 689.986,426.267 690.415,426.442 690.843,426.614 691.271,426.785 691.699,426.955 692.127,427.123 692.556,427.289 692.984,427.454 693.412,427.617 693.84,427.779 694.269,427.939 694.697,428.098 695.125,428.255 695.553,428.41 695.981,428.565 696.41,428.717 696.838,428.869 697.266,429.018 697.694,429.167 698.123,429.314 698.551,429.46 698.979,429.604 699.407,429.747 699.835,429.889 700.264,430.029 700.692,430.168 701.12,430.306 701.548,430.442 701.977,430.577 702.405,430.711 702.833,430.844 703.261,430.976 703.689,431.106 704.118,431.235 704.546,431.364 704.974,431.491 705.402,431.616 705.831,431.741 706.259,431.865 706.687,431.987 707.115,432.109 707.543,432.229 707.972,432.349 708.4,432.467 708.828,432.584 709.256,432.701 709.685,432.816 710.113,432.931 710.541,433.044 710.969,433.157 711.397,433.268 711.826,433.379 712.254,433.489 712.682,433.598 713.11,433.706 713.539,433.813 713.967,433.919 714.395,434.025 714.823,434.129 715.251,434.233 715.68,434.336 716.108,434.438 716.536,434.54 716.964,434.64 717.393,434.74 717.821,434.839 718.249,434.938 718.677,435.035 719.105,435.132 719.534,435.229 719.962,435.324 720.39,435.419 720.818,435.513 721.247,435.606 721.675,435.699 722.103,435.791 722.531,435.883 722.959,435.973 723.388,436.063 723.816,436.153 724.244,436.242 724.672,436.33 725.101,436.418 725.529,436.505 725.957,436.591 726.385,436.677 726.813,436.762 727.242,436.847 727.67,436.931 728.098,437.015 728.526,437.098 728.955,437.18 729.383,437.262 729.811,437.344 730.239,437.425 730.667,437.505 731.096,437.585 731.524,437.664 731.952,437.743 732.38,437.822 732.809,437.9 733.237,437.977 733.665,438.054 734.093,438.13 734.521,438.206 734.95,438.282 735.378,438.357 735.806,438.432 736.234,438.506 736.663,438.579 737.091,438.653 737.519,438.726 737.947,438.798 738.375,438.87 738.804,438.942 739.232,439.013 739.66,439.084 740.088,439.154 740.517,439.224 740.945,439.293 741.373,439.363 741.801,439.431 742.229,439.5 742.658,439.568 743.086,439.635 743.514,439.703 743.942,439.77 744.371,439.836 744.799,439.902 745.227,439.968 745.655,440.034 746.083,440.099 746.512,440.164 746.94,440.228 747.368,440.292 747.796,440.356 748.225,440.419 748.653,440.482 749.081,440.545 749.509,440.608 749.938,440.67 750.366,440.731 750.794,440.793 751.222,440.854 751.65,440.915 752.079,440.976 752.507,441.036 752.935,441.096 753.363,441.155 753.792,441.215 754.22,441.274 754.648,441.333 755.076,441.391 755.504,441.449 755.933,441.507 756.361,441.565 756.789,441.622 757.217,441.68 757.646,441.736 758.074,441.793 758.502,441.849 758.93,441.905 759.358,441.961 759.787,442.017 760.215,442.072 760.643,442.127 761.071,442.182 761.5,442.236 761.928,442.29 762.356,442.345 762.784,442.398 763.212,442.452 763.641,442.505 764.069,442.558 764.497,442.611 764.925,442.664 765.354,442.716 765.782,442.768 766.21,442.82 766.638,442.872 767.066,442.923 767.495,442.974 767.923,443.025 768.351,443.076 768.779,443.127 769.208,443.177 769.636,443.227 770.064,443.277 770.492,443.327 770.92,443.376 771.349,443.426 771.777,443.475 772.205,443.524 772.633,443.573 773.062,443.621 773.49,443.669 773.918,443.718 774.346,443.765 774.774,443.813 775.203,443.861 775.631,443.908 776.059,443.955 776.487,444.002 776.916,444.049 777.344,444.096 777.772,444.142 778.2,444.188 778.628,444.234 779.057,444.28 779.485,444.326 779.913,444.371 780.341,444.417 780.77,444.462 781.198,444.507 781.626,444.552 782.054,444.596 782.482,444.641 782.911,444.685 783.339,444.729 783.767,444.773 784.195,444.817 784.624,444.861 785.052,444.905 785.48,444.948 785.908,444.991 786.336,445.034 786.765,445.077 787.193,445.12 787.621,445.162 788.049,445.205 788.478,445.247 788.906,445.289 789.334,445.331 789.762,445.373 790.19,445.415 790.619,445.456 791.047,445.497 791.475,445.539 791.903,445.58 792.332,445.621 792.76,445.662 793.188,445.702 793.616,445.743 794.044,445.783 794.473,445.823 794.901,445.863 795.329,445.903 795.757,445.943 796.186,445.983 796.614,446.023 797.042,446.062 797.47,446.101 797.898,446.141 798.327,446.18 798.755,446.219 799.183,446.257 799.611,446.296 800.04,446.335 800.468,446.373 800.896,446.411 801.324,446.449 801.752,446.487 802.181,446.525 802.609,446.563 803.037,446.601 803.465,446.638 803.894,446.676 804.322,446.713 804.75,446.75 805.178,446.788 805.606,446.825 806.035,446.861 806.463,446.898 806.891,446.935 807.319,446.971 807.748,447.008 808.176,447.044 808.604,447.08 809.032,447.116 809.46,447.152 809.889,447.188 810.317,447.224 810.745,447.26 811.173,447.295 811.602,447.331 812.03,447.366 812.458,447.401 812.886,447.436 813.314,447.471 813.743,447.506 814.171,447.541 814.599,447.576 815.027,447.61 815.456,447.645 815.884,447.679 816.312,447.714 816.74,447.748 817.168,447.782 817.597,447.816 818.025,447.85 818.453,447.884 818.881,447.918 819.31,447.951 819.738,447.985 820.166,448.018 820.594,448.052 821.022,448.085 821.451,448.118 821.879,448.151 822.307,448.184 822.735,448.217 823.164,448.25 823.592,448.283 824.02,448.315 824.448,448.348 824.876,448.381 825.305,448.413 825.733,448.445 826.161,448.477 826.589,448.51 827.018,448.542 827.446,448.574 827.874,448.605 828.302,448.637 828.73,448.669 829.159,448.701 829.587,448.732 830.015,448.764 830.443,448.795 830.872,448.826 831.3,448.858 831.728,448.889 832.156,448.92 832.584,448.951 833.013,448.982 833.441,449.013 833.869,449.043 834.297,449.074 834.726,449.105 835.154,449.135 835.582,449.166 836.01,449.196 836.438,449.226 836.867,449.257 837.295,449.287 837.723,449.317 838.151,449.347 838.58,449.377 839.008,449.407 839.436,449.437 839.864,449.466 840.292,449.496 840.721,449.526 841.149,449.555 841.577,449.584 842.005,449.614 842.434,449.643 842.862,449.672 843.29,449.702 843.718,449.731 844.146,449.76 844.575,449.789 845.003,449.818 845.431,449.847 845.859,449.875 846.288,449.904 846.716,449.933 847.144,449.961 847.572,449.99 848,450.018 848.429,450.047 848.857,450.075 849.285,450.103 849.713,450.131 850.142,450.16 850.57,450.188 850.998,450.216 851.426,450.244 851.854,450.272 852.283,450.299 852.711,450.327 853.139,450.355 853.567,450.383 853.996,450.41 854.424,450.438 854.852,450.465 855.28,450.493 855.708,450.52 856.137,450.547 856.565,450.575 856.993,450.602 857.421,450.629 857.85,450.656 858.278,450.683 858.706,450.71 859.134,450.737 859.563,450.764 859.991,450.791 860.419,450.817 860.847,450.844 861.275,450.871 861.704,450.897 862.132,450.924 862.56,450.95 862.988,450.977 863.417,451.003 863.845,451.03 864.273,451.056 864.701,451.082 865.129,451.108 865.558,451.134 865.986,451.161 866.414,451.187 866.842,451.213 867.271,451.239 867.699,451.264 868.127,451.29 868.555,451.316 868.983,451.342 869.412,451.367 869.84,451.393 870.268,451.419 870.696,451.444 871.125,451.47 871.553,451.495 871.981,451.521 872.409,451.546 872.837,451.571 873.266,451.597 873.694,451.622 874.122,451.647 874.55,451.672 874.979,451.697 875.407,451.722 875.835,451.747 876.263,451.772 876.691,451.797 877.12,451.822 877.548,451.847 877.976,451.871 878.404,451.896 878.833,451.921 879.261,451.946 879.689,451.97 880.117,451.995 880.545,452.019 880.974,452.044 881.402,452.068 881.83,452.093 882.258,452.117 882.687,452.141 883.115,452.165 883.543,452.19 883.971,452.214 884.399,452.238 884.828,452.262 885.256,452.286 885.684,452.31 886.112,452.334 886.541,452.358 886.969,452.382 887.397,452.406 887.825,452.43 888.253,452.454 888.682,452.477 889.11,452.501 889.538,452.525 889.966,452.548 890.395,452.572 890.823,452.596 891.251,452.619 891.679,452.643 892.107,452.666 892.536,452.69 892.964,452.713 893.392,452.736 893.82,452.76 894.249,452.783 894.677,452.806 895.105,452.829 895.533,452.853 895.961,452.876 896.39,452.899 896.818,452.922 897.246,452.945 897.674,452.968 898.103,452.991 898.531,453.014 898.959,453.037 899.387,453.06 899.815,453.083 900.244,453.105 900.672,453.128 901.1,453.151 901.528,453.174 901.957,453.196 902.385,453.219 902.813,453.242 903.241,453.264 903.669,453.287 904.098,453.309 904.526,453.332 904.954,453.354 905.382,453.377 905.811,453.399 906.239,453.422 906.667,453.444 907.095,453.466 907.523,453.488 907.952,453.511 908.38,453.533 908.808,453.555 909.236,453.577 909.665,453.599 910.093,453.622 910.521,453.644 910.949,453.666 911.377,453.688 911.806,453.71 912.234,453.732 912.662,453.754 913.09,453.776 913.519,453.797 913.947,453.819 914.375,453.841 914.803,453.863 915.231,453.885 915.66,453.906 916.088,453.928 916.516,453.95 916.944,453.972 917.373,453.993 917.801,454.015 918.229,454.036 918.657,454.058 919.085,454.079 919.514,454.101 919.942,454.122 920.37,454.144 920.798,454.165 921.227,454.187 921.655,454.208 922.083,454.23 922.511,454.251 922.939,454.272 923.368,454.293 923.796,454.315 924.224,454.336 924.652,454.357 925.081,454.378 925.509,454.4 925.937,454.421 926.365,454.442 926.793,454.463 927.222,454.484 927.65,454.505 928.078,454.526 928.506,454.547 928.935,454.568 929.363,454.589 929.791,454.61 930.219,454.631 930.647,454.652 931.076,454.673 931.504,454.694 931.932,454.714 932.36,454.735 932.789,454.756 933.217,454.777 933.645,454.798 934.073,454.818 934.501,454.839 934.93,454.86 935.358,454.88 935.786,454.901 936.214,454.922 936.643,454.942 937.071,454.963 937.499,454.983 937.927,455.004 938.355,455.025 938.784,455.045 939.212,455.066 939.64,455.086 940.068,455.106 940.497,455.127 940.925,455.147 941.353,455.168 941.781,455.188 942.209,455.208 942.638,455.229 943.066,455.249 943.494,455.269 943.922,455.29 944.351,455.31 944.779,455.33 945.207,455.35 945.635,455.371 946.063,455.391 946.492,455.411 946.92,455.431 947.348,455.451 947.776,455.471 948.205,455.492 948.633,455.512 949.061,455.532 949.489,455.552 949.917,455.572 950.346,455.592 950.774,455.612 951.202,455.632 951.63,455.652 952.059,455.672 952.487,455.692 952.915,455.712 953.343,455.732 953.771,455.752 954.2,455.771 954.628,455.791 955.056,455.811 955.484,455.831 955.913,455.851 956.341,455.871 956.769,455.89 957.197,455.91 957.625,455.93 958.054,455.95 958.482,455.97 958.91,455.989 959.338,456.009 959.767,456.029 960.195,456.048 960.623,456.068 961.051,456.088 961.479,456.107 961.908,456.127 962.336,456.147 962.764,456.166 963.192,456.186 963.621,456.205 964.049,456.225 964.477,456.244 964.905,456.264 965.333,456.284 965.762,456.303 966.19,456.323 966.618,456.342 967.046,456.362 967.475,456.381 967.903,456.4 968.331,456.42 968.759,456.439 969.188,456.459 969.616,456.478 970.044,456.498 970.472,456.517 970.9,456.536 971.329,456.556 971.757,456.575 972.185,456.594 972.613,456.614 973.042,456.633 973.47,456.652 973.898,456.672 974.326,456.691 974.754,456.71 975.183,456.73 975.611,456.749 976.039,456.768 976.467,456.787 976.896,456.806 977.324,456.826 977.752,456.845 978.18,456.864 978.608,456.883 979.037,456.902 979.465,456.922 979.893,456.941 980.321,456.96 980.75,456.979 981.178,456.998 981.606,457.017 982.034,457.036 982.462,457.056 982.891,457.075 983.319,457.094 983.747,457.113 984.175,457.132 984.604,457.151 985.032,457.17 985.46,457.189 985.888,457.208 986.316,457.227 986.745,457.246 987.173,457.265 987.601,457.284 988.029,457.303 988.458,457.322 988.886,457.341 989.314,457.36 989.742,457.379 990.17,457.398 990.599,457.417 991.027,457.436 991.455,457.455 991.883,457.474 992.312,457.493 992.74,457.512 993.168,457.531 993.596,457.55 994.024,457.569 994.453,457.588 994.881,457.606 995.309,457.625 995.737,457.644 996.166,457.663 996.594,457.682 997.022,457.701 997.45,457.72 997.878,457.739 998.307,457.757 998.735,457.776 999.163,457.795 999.591,457.814 1000.02,457.833 1000.45,457.852 1000.88,457.87 1001.3,457.889 1001.73,457.908 1002.16,457.927 1002.59,457.946 1003.02,457.965 1003.45,457.983 1003.87,458.002 1004.3,458.021 1004.73,458.04 1005.16,458.058 1005.59,458.077 1006.01,458.096 1006.44,458.115 1006.87,458.134 1007.3,458.152 1007.73,458.171 1008.16,458.19 1008.58,458.209 1009.01,458.227 1009.44,458.246 1009.87,458.265 1010.3,458.284 1010.73,458.302 1011.15,458.321 1011.58,458.34 1012.01,458.358 1012.44,458.377 1012.87,458.396 1013.29,458.415 1013.72,458.433 1014.15,458.452 1014.58,458.471 1015.01,458.49 1015.44,458.508 1015.86,458.527 1016.29,458.546 1016.72,458.564 1017.15,458.583 1017.58,458.602 1018,458.621 1018.43,458.639 1018.86,458.658 1019.29,458.677 1019.72,458.695 1020.15,458.714 1020.57,458.733 1021,458.751 1021.43,458.77 1021.86,458.789 1022.29,458.808 1022.72,458.826 1023.14,458.845 1023.57,458.864 " />
</g>

<g fill="#ffffff" fill-opacity="1" stroke="none" transform="matrix(7.49703e-05,0,0,7.49987e-05,-74.3199,-16.8934)"
font-family="Helvetica" font-size="13" font-weight="700" font-style="normal" 
>
<path vector-effect="none" fill-rule="evenodd" d="M1.47e+06,390000 L1.47e+06,2.18e+06 L1.024e+07,2.18e+06 L1.024e+07,390000 L1.47e+06,390000"/>
</g>

<g fill="#212121" fill-opacity="0.14902" stroke="#212121" stroke-opacity="0.14902" stroke-width="0.666667" stroke-linecap="butt" stroke-linejoin="round" transform="matrix(0.749703,0,0,0.749987,-74.3199,-16.8934)"
font-family="Helvetica" font-size="13" font-weight="700" font-style="normal" 
>
<polyline fill="none" vector-effect="none" points="147,39 147,218 " />
<polyline fill="none" vector-effect="none" points="256.625,39 256.625,218 " />
<polyline fill="none" vector-effect="none" points="366.25,39 366.25,218 " />
<polyline fill="none" vector-effect="none" points="475.875,39 475.875,218 " />
<polyline fill="none" vector-effect="none" points="585.5,39 585.5,218 " />
<polyline fill="none" vector-effect="none" points="695.125,39 695.125,218 " />
<polyline fill="none" vector-effect="none" points="804.75,39 804.75,218 " />
<polyline fill="none" vector-effect="none" points="914.375,39 914.375,218 " />
<polyline fill="none" vector-effect="none" points="1024,39 1024,218 " />
<polyline fill="none" vector-effect="none" points="147,210.869 1024,210.869 " />
<polyline fill="none" vector-effect="none" points="147,184.379 1024,184.379 " />
<polyline fill="none" vector-effect="none" points="147,157.889 1024,157.889 " />
<polyline fill="none" vector-effect="none" points="147,131.399 1024,131.399 " />
<polyline fill="none" vector-effect="none" points="147,104.909 1024,104.909 " />
<polyline fill="none" vector-effect="none" points="147,78.4187 1024,78.4187 " />
<polyline fill="none" vector-effect="none" points="147,51.9286 1024,51.9286 " />
</g>

<g fill="#212121" fill-opacity="1" stroke="#212121" stroke-opacity="1" stroke-width="1" stroke-linecap="square" stroke-linejoin="bevel" transform="matrix(0.749703,0,0,0.749987,328.645,169.403)"
font-family="Helvetica" font-size="13" font-weight="400" font-style="normal" 
>
<text fill="#212121" fill-opacity="1" stroke="none" xml:space="preserve" x="0" y="0" font-family="Helvetica" font-size="13" font-weight="400" font-style="normal" 
 >Frequency (kHz)</text>
</g>

<g fill="#212121" fill-opacity="1" stroke="#212121" stroke-opacity="1" stroke-width="0.666667" stroke-linecap="square" stroke-linejoin="round" transform="matrix(0.749703,0,0,0.749987,-74.3199,-16.8934)"
font-family="Helvetica" font-size="13" font-weight="400" font-style="normal" 
>
<polyline fill="none" vector-effect="none" points="147,218 1024,218 " />
<polyline fill="none" vector-effect="none" points="147,39 1024,39 " />
<polyline fill="none" vector-effect="none" points="147,218 147,209.23 " />
<polyline fill="none" vector-effect="none" points="147,47.77 147,39 " />
<polyline fill="none" vector-effect="none" points="256.625,218 256.625,209.23 " />
<polyline fill="none" vector-effect="none" points="256.625,47.77 256.625,39 " />
<polyline fill="none" vector-effect="none" points="366.25,218 366.25,209.23 " />
<polyline fill="none" vector-effect="none" points="366.25,47.77 366.25,39 " />
<polyline fill="none" vector-effect="none" points="475.875,218 475.875,209.23 " />
<polyline fill="none" vector-effect="none" points="475.875,47.77 475.875,39 " />
<polyline fill="none" vector-effect="none" points="585.5,218 585.5,209.23 " />
<polyline fill="none" vector-effect="none" points="585.5,47.77 585.5,39 " />
<polyline fill="none" vector-effect="none" points="695.125,218 695.125,209.23 " />
<polyline fill="none" vector-effect="none" points="695.125,47.77 695.125,39 " />
<polyline fill="none" vector-effect="none" points="804.75,218 804.75,209.23 " />
<polyline fill="none" vector-effect="none" points="804.75,47.77 804.75,39 " />
<polyline fill="none" vector-effect="none" points="914.375,218 914.375,209.23 " />
<polyline fill="none" vector-effect="none" points="914.375,47.77 914.375,39 " />
<polyline fill="none" vector-effect="none" points="1024,218 1024,209.23 " />
<polyline fill="none" vector-effect="none" points="1024,47.77 1024,39 " />
</g>

<g fill="#212121" fill-opacity="1" stroke="#212121" stroke-opacity="1" stroke-width="1" stroke-linecap="square" stroke-linejoin="bevel" transform="matrix(0.749703,0,0,0.749987,33.2624,157.654)"
font-family="Helvetica" font-size="12" font-weight="400" font-style="normal" 
>
<text fill="#212121" fill-opacity="1" stroke="none" xml:space="preserve" x="0" y="0" font-family="Helvetica" font-size="12" font-weight="400" font-style="normal" 
 >0</text>
</g>

<g fill="#212121" fill-opacity="1" stroke="#212121" stroke-opacity="1" stroke-width="1" stroke-linecap="square" stroke-linejoin="bevel" transform="matrix(0.749703,0,0,0.749987,111.7,157.654)"
font-family="Helvetica" font-size="12" font-weight="400" font-style="normal" 
>
<text fill="#212121" fill-opacity="1" stroke="none" xml:space="preserve" x="0" y="0" font-family="Helvetica" font-size="12" font-weight="400" font-style="normal" 
 >0.5</text>
</g>

<g fill="#212121" fill-opacity="1" stroke="#212121" stroke-opacity="1" stroke-width="1" stroke-linecap="square" stroke-linejoin="bevel" transform="matrix(0.749703,0,0,0.749987,197.635,157.654)"
font-family="Helvetica" font-size="12" font-weight="400" font-style="normal" 
>
<text fill="#212121" fill-opacity="1" stroke="none" xml:space="preserve" x="0" y="0" font-family="Helvetica" font-size="12" font-weight="400" font-style="normal" 
 >1</text>
</g>

<g fill="#212121" fill-opacity="1" stroke="#212121" stroke-opacity="1" stroke-width="1" stroke-linecap="square" stroke-linejoin="bevel" transform="matrix(0.749703,0,0,0.749987,276.072,157.654)"
font-family="Helvetica" font-size="12" font-weight="400" font-style="normal" 
>
<text fill="#212121" fill-opacity="1" stroke="none" xml:space="preserve" x="0" y="0" font-family="Helvetica" font-size="12" font-weight="400" font-style="normal" 
 >1.5</text>
</g>

<g fill="#212121" fill-opacity="1" stroke="#212121" stroke-opacity="1" stroke-width="1" stroke-linecap="square" stroke-linejoin="bevel" transform="matrix(0.749703,0,0,0.749987,362.007,157.654)"
font-family="Helvetica" font-size="12" font-weight="400" font-style="normal" 
>
<text fill="#212121" fill-opacity="1" stroke="none" xml:space="preserve" x="0" y="0" font-family="Helvetica" font-size="12" font-weight="400" font-style="normal" 
 >2</text>
</g>

<g fill="#212121" fill-opacity="1" stroke="#212121" stroke-opacity="1" stroke-width="1" stroke-linecap="square" stroke-linejoin="bevel" transform="matrix(0.749703,0,0,0.749987,440.445,157.654)"
font-family="Helvetica" font-size="12" font-weight="400" font-style="normal" 
>
<text fill="#212121" fill-opacity="1" stroke="none" xml:space="preserve" x="0" y="0" font-family="Helvetica" font-size="12" font-weight="400" font-style="normal" 
 >2.5</text>
</g>

<g fill="#212121" fill-opacity="1" stroke="#212121" stroke-opacity="1" stroke-width="1" stroke-linecap="square" stroke-linejoin="bevel" transform="matrix(0.749703,0,0,0.749987,526.379,157.654)"
font-family="Helvetica" font-size="12" font-weight="400" font-style="normal" 
>
<text fill="#212121" fill-opacity="1" stroke="none" xml:space="preserve" x="0" y="0" font-family="Helvetica" font-size="12" font-weight="400" font-style="normal" 
 >3</text>
</g>

<g fill="#212121" fill-opacity="1" stroke="#212121" stroke-opacity="1" stroke-width="1" stroke-linecap="square" stroke-linejoin="bevel" transform="matrix(0.749703,0,0,0.749987,604.817,157.654)"
font-family="Helvetica" font-size="12" font-weight="400" font-style="normal" 
>
<text fill="#212121" fill-opacity="1" stroke="none" xml:space="preserve" x="0" y="0" font-family="Helvetica" font-size="12" font-weight="400" font-style="normal" 
 >3.5</text>
</g>

<g fill="#212121" fill-opacity="1" stroke="#212121" stroke-opacity="1" stroke-width="1" stroke-linecap="square" stroke-linejoin="bevel" transform="matrix(0.749703,0,0,0.749987,690.752,157.654)"
font-family="Helvetica" font-size="12" font-weight="400" font-style="normal" 
>
<text fill="#212121" fill-opacity="1" stroke="none" xml:space="preserve" x="0" y="0" font-family="Helvetica" font-size="12" font-weight="400" font-style="normal" 
 >4</text>
</g>

<g fill="#212121" fill-opacity="1" stroke="#212121" stroke-opacity="1" stroke-width="1" stroke-linecap="square" stroke-linejoin="bevel" transform="matrix(0,-0.749987,0.749703,0,10.0966,112.854)"
font-family="Helvetica" font-size="13" font-weight="400" font-style="normal" 
>
<text fill="#212121" fill-opacity="1" stroke="none" xml:space="preserve" x="0" y="0" font-family="Helvetica" font-size="13" font-weight="400" font-style="normal" 
 >Magnitude (dB)</text>
</g>

<g fill="#212121" fill-opacity="1" stroke="#212121" stroke-opacity="1" stroke-width="0.666667" stroke-linecap="square" stroke-linejoin="round" transform="matrix(0.749703,0,0,0.749987,-74.3199,-16.8934)"
font-family="Helvetica" font-size="13" font-weight="400" font-style="normal" 
>
<polyline fill="none" vector-effect="none" points="147,218 147,39 " />
<polyline fill="none" vector-effect="none" points="1024,218 1024,39 " />
<polyline fill="none" vector-effect="none" points="147,210.869 155.77,210.869 " />
<polyline fill="none" vector-effect="none" points="1015.23,210.869 1024,210.869 " />
<polyline fill="none" vector-effect="none" points="147,184.379 155.77,184.379 " />
<polyline fill="none" vector-effect="none" points="1015.23,184.379 1024,184.379 " />
<polyline fill="none" vector-effect="none" points="147,157.889 155.77,157.889 " />
<polyline fill="none" vector-effect="none" points="1015.23,157.889 1024,157.889 " />
<polyline fill="none" vector-effect="none" points="147,131.399 155.77,131.399 " />
<polyline fill="none" vector-effect="none" points="1015.23,131.399 1024,131.399 " />
<polyline fill="none" vector-effect="none" points="147,104.909 155.77,104.909 " />
<polyline fill="none" vector-effect="none" points="1015.23,104.909 1024,104.909 " />
<polyline fill="none" vector-effect="none" points="147,78.4187 155.77,78.4187 " />
<polyline fill="none" vector-effect="none" points="1015.23,78.4187 1024,78.4187 " />
<polyline fill="none" vector-effect="none" points="147,51.9286 155.77,51.9286 " />
<polyline fill="none" vector-effect="none" points="1015.23,51.9286 1024,51.9286 " />
</g>

<g fill="#212121" fill-opacity="1" stroke="#212121" stroke-opacity="1" stroke-width="1" stroke-linecap="square" stroke-linejoin="bevel" transform="matrix(0.749703,0,0,0.749987,15.0946,144.256)"
font-family="Helvetica" font-size="12" font-weight="400" font-style="normal" 
>
<text fill="#212121" fill-opacity="1" stroke="none" xml:space="preserve" x="0" y="0" font-family="Helvetica" font-size="12" font-weight="400" font-style="normal" 
 >-120</text>
</g>

<g fill="#212121" fill-opacity="1" stroke="#212121" stroke-opacity="1" stroke-width="1" stroke-linecap="square" stroke-linejoin="bevel" transform="matrix(0.749703,0,0,0.749987,15.0946,124.388)"
font-family="Helvetica" font-size="12" font-weight="400" font-style="normal" 
>
<text fill="#212121" fill-opacity="1" stroke="none" xml:space="preserve" x="0" y="0" font-family="Helvetica" font-size="12" font-weight="400" font-style="normal" 
 >-100</text>
</g>

<g fill="#212121" fill-opacity="1" stroke="#212121" stroke-opacity="1" stroke-width="1" stroke-linecap="square" stroke-linejoin="bevel" transform="matrix(0.749703,0,0,0.749987,20.3425,104.521)"
font-family="Helvetica" font-size="12" font-weight="400" font-style="normal" 
>
<text fill="#212121" fill-opacity="1" stroke="none" xml:space="preserve" x="0" y="0" font-family="Helvetica" font-size="12" font-weight="400" font-style="normal" 
 >-80</text>
</g>

<g fill="#212121" fill-opacity="1" stroke="#212121" stroke-opacity="1" stroke-width="1" stroke-linecap="square" stroke-linejoin="bevel" transform="matrix(0.749703,0,0,0.749987,20.3425,84.6539)"
font-family="Helvetica" font-size="12" font-weight="400" font-style="normal" 
>
<text fill="#212121" fill-opacity="1" stroke="none" xml:space="preserve" x="0" y="0" font-family="Helvetica" font-size="12" font-weight="400" font-style="normal" 
 >-60</text>
</g>

<g fill="#212121" fill-opacity="1" stroke="#212121" stroke-opacity="1" stroke-width="1" stroke-linecap="square" stroke-linejoin="bevel" transform="matrix(0.749703,0,0,0.749987,20.3425,64.7867)"
font-family="Helvetica" font-size="12" font-weight="400" font-style="normal" 
>
<text fill="#212121" fill-opacity="1" stroke="none" xml:space="preserve" x="0" y="0" font-family="Helvetica" font-size="12" font-weight="400" font-style="normal" 
 >-40</text>
</g>

<g fill="#212121" fill-opacity="1" stroke="#212121" stroke-opacity="1" stroke-width="1" stroke-linecap="square" stroke-linejoin="bevel" transform="matrix(0.749703,0,0,0.749987,20.3425,44.9195)"
font-family="Helvetica" font-size="12" font-weight="400" font-style="normal" 
>
<text fill="#212121" fill-opacity="1" stroke="none" xml:space="preserve" x="0" y="0" font-family="Helvetica" font-size="12" font-weight="400" font-style="normal" 
 >-20</text>
</g>

<g fill="#212121" fill-opacity="1" stroke="#212121" stroke-opacity="1" stroke-width="1" stroke-linecap="square" stroke-linejoin="bevel" transform="matrix(0.749703,0,0,0.749987,27.8396,25.0523)"
font-family="Helvetica" font-size="12" font-weight="400" font-style="normal" 
>
<text fill="#212121" fill-opacity="1" stroke="none" xml:space="preserve" x="0" y="0" font-family="Helvetica" font-size="12" font-weight="400" font-style="normal" 
 >0</text>
</g>

<g fill="#212121" fill-opacity="1" stroke="#212121" stroke-opacity="1" stroke-width="1" stroke-linecap="square" stroke-linejoin="bevel" transform="matrix(0.749703,0,0,0.749987,340.266,8.24988)"
font-family="Helvetica" font-size="13" font-weight="700" font-style="normal" 
>
<text fill="#212121" fill-opacity="1" stroke="none" xml:space="preserve" x="0" y="0" font-family="Helvetica" font-size="13" font-weight="700" font-style="normal" 
 >Magnitude</text>
</g>

<g fill="none" stroke="#1171be" stroke-opacity="1" stroke-width="0.666667" stroke-linecap="butt" stroke-linejoin="round" transform="matrix(0.749703,0,0,0.749987,-74.3199,-16.8934)"
font-family="Helvetica" font-size="13" font-weight="700" font-style="normal" 
>
<polyline fill="none" vector-effect="none" points="185.006,218 185.112,217.837 185.54,217.185 185.968,216.54 186.396,215.903 186.825,215.272 187.253,214.647 187.681,214.029 188.109,213.417 188.538,212.812 188.966,212.212 189.394,211.618 189.822,211.03 190.25,210.448 190.679,209.871 191.107,209.3 191.535,208.733 191.963,208.173 192.392,207.617 192.82,207.066 193.248,206.52 193.676,205.979 194.104,205.443 194.533,204.912 194.961,204.384 195.389,203.862 195.817,203.344 196.246,202.83 196.674,202.32 197.102,201.815 197.53,201.314 197.958,200.816 198.387,200.323 198.815,199.834 199.243,199.348 199.671,198.866 200.1,198.388 200.528,197.914 200.956,197.443 201.384,196.975 201.813,196.511 202.241,196.051 202.669,195.594 203.097,195.14 203.525,194.689 203.954,194.242 204.382,193.798 204.81,193.356 205.238,192.918 205.667,192.483 206.095,192.051 206.523,191.622 206.951,191.195 207.379,190.772 207.808,190.351 208.236,189.933 208.664,189.518 209.092,189.105 209.521,188.695 209.949,188.288 210.377,187.883 210.805,187.48 211.233,187.081 211.662,186.683 212.09,186.288 212.518,185.896 212.946,185.505 213.375,185.117 213.803,184.732 214.231,184.348 214.659,183.967 215.087,183.588 215.516,183.211 215.944,182.837 216.372,182.464 216.8,182.094 217.229,181.725 217.657,181.359 218.085,180.995 218.513,180.632 218.941,180.272 219.37,179.913 219.798,179.557 220.226,179.202 220.654,178.849 221.083,178.498 221.511,178.149 221.939,177.801 222.367,177.456 222.795,177.112 223.224,176.77 223.652,176.429 224.08,176.09 224.508,175.753 224.937,175.418 225.365,175.084 225.793,174.752 226.221,174.421 226.649,174.092 227.078,173.764 227.506,173.438 227.934,173.114 228.362,172.791 228.791,172.469 229.219,172.149 229.647,171.831 230.075,171.514 230.503,171.198 230.932,170.883 231.36,170.571 231.788,170.259 232.216,169.949 232.645,169.64 233.073,169.332 233.501,169.026 233.929,168.721 234.357,168.417 234.786,168.115 235.214,167.814 235.642,167.514 236.07,167.215 236.499,166.918 236.927,166.621 237.355,166.326 237.783,166.032 238.211,165.74 238.64,165.448 239.068,165.158 239.496,164.868 239.924,164.58 240.353,164.293 240.781,164.007 241.209,163.722 241.637,163.438 242.065,163.155 242.494,162.874 242.922,162.593 243.35,162.313 243.778,162.035 244.207,161.757 244.635,161.48 245.063,161.205 245.491,160.93 245.919,160.656 246.348,160.384 246.776,160.112 247.204,159.841 247.632,159.571 248.061,159.302 248.489,159.034 248.917,158.767 249.345,158.5 249.773,158.235 250.202,157.971 250.63,157.707 251.058,157.444 251.486,157.182 251.915,156.921 252.343,156.661 252.771,156.401 253.199,156.143 253.627,155.885 254.056,155.628 254.484,155.372 254.912,155.116 255.34,154.862 255.769,154.608 256.197,154.355 256.625,154.103 257.053,153.851 257.481,153.6 257.91,153.35 258.338,153.101 258.766,152.852 259.194,152.604 259.623,152.357 260.051,152.111 260.479,151.865 260.907,151.62 261.335,151.375 261.764,151.132 262.192,150.889 262.62,150.646 263.048,150.404 263.477,150.163 263.905,149.923 264.333,149.683 264.761,149.444 265.189,149.206 265.618,148.968 266.046,148.731 266.474,148.494 266.902,148.258 267.331,148.022 267.759,147.788 268.187,147.553 268.615,147.32 269.043,147.087 269.472,146.854 269.9,146.622 270.328,146.391 270.756,146.16 271.185,145.93 271.613,145.7 272.041,145.471 272.469,145.243 272.897,145.015 273.326,144.787 273.754,144.56 274.182,144.334 274.61,144.108 275.039,143.882 275.467,143.657 275.895,143.433 276.323,143.209 276.751,142.986 277.18,142.763 277.608,142.54 278.036,142.318 278.464,142.097 278.893,141.876 279.321,141.655 279.749,141.435 280.177,141.215 280.605,140.996 281.034,140.778 281.462,140.559 281.89,140.342 282.318,140.124 282.747,139.907 283.175,139.691 283.603,139.475 284.031,139.259 284.459,139.044 284.888,138.829 285.316,138.614 285.744,138.4 286.172,138.187 286.601,137.974 287.029,137.761 287.457,137.548 287.885,137.336 288.313,137.125 288.742,136.914 289.17,136.703 289.598,136.492 290.026,136.282 290.455,136.072 290.883,135.863 291.311,135.654 291.739,135.445 292.167,135.237 292.596,135.029 293.024,134.822 293.452,134.614 293.88,134.407 294.309,134.201 294.737,133.995 295.165,133.789 295.593,133.583 296.021,133.378 296.45,133.173 296.878,132.968 297.306,132.764 297.734,132.56 298.163,132.357 298.591,132.153 299.019,131.95 299.447,131.747 299.875,131.545 300.304,131.343 300.732,131.141 301.16,130.939 301.588,130.738 302.017,130.537 302.445,130.337 302.873,130.136 303.301,129.936 303.729,129.736 304.158,129.537 304.586,129.337 305.014,129.138 305.442,128.939 305.871,128.741 306.299,128.543 306.727,128.345 307.155,128.147 307.583,127.949 308.012,127.752 308.44,127.555 308.868,127.358 309.296,127.162 309.725,126.965 310.153,126.769 310.581,126.573 311.009,126.378 311.438,126.182 311.866,125.987 312.294,125.792 312.722,125.597 313.15,125.403 313.579,125.209 314.007,125.015 314.435,124.821 314.863,124.627 315.292,124.434 315.72,124.24 316.148,124.047 316.576,123.854 317.004,123.662 317.433,123.469 317.861,123.277 318.289,123.085 318.717,122.893 319.146,122.701 319.574,122.51 320.002,122.318 320.43,122.127 320.858,121.936 321.287,121.745 321.715,121.555 322.143,121.364 322.571,121.174 323,120.983 323.428,120.793 323.856,120.604 324.284,120.414 324.712,120.224 325.141,120.035 325.569,119.846 325.997,119.657 326.425,119.468 326.854,119.279 327.282,119.09 327.71,118.902 328.138,118.713 328.566,118.525 328.995,118.337 329.423,118.149 329.851,117.961 330.279,117.773 330.708,117.586 331.136,117.398 331.564,117.211 331.992,117.023 332.42,116.836 332.849,116.649 333.277,116.462 333.705,116.276 334.133,116.089 334.562,115.902 334.99,115.716 335.418,115.529 335.846,115.343 336.274,115.157 336.703,114.971 337.131,114.785 337.559,114.599 337.987,114.413 338.416,114.227 338.844,114.042 339.272,113.856 339.7,113.671 340.128,113.485 340.557,113.3 340.985,113.115 341.413,112.93 341.841,112.745 342.27,112.56 342.698,112.375 343.126,112.19 343.554,112.005 343.982,111.82 344.411,111.636 344.839,111.451 345.267,111.266 345.695,111.082 346.124,110.897 346.552,110.713 346.98,110.529 347.408,110.344 347.836,110.16 348.265,109.976 348.693,109.792 349.121,109.607 349.549,109.423 349.978,109.239 350.406,109.055 350.834,108.871 351.262,108.687 351.69,108.503 352.119,108.32 352.547,108.136 352.975,107.952 353.403,107.768 353.832,107.584 354.26,107.4 354.688,107.217 355.116,107.033 355.544,106.849 355.973,106.665 356.401,106.482 356.829,106.298 357.257,106.114 357.686,105.93 358.114,105.747 358.542,105.563 358.97,105.379 359.398,105.196 359.827,105.012 360.255,104.828 360.683,104.644 361.111,104.461 361.54,104.277 361.968,104.093 362.396,103.909 362.824,103.725 363.252,103.542 363.681,103.358 364.109,103.174 364.537,102.99 364.965,102.806 365.394,102.622 365.822,102.438 366.25,102.254 366.678,102.07 367.106,101.886 367.535,101.702 367.963,101.518 368.391,101.333 368.819,101.149 369.248,100.965 369.676,100.78 370.104,100.596 370.532,100.412 370.96,100.227 371.389,100.042 371.817,99.8578 372.245,99.6732 372.673,99.4884 373.102,99.3036 373.53,99.1187 373.958,98.9338 374.386,98.7488 374.814,98.5637 375.243,98.3785 375.671,98.1933 376.099,98.008 376.527,97.8226 376.956,97.6372 377.384,97.4516 377.812,97.266 378.24,97.0803 378.668,96.8945 379.097,96.7086 379.525,96.5226 379.953,96.3366 380.381,96.1504 380.81,95.9642 381.238,95.7778 381.666,95.5913 382.094,95.4048 382.522,95.2181 382.951,95.0313 383.379,94.8445 383.807,94.6575 384.235,94.4704 384.664,94.2832 385.092,94.0958 385.52,93.9084 385.948,93.7208 386.376,93.5331 386.805,93.3453 387.233,93.1574 387.661,92.9693 388.089,92.7812 388.518,92.5928 388.946,92.4044 389.374,92.2158 389.802,92.0271 390.23,91.8382 390.659,91.6492 391.087,91.4601 391.515,91.2708 391.943,91.0813 392.372,90.8918 392.8,90.702 393.228,90.5121 393.656,90.3221 394.084,90.1319 394.513,89.9416 394.941,89.751 395.369,89.5604 395.797,89.3695 396.226,89.1785 396.654,88.9874 397.082,88.796 397.51,88.6045 397.938,88.4128 398.367,88.221 398.795,88.0289 399.223,87.8367 399.651,87.6443 400.08,87.4518 400.508,87.259 400.936,87.0661 401.364,86.8729 401.792,86.6796 402.221,86.4861 402.649,86.2924 403.077,86.0985 403.505,85.9044 403.934,85.7101 404.362,85.5156 404.79,85.3209 405.218,85.126 405.646,84.9309 406.075,84.7356 406.503,84.5401 406.931,84.3444 407.359,84.1484 407.788,83.9523 408.216,83.7559 408.644,83.5593 409.072,83.3625 409.5,83.1655 409.929,82.9682 410.357,82.7707 410.785,82.573 411.213,82.3751 411.642,82.177 412.07,81.9786 412.498,81.78 412.926,81.5811 413.354,81.3821 413.783,81.1828 414.211,80.9832 414.639,80.7834 415.067,80.5834 415.496,80.3832 415.924,80.1827 416.352,79.9819 416.78,79.781 417.208,79.5798 417.637,79.3783 418.065,79.1766 418.493,78.9747 418.921,78.7725 419.35,78.57 419.778,78.3674 420.206,78.1645 420.634,77.9613 421.063,77.7579 421.491,77.5542 421.919,77.3503 422.347,77.1462 422.775,76.9418 423.204,76.7372 423.632,76.5323 424.06,76.3272 424.488,76.1219 424.917,75.9163 425.345,75.7104 425.773,75.5044 426.201,75.2981 426.629,75.0916 427.058,74.8848 427.486,74.6778 427.914,74.4706 428.342,74.2632 428.771,74.0555 429.199,73.8476 429.627,73.6395 430.055,73.4312 430.483,73.2227 430.912,73.014 431.34,72.8051 431.768,72.596 432.196,72.3867 432.625,72.1772 433.053,71.9676 433.481,71.7577 433.909,71.5477 434.337,71.3376 434.766,71.1273 435.194,70.9168 435.622,70.7063 436.05,70.4956 436.479,70.2847 436.907,70.0738 437.335,69.8628 437.763,69.6516 438.191,69.4404 438.62,69.2292 439.048,69.0179 439.476,68.8065 439.904,68.5951 440.333,68.3838 440.761,68.1724 441.189,67.961 441.617,67.7496 442.045,67.5384 442.474,67.3272 442.902,67.116 443.33,66.905 443.758,66.6941 444.187,66.4834 444.615,66.2728 445.043,66.0624 445.471,65.8523 445.899,65.6424 446.328,65.4327 446.756,65.2234 447.184,65.0143 447.612,64.8057 448.041,64.5974 448.469,64.3895 448.897,64.1821 449.325,63.9752 449.753,63.7687 450.182,63.5629 450.61,63.3576 451.038,63.1529 451.466,62.949 451.895,62.7457 452.323,62.5432 452.751,62.3414 453.179,62.1405 453.607,61.9405 454.036,61.7414 454.464,61.5433 454.892,61.3463 455.32,61.1503 455.749,60.9554 456.177,60.7617 456.605,60.5693 457.033,60.3781 457.461,60.1883 457.89,59.9998 458.318,59.8129 458.746,59.6274 459.174,59.4435 459.603,59.2612 460.031,59.0806 460.459,58.9018 460.887,58.7247 461.315,58.5495 461.744,58.3762 462.172,58.2049 462.6,58.0356 463.028,57.8684 463.457,57.7033 463.885,57.5404 464.313,57.3797 464.741,57.2214 465.169,57.0653 465.598,56.9117 466.026,56.7605 466.454,56.6118 466.882,56.4656 467.311,56.322 467.739,56.1809 468.167,56.0425 468.595,55.9068 469.023,55.7737 469.452,55.6434 469.88,55.5158 470.308,55.391 470.736,55.2689 471.165,55.1497 471.593,55.0332 472.021,54.9196 472.449,54.8088 472.877,54.7007 473.306,54.5955 473.734,54.4931 474.162,54.3935 474.59,54.2966 475.019,54.2025 475.447,54.1111 475.875,54.0225 476.303,53.9365 476.731,53.8532 477.16,53.7725 477.588,53.6944 478.016,53.6189 478.444,53.5459 478.873,53.4753 479.301,53.4072 479.729,53.3415 480.157,53.2781 480.585,53.217 481.014,53.1582 481.442,53.1016 481.87,53.0471 482.298,52.9946 482.727,52.9443 483.155,52.8959 483.583,52.8494 484.011,52.8049 484.439,52.7621 484.868,52.7212 485.296,52.6819 485.724,52.6443 486.152,52.6083 486.581,52.5739 487.009,52.541 487.437,52.5096 487.865,52.4795 488.293,52.4508 488.722,52.4235 489.15,52.3973 489.578,52.3724 490.006,52.3487 490.435,52.3261 490.863,52.3045 491.291,52.284 491.719,52.2645 492.147,52.246 492.576,52.2284 493.004,52.2116 493.432,52.1957 493.86,52.1806 494.289,52.1662 494.717,52.1526 495.145,52.1397 495.573,52.1274 496.001,52.1158 496.43,52.1048 496.858,52.0944 497.286,52.0846 497.714,52.0753 498.143,52.0664 498.571,52.0581 498.999,52.0502 499.427,52.0428 499.855,52.0358 500.284,52.0291 500.712,52.0229 501.14,52.017 501.568,52.0114 501.997,52.0061 502.425,52.0012 502.853,51.9965 503.281,51.9921 503.709,51.988 504.138,51.9841 504.566,51.9805 504.994,51.977 505.422,51.9738 505.851,51.9708 506.279,51.9679 506.707,51.9653 507.135,51.9628 507.563,51.9604 507.992,51.9582 508.42,51.9562 508.848,51.9542 509.276,51.9524 509.705,51.9507 510.133,51.9492 510.561,51.9477 510.989,51.9463 511.417,51.945 511.846,51.9438 512.274,51.9427 512.702,51.9416 513.13,51.9407 513.559,51.9397 513.987,51.9389 514.415,51.9381 514.843,51.9374 515.271,51.9367 515.7,51.9361 516.128,51.9355 516.556,51.9349 516.984,51.9344 517.413,51.934 517.841,51.9335 518.269,51.9331 518.697,51.9327 519.125,51.9324 519.554,51.9321 519.982,51.9318 520.41,51.9315 520.838,51.9313 521.267,51.931 521.695,51.9308 522.123,51.9306 522.551,51.9304 522.979,51.9303 523.408,51.9301 523.836,51.93 524.264,51.9299 524.692,51.9297 525.121,51.9296 525.549,51.9295 525.977,51.9294 526.405,51.9294 526.833,51.9293 527.262,51.9292 527.69,51.9292 528.118,51.9291 528.546,51.9291 528.975,51.929 529.403,51.929 529.831,51.9289 530.259,51.9289 530.688,51.9289 531.116,51.9288 531.544,51.9288 531.972,51.9288 532.4,51.9288 532.829,51.9287 533.257,51.9287 533.685,51.9287 534.113,51.9287 534.542,51.9287 534.97,51.9287 535.398,51.9287 535.826,51.9286 536.254,51.9286 536.683,51.9286 537.111,51.9286 537.539,51.9286 537.967,51.9286 538.396,51.9286 538.824,51.9286 539.252,51.9286 539.68,51.9286 540.108,51.9286 540.537,51.9286 540.965,51.9286 541.393,51.9286 541.821,51.9286 542.25,51.9286 542.678,51.9286 543.106,51.9286 543.534,51.9286 543.962,51.9286 544.391,51.9286 544.819,51.9286 545.247,51.9286 545.675,51.9286 546.104,51.9286 546.532,51.9286 546.96,51.9286 547.388,51.9286 547.816,51.9286 548.245,51.9286 548.673,51.9286 549.101,51.9286 549.529,51.9286 549.958,51.9286 550.386,51.9286 550.814,51.9286 551.242,51.9286 551.67,51.9286 552.099,51.9286 552.527,51.9286 552.955,51.9286 553.383,51.9286 553.812,51.9286 554.24,51.9286 554.668,51.9286 555.096,51.9286 555.524,51.9286 555.953,51.9286 556.381,51.9286 556.809,51.9286 557.237,51.9286 557.666,51.9286 558.094,51.9286 558.522,51.9286 558.95,51.9286 559.378,51.9286 559.807,51.9286 560.235,51.9286 560.663,51.9286 561.091,51.9286 561.52,51.9286 561.948,51.9286 562.376,51.9286 562.804,51.9286 563.232,51.9286 563.661,51.9286 564.089,51.9286 564.517,51.9286 564.945,51.9286 565.374,51.9286 565.802,51.9286 566.23,51.9286 566.658,51.9286 567.086,51.9286 567.515,51.9286 567.943,51.9286 568.371,51.9286 568.799,51.9286 569.228,51.9286 569.656,51.9286 570.084,51.9286 570.512,51.9286 570.94,51.9286 571.369,51.9286 571.797,51.9286 572.225,51.9286 572.653,51.9286 573.082,51.9286 573.51,51.9286 573.938,51.9286 574.366,51.9286 574.794,51.9286 575.223,51.9286 575.651,51.9286 576.079,51.9286 576.507,51.9286 576.936,51.9286 577.364,51.9286 577.792,51.9286 578.22,51.9286 578.648,51.9286 579.077,51.9286 579.505,51.9286 579.933,51.9286 580.361,51.9286 580.79,51.9286 581.218,51.9286 581.646,51.9286 582.074,51.9286 582.502,51.9286 582.931,51.9286 583.359,51.9286 583.787,51.9286 584.215,51.9286 584.644,51.9286 585.072,51.9286 585.5,51.9286 585.928,51.9286 586.356,51.9286 586.785,51.9286 587.213,51.9286 587.641,51.9286 588.069,51.9286 588.498,51.9286 588.926,51.9286 589.354,51.9286 589.782,51.9286 590.21,51.9286 590.639,51.9286 591.067,51.9286 591.495,51.9286 591.923,51.9286 592.352,51.9286 592.78,51.9286 593.208,51.9286 593.636,51.9286 594.064,51.9286 594.493,51.9286 594.921,51.9286 595.349,51.9286 595.777,51.9286 596.206,51.9286 596.634,51.9286 597.062,51.9286 597.49,51.9286 597.918,51.9286 598.347,51.9286 598.775,51.9286 599.203,51.9286 599.631,51.9286 600.06,51.9286 600.488,51.9286 600.916,51.9286 601.344,51.9286 601.772,51.9286 602.201,51.9286 602.629,51.9286 603.057,51.9286 603.485,51.9286 603.914,51.9286 604.342,51.9287 604.77,51.9287 605.198,51.9287 605.626,51.9287 606.055,51.9287 606.483,51.9287 606.911,51.9287 607.339,51.9287 607.768,51.9288 608.196,51.9288 608.624,51.9288 609.052,51.9288 609.48,51.9289 609.909,51.9289 610.337,51.9289 610.765,51.929 611.193,51.929 611.622,51.9291 612.05,51.9291 612.478,51.9292 612.906,51.9292 613.334,51.9293 613.763,51.9294 614.191,51.9295 614.619,51.9296 615.047,51.9297 615.476,51.9298 615.904,51.9299 616.332,51.93 616.76,51.9301 617.188,51.9303 617.617,51.9305 618.045,51.9306 618.473,51.9308 618.901,51.931 619.33,51.9313 619.758,51.9315 620.186,51.9318 620.614,51.9321 621.042,51.9324 621.471,51.9327 621.899,51.9331 622.327,51.9335 622.755,51.9339 623.184,51.9343 623.612,51.9348 624.04,51.9353 624.468,51.9359 624.896,51.9365 625.325,51.9372 625.753,51.9379 626.181,51.9386 626.609,51.9394 627.038,51.9403 627.466,51.9412 627.894,51.9422 628.322,51.9433 628.75,51.9444 629.179,51.9456 629.607,51.9469 630.035,51.9483 630.463,51.9498 630.892,51.9514 631.32,51.9531 631.748,51.9549 632.176,51.9568 632.604,51.9589 633.033,51.9611 633.461,51.9634 633.889,51.9659 634.317,51.9685 634.746,51.9713 635.174,51.9743 635.602,51.9775 636.03,51.9809 636.458,51.9844 636.887,51.9882 637.315,51.9923 637.743,51.9965 638.171,52.0011 638.6,52.0059 639.028,52.011 639.456,52.0164 639.884,52.0221 640.313,52.0281 640.741,52.0345 641.169,52.0412 641.597,52.0484 642.025,52.0559 642.454,52.0639 642.882,52.0723 643.31,52.0812 643.738,52.0906 644.167,52.1005 644.595,52.1109 645.023,52.1219 645.451,52.1335 645.879,52.1457 646.308,52.1585 646.736,52.172 647.164,52.1862 647.592,52.2012 648.021,52.2169 648.449,52.2334 648.877,52.2507 649.305,52.2689 649.733,52.288 650.162,52.3081 650.59,52.3291 651.018,52.3511 651.446,52.3742 651.875,52.3984 652.303,52.4237 652.731,52.4502 653.159,52.4779 653.587,52.5069 654.016,52.5372 654.444,52.5688 654.872,52.6018 655.3,52.6363 655.729,52.6723 656.157,52.7098 656.585,52.7489 657.013,52.7896 657.441,52.832 657.87,52.8762 658.298,52.9221 658.726,52.9698 659.154,53.0194 659.583,53.071 660.011,53.1245 660.439,53.18 660.867,53.2375 661.295,53.2972 661.724,53.3589 662.152,53.4229 662.58,53.4891 663.008,53.5575 663.437,53.6283 663.865,53.7014 664.293,53.7768 664.721,53.8547 665.149,53.9349 665.578,54.0176 666.006,54.1028 666.434,54.1905 666.862,54.2808 667.291,54.3735 667.719,54.4688 668.147,54.5667 668.575,54.6672 669.003,54.7702 669.432,54.8758 669.86,54.984 670.288,55.0948 670.716,55.2081 671.145,55.324 671.573,55.4425 672.001,55.5635 672.429,55.6871 672.857,55.8131 673.286,55.9416 673.714,56.0726 674.142,56.206 674.57,56.3419 674.999,56.4801 675.427,56.6206 675.855,56.7634 676.283,56.9085 676.711,57.0558 677.14,57.2053 677.568,57.3569 677.996,57.5106 678.424,57.6663 678.853,57.8241 679.281,57.9838 679.709,58.1454 680.137,58.3088 680.565,58.4741 680.994,58.6411 681.422,58.8098 681.85,58.9801 682.278,59.1521 682.707,59.3256 683.135,59.5006 683.563,59.677 683.991,59.8548 684.419,60.034 684.848,60.2144 685.276,60.3961 685.704,60.579 686.132,60.7631 686.561,60.9482 686.989,61.1344 687.417,61.3216 687.845,61.5098 688.273,61.6989 688.702,61.8888 689.13,62.0796 689.558,62.2712 689.986,62.4635 690.415,62.6565 690.843,62.8502 691.271,63.0445 691.699,63.2395 692.127,63.435 692.556,63.631 692.984,63.8275 693.412,64.0245 693.84,64.2219 694.269,64.4197 694.697,64.6179 695.125,64.8164 695.553,65.0153 695.981,65.2144 696.41,65.4138 696.838,65.6135 697.266,65.8134 697.694,66.0134 698.123,66.2137 698.551,66.414 698.979,66.6146 699.407,66.8152 699.835,67.0159 700.264,67.2167 700.692,67.4176 701.12,67.6185 701.548,67.8194 701.977,68.0203 702.405,68.2213 702.833,68.4222 703.261,68.6231 703.689,68.8239 704.118,69.0247 704.546,69.2254 704.974,69.4261 705.402,69.6267 705.831,69.8271 706.259,70.0275 706.687,70.2277 707.115,70.4278 707.543,70.6278 707.972,70.8276 708.4,71.0273 708.828,71.2269 709.256,71.4262 709.685,71.6255 710.113,71.8245 710.541,72.0233 710.969,72.222 711.397,72.4205 711.826,72.6188 712.254,72.8168 712.682,73.0147 713.11,73.2124 713.539,73.4099 713.967,73.6071 714.395,73.8042 714.823,74.001 715.251,74.1975 715.68,74.3939 716.108,74.59 716.536,74.7859 716.964,74.9816 717.393,75.1771 717.821,75.3723 718.249,75.5672 718.677,75.762 719.105,75.9565 719.534,76.1507 719.962,76.3447 720.39,76.5385 720.818,76.732 721.247,76.9253 721.675,77.1183 722.103,77.3111 722.531,77.5036 722.959,77.6959 723.388,77.888 723.816,78.0798 724.244,78.2713 724.672,78.4626 725.101,78.6537 725.529,78.8445 725.957,79.0351 726.385,79.2255 726.813,79.4156 727.242,79.6054 727.67,79.795 728.098,79.9844 728.526,80.1735 728.955,80.3624 729.383,80.5511 729.811,80.7395 730.239,80.9277 730.667,81.1156 731.096,81.3033 731.524,81.4908 731.952,81.678 732.38,81.865 732.809,82.0518 733.237,82.2383 733.665,82.4247 734.093,82.6108 734.521,82.7966 734.95,82.9823 735.378,83.1677 735.806,83.3529 736.234,83.5379 736.663,83.7226 737.091,83.9072 737.519,84.0915 737.947,84.2756 738.375,84.4595 738.804,84.6432 739.232,84.8267 739.66,85.0099 740.088,85.193 740.517,85.3758 740.945,85.5585 741.373,85.7409 741.801,85.9232 742.229,86.1052 742.658,86.2871 743.086,86.4687 743.514,86.6502 743.942,86.8314 744.371,87.0125 744.799,87.1934 745.227,87.3741 745.655,87.5546 746.083,87.7349 746.512,87.9151 746.94,88.095 747.368,88.2748 747.796,88.4544 748.225,88.6338 748.653,88.8131 749.081,88.9921 749.509,89.171 749.938,89.3498 750.366,89.5283 750.794,89.7067 751.222,89.885 751.65,90.063 752.079,90.2409 752.507,90.4187 752.935,90.5963 753.363,90.7737 753.792,90.951 754.22,91.1281 754.648,91.305 755.076,91.4818 755.504,91.6585 755.933,91.835 756.361,92.0114 756.789,92.1876 757.217,92.3637 757.646,92.5397 758.074,92.7155 758.502,92.8911 758.93,93.0667 759.358,93.2421 759.787,93.4173 760.215,93.5925 760.643,93.7675 761.071,93.9424 761.5,94.1171 761.928,94.2917 762.356,94.4662 762.784,94.6406 763.212,94.8149 763.641,94.989 764.069,95.1631 764.497,95.337 764.925,95.5108 765.354,95.6845 765.782,95.858 766.21,96.0315 766.638,96.2049 767.066,96.3781 767.495,96.5513 767.923,96.7243 768.351,96.8973 768.779,97.0701 769.208,97.2429 769.636,97.4156 770.064,97.5881 770.492,97.7606 770.92,97.933 771.349,98.1053 771.777,98.2775 772.205,98.4496 772.633,98.6216 773.062,98.7936 773.49,98.9654 773.918,99.1372 774.346,99.3089 774.774,99.4806 775.203,99.6521 775.631,99.8236 776.059,99.995 776.487,100.166 776.916,100.338 777.344,100.509 777.772,100.68 778.2,100.851 778.628,101.022 779.057,101.193 779.485,101.364 779.913,101.535 780.341,101.705 780.77,101.876 781.198,102.047 781.626,102.217 782.054,102.388 782.482,102.558 782.911,102.729 783.339,102.899 783.767,103.07 784.195,103.24 784.624,103.41 785.052,103.581 785.48,103.751 785.908,103.921 786.336,104.091 786.765,104.261 787.193,104.431 787.621,104.601 788.049,104.771 788.478,104.941 788.906,105.111 789.334,105.281 789.762,105.451 790.19,105.621 790.619,105.791 791.047,105.96 791.475,106.13 791.903,106.3 792.332,106.47 792.76,106.64 793.188,106.809 793.616,106.979 794.044,107.149 794.473,107.319 794.901,107.488 795.329,107.658 795.757,107.828 796.186,107.997 796.614,108.167 797.042,108.337 797.47,108.506 797.898,108.676 798.327,108.846 798.755,109.016 799.183,109.185 799.611,109.355 800.04,109.525 800.468,109.695 800.896,109.864 801.324,110.034 801.752,110.204 802.181,110.374 802.609,110.544 803.037,110.714 803.465,110.883 803.894,111.053 804.322,111.223 804.75,111.393 805.178,111.563 805.606,111.733 806.035,111.903 806.463,112.074 806.891,112.244 807.319,112.414 807.748,112.584 808.176,112.754 808.604,112.925 809.032,113.095 809.46,113.265 809.889,113.436 810.317,113.606 810.745,113.777 811.173,113.947 811.602,114.118 812.03,114.289 812.458,114.459 812.886,114.63 813.314,114.801 813.743,114.972 814.171,115.143 814.599,115.314 815.027,115.485 815.456,115.656 815.884,115.827 816.312,115.999 816.74,116.17 817.168,116.341 817.597,116.513 818.025,116.685 818.453,116.856 818.881,117.028 819.31,117.2 819.738,117.372 820.166,117.544 820.594,117.716 821.022,117.888 821.451,118.06 821.879,118.232 822.307,118.405 822.735,118.577 823.164,118.75 823.592,118.923 824.02,119.096 824.448,119.268 824.876,119.441 825.305,119.615 825.733,119.788 826.161,119.961 826.589,120.135 827.018,120.308 827.446,120.482 827.874,120.655 828.302,120.829 828.73,121.003 829.159,121.177 829.587,121.352 830.015,121.526 830.443,121.7 830.872,121.875 831.3,122.05 831.728,122.225 832.156,122.4 832.584,122.575 833.013,122.75 833.441,122.925 833.869,123.101 834.297,123.276 834.726,123.452 835.154,123.628 835.582,123.804 836.01,123.98 836.438,124.157 836.867,124.333 837.295,124.51 837.723,124.687 838.151,124.864 838.58,125.041 839.008,125.218 839.436,125.396 839.864,125.573 840.292,125.751 840.721,125.929 841.149,126.107 841.577,126.285 842.005,126.464 842.434,126.642 842.862,126.821 843.29,127 843.718,127.179 844.146,127.358 844.575,127.538 845.003,127.718 845.431,127.897 845.859,128.077 846.288,128.258 846.716,128.438 847.144,128.619 847.572,128.8 848,128.981 848.429,129.162 848.857,129.343 849.285,129.525 849.713,129.707 850.142,129.889 850.57,130.071 850.998,130.254 851.426,130.436 851.854,130.619 852.283,130.802 852.711,130.986 853.139,131.169 853.567,131.353 853.996,131.537 854.424,131.721 854.852,131.906 855.28,132.09 855.708,132.275 856.137,132.46 856.565,132.646 856.993,132.831 857.421,133.017 857.85,133.204 858.278,133.39 858.706,133.577 859.134,133.764 859.563,133.951 859.991,134.138 860.419,134.326 860.847,134.514 861.275,134.702 861.704,134.89 862.132,135.079 862.56,135.268 862.988,135.458 863.417,135.647 863.845,135.837 864.273,136.027 864.701,136.217 865.129,136.408 865.558,136.599 865.986,136.791 866.414,136.982 866.842,137.174 867.271,137.366 867.699,137.559 868.127,137.752 868.555,137.945 868.983,138.138 869.412,138.332 869.84,138.526 870.268,138.72 870.696,138.915 871.125,139.11 871.553,139.305 871.981,139.501 872.409,139.697 872.837,139.893 873.266,140.09 873.694,140.287 874.122,140.484 874.55,140.682 874.979,140.88 875.407,141.079 875.835,141.277 876.263,141.477 876.691,141.676 877.12,141.876 877.548,142.076 877.976,142.277 878.404,142.478 878.833,142.679 879.261,142.881 879.689,143.083 880.117,143.286 880.545,143.489 880.974,143.692 881.402,143.896 881.83,144.1 882.258,144.304 882.687,144.509 883.115,144.714 883.543,144.92 883.971,145.126 884.399,145.333 884.828,145.54 885.256,145.747 885.684,145.955 886.112,146.164 886.541,146.372 886.969,146.582 887.397,146.791 887.825,147.001 888.253,147.212 888.682,147.423 889.11,147.634 889.538,147.846 889.966,148.059 890.395,148.272 890.823,148.485 891.251,148.699 891.679,148.913 892.107,149.128 892.536,149.343 892.964,149.559 893.392,149.776 893.82,149.992 894.249,150.21 894.677,150.428 895.105,150.646 895.533,150.865 895.961,151.084 896.39,151.304 896.818,151.525 897.246,151.746 897.674,151.968 898.103,152.19 898.531,152.412 898.959,152.636 899.387,152.86 899.815,153.084 900.244,153.309 900.672,153.534 901.1,153.761 901.528,153.987 901.957,154.215 902.385,154.443 902.813,154.671 903.241,154.9 903.669,155.13 904.098,155.361 904.526,155.592 904.954,155.823 905.382,156.056 905.811,156.289 906.239,156.522 906.667,156.756 907.095,156.991 907.523,157.227 907.952,157.463 908.38,157.7 908.808,157.938 909.236,158.176 909.665,158.415 910.093,158.655 910.521,158.895 910.949,159.136 911.377,159.378 911.806,159.621 912.234,159.864 912.662,160.108 913.09,160.353 913.519,160.598 913.947,160.845 914.375,161.092 914.803,161.34 915.231,161.588 915.66,161.838 916.088,162.088 916.516,162.339 916.944,162.591 917.373,162.844 917.801,163.097 918.229,163.352 918.657,163.607 919.085,163.863 919.514,164.12 919.942,164.377 920.37,164.636 920.798,164.896 921.227,165.156 921.655,165.417 922.083,165.679 922.511,165.943 922.939,166.207 923.368,166.472 923.796,166.738 924.224,167.005 924.652,167.272 925.081,167.541 925.509,167.811 925.937,168.082 926.365,168.354 926.793,168.626 927.222,168.9 927.65,169.175 928.078,169.451 928.506,169.728 928.935,170.006 929.363,170.285 929.791,170.565 930.219,170.846 930.647,171.129 931.076,171.412 931.504,171.697 931.932,171.982 932.36,172.269 932.789,172.557 933.217,172.846 933.645,173.137 934.073,173.428 934.501,173.721 934.93,174.015 935.358,174.31 935.786,174.607 936.214,174.905 936.643,175.204 937.071,175.504 937.499,175.806 937.927,176.109 938.355,176.413 938.784,176.718 939.212,177.025 939.64,177.334 940.068,177.644 940.497,177.955 940.925,178.267 941.353,178.581 941.781,178.897 942.209,179.214 942.638,179.532 943.066,179.852 943.494,180.173 943.922,180.496 944.351,180.821 944.779,181.147 945.207,181.474 945.635,181.804 946.063,182.135 946.492,182.467 946.92,182.801 947.348,183.137 947.776,183.475 948.205,183.814 948.633,184.155 949.061,184.498 949.489,184.842 949.917,185.189 950.346,185.537 950.774,185.887 951.202,186.239 951.63,186.593 952.059,186.949 952.487,187.307 952.915,187.666 953.343,188.028 953.771,188.392 954.2,188.758 954.628,189.125 955.056,189.495 955.484,189.867 955.913,190.242 956.341,190.618 956.769,190.997 957.197,191.378 957.625,191.761 958.054,192.146 958.482,192.534 958.91,192.924 959.338,193.317 959.767,193.712 960.195,194.109 960.623,194.509 961.051,194.912 961.479,195.317 961.908,195.725 962.336,196.135 962.764,196.548 963.192,196.964 963.621,197.382 964.049,197.804 964.477,198.228 964.905,198.655 965.333,199.085 965.762,199.518 966.19,199.954 966.618,200.393 967.046,200.835 967.475,201.28 967.903,201.729 968.331,202.181 968.759,202.636 969.188,203.094 969.616,203.556 970.044,204.022 970.472,204.491 970.9,204.963 971.329,205.439 971.757,205.919 972.185,206.403 972.613,206.891 973.042,207.382 973.47,207.877 973.898,208.377 974.326,208.88 974.754,209.388 975.183,209.9 975.611,210.417 976.039,210.937 976.467,211.463 976.896,211.992 977.324,212.527 977.752,213.066 978.18,213.61 978.608,214.159 979.037,214.714 979.465,215.273 979.893,215.837 980.321,216.407 980.75,216.982 981.178,217.563 981.497,218 " />
</g>
</g>
</svg>
