<?xml version="1.0" encoding="UTF-8" standalone="no"?>
<svg width="244.828mm" height="127.353mm"
 viewBox="0 0 694 361"
 xmlns="http://www.w3.org/2000/svg" xmlns:xlink="http://www.w3.org/1999/xlink"  version="1.2" baseProfile="tiny">
<title>Qt SVG Document</title>
<desc>MATLAB, The MathWorks, Inc. Version 25.1.0.2973910 R2025a Update 1</desc>
<defs>
</defs>
<g fill="none" stroke="black" stroke-width="1" fill-rule="evenodd" stroke-linecap="square" stroke-linejoin="bevel" >

<g fill="#f5f5f5" fill-opacity="1" stroke="none" transform="matrix(0.750081,0,0,0.749987,-76.2084,-16.8934)"
font-family="Sans Serif" font-size="9" font-weight="400" font-style="normal" 
>
<path vector-effect="none" fill-rule="evenodd" d="M100,21 L1026,21 L1026,504 L100,504 L100,21"/>
</g>

<g fill="#ffffff" fill-opacity="1" stroke="none" transform="matrix(7.50081e-05,0,0,7.49987e-05,-76.2084,-16.8934)"
font-family="Sans Serif" font-size="9" font-weight="400" font-style="normal" 
>
<path vector-effect="none" fill-rule="evenodd" d="M1.47e+06,2.88e+06 L1.47e+06,4.67e+06 L1.022e+07,4.67e+06 L1.022e+07,2.88e+06 L1.47e+06,2.88e+06"/>
</g>

<g fill="#212121" fill-opacity="0.14902" stroke="#212121" stroke-opacity="0.14902" stroke-width="0.666667" stroke-linecap="butt" stroke-linejoin="round" transform="matrix(0.750081,0,0,0.749987,-76.2084,-16.8934)"
font-family="Sans Serif" font-size="9" font-weight="400" font-style="normal" 
>
<polyline fill="none" vector-effect="none" points="147,288 147,467 " />
<polyline fill="none" vector-effect="none" points="256.375,288 256.375,467 " />
<polyline fill="none" vector-effect="none" points="365.75,288 365.75,467 " />
<polyline fill="none" vector-effect="none" points="475.125,288 475.125,467 " />
<polyline fill="none" vector-effect="none" points="584.5,288 584.5,467 " />
<polyline fill="none" vector-effect="none" points="693.875,288 693.875,467 " />
<polyline fill="none" vector-effect="none" points="803.25,288 803.25,467 " />
<polyline fill="none" vector-effect="none" points="912.625,288 912.625,467 " />
<polyline fill="none" vector-effect="none" points="1022,288 1022,467 " />
<polyline fill="none" vector-effect="none" points="147,458.978 1022,458.978 " />
<polyline fill="none" vector-effect="none" points="147,422.786 1022,422.786 " />
<polyline fill="none" vector-effect="none" points="147,386.594 1022,386.594 " />
<polyline fill="none" vector-effect="none" points="147,350.402 1022,350.402 " />
<polyline fill="none" vector-effect="none" points="147,314.21 1022,314.21 " />
</g>

<g fill="#212121" fill-opacity="1" stroke="#212121" stroke-opacity="1" stroke-width="1" stroke-linecap="square" stroke-linejoin="bevel" transform="matrix(0.750081,0,0,0.749987,326.21,357)"
font-family="Helvetica" font-size="13" font-weight="400" font-style="normal" 
>
<text fill="#212121" fill-opacity="1" stroke="none" xml:space="preserve" x="0" y="0" font-family="Helvetica" font-size="13" font-weight="400" font-style="normal" 
 >Frequency (kHz)</text>
</g>

<g fill="#212121" fill-opacity="1" stroke="#212121" stroke-opacity="1" stroke-width="0.666667" stroke-linecap="square" stroke-linejoin="round" transform="matrix(0.750081,0,0,0.749987,-76.2084,-16.8934)"
font-family="Helvetica" font-size="13" font-weight="400" font-style="normal" 
>
<polyline fill="none" vector-effect="none" points="147,467 1022,467 " />
<polyline fill="none" vector-effect="none" points="147,288 1022,288 " />
<polyline fill="none" vector-effect="none" points="147,467 147,458.25 " />
<polyline fill="none" vector-effect="none" points="147,296.75 147,288 " />
<polyline fill="none" vector-effect="none" points="256.375,467 256.375,458.25 " />
<polyline fill="none" vector-effect="none" points="256.375,296.75 256.375,288 " />
<polyline fill="none" vector-effect="none" points="365.75,467 365.75,458.25 " />
<polyline fill="none" vector-effect="none" points="365.75,296.75 365.75,288 " />
<polyline fill="none" vector-effect="none" points="475.125,467 475.125,458.25 " />
<polyline fill="none" vector-effect="none" points="475.125,296.75 475.125,288 " />
<polyline fill="none" vector-effect="none" points="584.5,467 584.5,458.25 " />
<polyline fill="none" vector-effect="none" points="584.5,296.75 584.5,288 " />
<polyline fill="none" vector-effect="none" points="693.875,467 693.875,458.25 " />
<polyline fill="none" vector-effect="none" points="693.875,296.75 693.875,288 " />
<polyline fill="none" vector-effect="none" points="803.25,467 803.25,458.25 " />
<polyline fill="none" vector-effect="none" points="803.25,296.75 803.25,288 " />
<polyline fill="none" vector-effect="none" points="912.625,467 912.625,458.25 " />
<polyline fill="none" vector-effect="none" points="912.625,296.75 912.625,288 " />
<polyline fill="none" vector-effect="none" points="1022,467 1022,458.25 " />
<polyline fill="none" vector-effect="none" points="1022,296.75 1022,288 " />
</g>

<g fill="#212121" fill-opacity="1" stroke="#212121" stroke-opacity="1" stroke-width="1" stroke-linecap="square" stroke-linejoin="bevel" transform="matrix(0.750081,0,0,0.749987,31.4283,345)"
font-family="Helvetica" font-size="12" font-weight="400" font-style="normal" 
>
<text fill="#212121" fill-opacity="1" stroke="none" xml:space="preserve" x="0" y="0" font-family="Helvetica" font-size="12" font-weight="400" font-style="normal" 
 >0</text>
</g>

<g fill="#212121" fill-opacity="1" stroke="#212121" stroke-opacity="1" stroke-width="1" stroke-linecap="square" stroke-linejoin="bevel" transform="matrix(0.750081,0,0,0.749987,109.718,345)"
font-family="Helvetica" font-size="12" font-weight="400" font-style="normal" 
>
<text fill="#212121" fill-opacity="1" stroke="none" xml:space="preserve" x="0" y="0" font-family="Helvetica" font-size="12" font-weight="400" font-style="normal" 
 >0.5</text>
</g>

<g fill="#212121" fill-opacity="1" stroke="#212121" stroke-opacity="1" stroke-width="1" stroke-linecap="square" stroke-linejoin="bevel" transform="matrix(0.750081,0,0,0.749987,195.509,345)"
font-family="Helvetica" font-size="12" font-weight="400" font-style="normal" 
>
<text fill="#212121" fill-opacity="1" stroke="none" xml:space="preserve" x="0" y="0" font-family="Helvetica" font-size="12" font-weight="400" font-style="normal" 
 >1</text>
</g>

<g fill="#212121" fill-opacity="1" stroke="#212121" stroke-opacity="1" stroke-width="1" stroke-linecap="square" stroke-linejoin="bevel" transform="matrix(0.750081,0,0,0.749987,273.798,345)"
font-family="Helvetica" font-size="12" font-weight="400" font-style="normal" 
>
<text fill="#212121" fill-opacity="1" stroke="none" xml:space="preserve" x="0" y="0" font-family="Helvetica" font-size="12" font-weight="400" font-style="normal" 
 >1.5</text>
</g>

<g fill="#212121" fill-opacity="1" stroke="#212121" stroke-opacity="1" stroke-width="1" stroke-linecap="square" stroke-linejoin="bevel" transform="matrix(0.750081,0,0,0.749987,359.589,345)"
font-family="Helvetica" font-size="12" font-weight="400" font-style="normal" 
>
<text fill="#212121" fill-opacity="1" stroke="none" xml:space="preserve" x="0" y="0" font-family="Helvetica" font-size="12" font-weight="400" font-style="normal" 
 >2</text>
</g>

<g fill="#212121" fill-opacity="1" stroke="#212121" stroke-opacity="1" stroke-width="1" stroke-linecap="square" stroke-linejoin="bevel" transform="matrix(0.750081,0,0,0.749987,437.879,345)"
font-family="Helvetica" font-size="12" font-weight="400" font-style="normal" 
>
<text fill="#212121" fill-opacity="1" stroke="none" xml:space="preserve" x="0" y="0" font-family="Helvetica" font-size="12" font-weight="400" font-style="normal" 
 >2.5</text>
</g>

<g fill="#212121" fill-opacity="1" stroke="#212121" stroke-opacity="1" stroke-width="1" stroke-linecap="square" stroke-linejoin="bevel" transform="matrix(0.750081,0,0,0.749987,523.669,345)"
font-family="Helvetica" font-size="12" font-weight="400" font-style="normal" 
>
<text fill="#212121" fill-opacity="1" stroke="none" xml:space="preserve" x="0" y="0" font-family="Helvetica" font-size="12" font-weight="400" font-style="normal" 
 >3</text>
</g>

<g fill="#212121" fill-opacity="1" stroke="#212121" stroke-opacity="1" stroke-width="1" stroke-linecap="square" stroke-linejoin="bevel" transform="matrix(0.750081,0,0,0.749987,601.959,345)"
font-family="Helvetica" font-size="12" font-weight="400" font-style="normal" 
>
<text fill="#212121" fill-opacity="1" stroke="none" xml:space="preserve" x="0" y="0" font-family="Helvetica" font-size="12" font-weight="400" font-style="normal" 
 >3.5</text>
</g>

<g fill="#212121" fill-opacity="1" stroke="#212121" stroke-opacity="1" stroke-width="1" stroke-linecap="square" stroke-linejoin="bevel" transform="matrix(0.750081,0,0,0.749987,687.75,345)"
font-family="Helvetica" font-size="12" font-weight="400" font-style="normal" 
>
<text fill="#212121" fill-opacity="1" stroke="none" xml:space="preserve" x="0" y="0" font-family="Helvetica" font-size="12" font-weight="400" font-style="normal" 
 >4</text>
</g>

<g fill="#212121" fill-opacity="1" stroke="#212121" stroke-opacity="1" stroke-width="1" stroke-linecap="square" stroke-linejoin="bevel" transform="matrix(0,-0.749987,0.750081,0,9.40086,302.226)"
font-family="Helvetica" font-size="13" font-weight="400" font-style="normal" 
>
<text fill="#212121" fill-opacity="1" stroke="none" xml:space="preserve" x="0" y="0" font-family="Helvetica" font-size="13" font-weight="400" font-style="normal" 
 >Phase (degrees)</text>
</g>

<g fill="#212121" fill-opacity="1" stroke="#212121" stroke-opacity="1" stroke-width="0.666667" stroke-linecap="square" stroke-linejoin="round" transform="matrix(0.750081,0,0,0.749987,-76.2084,-16.8934)"
font-family="Helvetica" font-size="13" font-weight="400" font-style="normal" 
>
<polyline fill="none" vector-effect="none" points="147,467 147,288 " />
<polyline fill="none" vector-effect="none" points="1022,467 1022,288 " />
<polyline fill="none" vector-effect="none" points="147,458.978 155.75,458.978 " />
<polyline fill="none" vector-effect="none" points="1013.25,458.978 1022,458.978 " />
<polyline fill="none" vector-effect="none" points="147,422.786 155.75,422.786 " />
<polyline fill="none" vector-effect="none" points="1013.25,422.786 1022,422.786 " />
<polyline fill="none" vector-effect="none" points="147,386.594 155.75,386.594 " />
<polyline fill="none" vector-effect="none" points="1013.25,386.594 1022,386.594 " />
<polyline fill="none" vector-effect="none" points="147,350.402 155.75,350.402 " />
<polyline fill="none" vector-effect="none" points="1013.25,350.402 1022,350.402 " />
<polyline fill="none" vector-effect="none" points="147,314.21 155.75,314.21 " />
<polyline fill="none" vector-effect="none" points="1013.25,314.21 1022,314.21 " />
</g>

<g fill="#212121" fill-opacity="1" stroke="#212121" stroke-opacity="1" stroke-width="1" stroke-linecap="square" stroke-linejoin="bevel" transform="matrix(0.750081,0,0,0.749987,25.4026,330.334)"
font-family="Helvetica" font-size="12" font-weight="400" font-style="normal" 
>
<text fill="#212121" fill-opacity="1" stroke="none" xml:space="preserve" x="0" y="0" font-family="Helvetica" font-size="12" font-weight="400" font-style="normal" 
 >0</text>
</g>

<g fill="#212121" fill-opacity="1" stroke="#212121" stroke-opacity="1" stroke-width="1" stroke-linecap="square" stroke-linejoin="bevel" transform="matrix(0.750081,0,0,0.749987,15.6515,303.19)"
font-family="Helvetica" font-size="12" font-weight="400" font-style="normal" 
>
<text fill="#212121" fill-opacity="1" stroke="none" xml:space="preserve" x="0" y="0" font-family="Helvetica" font-size="12" font-weight="400" font-style="normal" 
 >200</text>
</g>

<g fill="#212121" fill-opacity="1" stroke="#212121" stroke-opacity="1" stroke-width="1" stroke-linecap="square" stroke-linejoin="bevel" transform="matrix(0.750081,0,0,0.749987,15.6515,276.047)"
font-family="Helvetica" font-size="12" font-weight="400" font-style="normal" 
>
<text fill="#212121" fill-opacity="1" stroke="none" xml:space="preserve" x="0" y="0" font-family="Helvetica" font-size="12" font-weight="400" font-style="normal" 
 >400</text>
</g>

<g fill="#212121" fill-opacity="1" stroke="#212121" stroke-opacity="1" stroke-width="1" stroke-linecap="square" stroke-linejoin="bevel" transform="matrix(0.750081,0,0,0.749987,15.6515,248.903)"
font-family="Helvetica" font-size="12" font-weight="400" font-style="normal" 
>
<text fill="#212121" fill-opacity="1" stroke="none" xml:space="preserve" x="0" y="0" font-family="Helvetica" font-size="12" font-weight="400" font-style="normal" 
 >600</text>
</g>

<g fill="#212121" fill-opacity="1" stroke="#212121" stroke-opacity="1" stroke-width="1" stroke-linecap="square" stroke-linejoin="bevel" transform="matrix(0.750081,0,0,0.749987,15.6515,221.76)"
font-family="Helvetica" font-size="12" font-weight="400" font-style="normal" 
>
<text fill="#212121" fill-opacity="1" stroke="none" xml:space="preserve" x="0" y="0" font-family="Helvetica" font-size="12" font-weight="400" font-style="normal" 
 >800</text>
</g>

<g fill="#212121" fill-opacity="1" stroke="#212121" stroke-opacity="1" stroke-width="1" stroke-linecap="square" stroke-linejoin="bevel" transform="matrix(0.750081,0,0,0.749987,347.963,194.894)"
font-family="Helvetica" font-size="13" font-weight="700" font-style="normal" 
>
<text fill="#212121" fill-opacity="1" stroke="none" xml:space="preserve" x="0" y="0" font-family="Helvetica" font-size="13" font-weight="700" font-style="normal" 
 >Phase</text>
</g>

<g fill="none" stroke="#1171be" stroke-opacity="1" stroke-width="0.666667" stroke-linecap="butt" stroke-linejoin="round" transform="matrix(0.750081,0,0,0.749987,-76.2084,-16.8934)"
font-family="Helvetica" font-size="13" font-weight="700" font-style="normal" 
>
<polyline fill="none" vector-effect="none" points="147.427,296.136 147.854,296.159 148.282,296.182 148.709,296.204 149.136,296.227 149.563,296.25 149.991,296.272 150.418,296.295 150.845,296.317 151.272,296.34 151.7,296.363 152.127,296.385 152.554,296.408 152.981,296.431 153.409,296.453 153.836,296.476 154.263,296.499 154.69,296.521 155.118,296.544 155.545,296.566 155.972,296.589 156.399,296.612 156.827,296.634 157.254,296.657 157.681,296.68 158.108,296.702 158.536,296.725 158.963,296.748 159.39,296.77 159.817,296.793 160.245,296.815 160.672,296.838 161.099,296.861 161.526,296.883 161.954,296.906 162.381,296.929 162.808,296.951 163.235,296.974 163.663,296.997 164.09,297.019 164.517,297.042 164.944,297.065 165.372,297.087 165.799,297.11 166.226,297.133 166.653,297.155 167.081,297.178 167.508,297.201 167.935,297.223 168.362,297.246 168.79,297.269 169.217,297.291 169.644,297.314 170.071,297.337 170.499,297.359 170.926,297.382 171.353,297.405 171.78,297.427 172.208,297.45 172.635,297.473 173.062,297.495 173.489,297.518 173.917,297.541 174.344,297.564 174.771,297.586 175.198,297.609 175.625,297.632 176.053,297.654 176.48,297.677 176.907,297.7 177.334,297.722 177.762,297.745 178.189,297.768 178.616,297.791 179.043,297.813 179.471,297.836 179.898,297.859 180.325,297.881 180.752,297.904 181.18,297.927 181.607,297.95 182.034,297.972 182.461,297.995 182.889,298.018 183.316,298.04 183.743,298.063 184.17,298.086 184.598,298.109 185.025,298.131 185.452,298.154 185.879,298.177 186.307,298.2 186.734,298.222 187.161,298.245 187.588,298.268 188.016,298.291 188.443,298.314 188.87,298.336 189.297,298.359 189.725,298.382 190.152,298.405 190.579,298.427 191.006,298.45 191.434,298.473 191.861,298.496 192.288,298.519 192.715,298.541 193.143,298.564 193.57,298.587 193.997,298.61 194.424,298.633 194.852,298.655 195.279,298.678 195.706,298.701 196.133,298.724 196.561,298.747 196.988,298.769 197.415,298.792 197.842,298.815 198.27,298.838 198.697,298.861 199.124,298.884 199.551,298.906 199.979,298.929 200.406,298.952 200.833,298.975 201.26,298.998 201.688,299.021 202.115,299.044 202.542,299.067 202.969,299.089 203.396,299.112 203.824,299.135 204.251,299.158 204.678,299.181 205.105,299.204 205.533,299.227 205.96,299.25 206.387,299.273 206.814,299.295 207.242,299.318 207.669,299.341 208.096,299.364 208.523,299.387 208.951,299.41 209.378,299.433 209.805,299.456 210.232,299.479 210.66,299.502 211.087,299.525 211.514,299.548 211.941,299.571 212.369,299.594 212.796,299.617 213.223,299.64 213.65,299.663 214.078,299.686 214.505,299.709 214.932,299.732 215.359,299.755 215.787,299.778 216.214,299.801 216.641,299.824 217.068,299.847 217.496,299.87 217.923,299.893 218.35,299.916 218.777,299.939 219.205,299.962 219.632,299.985 220.059,300.008 220.486,300.031 220.914,300.054 221.341,300.077 221.768,300.1 222.195,300.123 222.623,300.146 223.05,300.169 223.477,300.193 223.904,300.216 224.332,300.239 224.759,300.262 225.186,300.285 225.613,300.308 226.041,300.331 226.468,300.354 226.895,300.377 227.322,300.401 227.75,300.424 228.177,300.447 228.604,300.47 229.031,300.493 229.458,300.516 229.886,300.54 230.313,300.563 230.74,300.586 231.167,300.609 231.595,300.632 232.022,300.655 232.449,300.679 232.876,300.702 233.304,300.725 233.731,300.748 234.158,300.772 234.585,300.795 235.013,300.818 235.44,300.841 235.867,300.865 236.294,300.888 236.722,300.911 237.149,300.934 237.576,300.958 238.003,300.981 238.431,301.004 238.858,301.028 239.285,301.051 239.712,301.074 240.14,301.098 240.567,301.121 240.994,301.144 241.421,301.168 241.849,301.191 242.276,301.214 242.703,301.238 243.13,301.261 243.558,301.284 243.985,301.308 244.412,301.331 244.839,301.354 245.267,301.378 245.694,301.401 246.121,301.425 246.548,301.448 246.976,301.472 247.403,301.495 247.83,301.518 248.257,301.542 248.685,301.565 249.112,301.589 249.539,301.612 249.966,301.636 250.394,301.659 250.821,301.683 251.248,301.706 251.675,301.73 252.103,301.753 252.53,301.777 252.957,301.8 253.384,301.824 253.812,301.847 254.239,301.871 254.666,301.894 255.093,301.918 255.521,301.942 255.948,301.965 256.375,301.989 256.802,302.012 257.229,302.036 257.657,302.06 258.084,302.083 258.511,302.107 258.938,302.13 259.366,302.154 259.793,302.178 260.22,302.201 260.647,302.225 261.075,302.249 261.502,302.272 261.929,302.296 262.356,302.32 262.784,302.344 263.211,302.367 263.638,302.391 264.065,302.415 264.493,302.438 264.92,302.462 265.347,302.486 265.774,302.51 266.202,302.534 266.629,302.557 267.056,302.581 267.483,302.605 267.911,302.629 268.338,302.652 268.765,302.676 269.192,302.7 269.62,302.724 270.047,302.748 270.474,302.772 270.901,302.796 271.329,302.819 271.756,302.843 272.183,302.867 272.61,302.891 273.038,302.915 273.465,302.939 273.892,302.963 274.319,302.987 274.747,303.011 275.174,303.035 275.601,303.059 276.028,303.083 276.456,303.107 276.883,303.131 277.31,303.155 277.737,303.179 278.165,303.203 278.592,303.227 279.019,303.251 279.446,303.275 279.874,303.299 280.301,303.323 280.728,303.347 281.155,303.371 281.583,303.395 282.01,303.419 282.437,303.444 282.864,303.468 283.292,303.492 283.719,303.516 284.146,303.54 284.573,303.564 285,303.589 285.428,303.613 285.855,303.637 286.282,303.661 286.709,303.685 287.137,303.71 287.564,303.734 287.991,303.758 288.418,303.782 288.846,303.807 289.273,303.831 289.7,303.855 290.127,303.879 290.555,303.904 290.982,303.928 291.409,303.952 291.836,303.977 292.264,304.001 292.691,304.026 293.118,304.05 293.545,304.074 293.973,304.099 294.4,304.123 294.827,304.148 295.254,304.172 295.682,304.196 296.109,304.221 296.536,304.245 296.963,304.27 297.391,304.294 297.818,304.319 298.245,304.343 298.672,304.368 299.1,304.392 299.527,304.417 299.954,304.441 300.381,304.466 300.809,304.491 301.236,304.515 301.663,304.54 302.09,304.564 302.518,304.589 302.945,304.614 303.372,304.638 303.799,304.663 304.227,304.688 304.654,304.712 305.081,304.737 305.508,304.762 305.936,304.787 306.363,304.811 306.79,304.836 307.217,304.861 307.645,304.886 308.072,304.91 308.499,304.935 308.926,304.96 309.354,304.985 309.781,305.01 310.208,305.034 310.635,305.059 311.063,305.084 311.49,305.109 311.917,305.134 312.344,305.159 312.771,305.184 313.199,305.209 313.626,305.234 314.053,305.259 314.48,305.284 314.908,305.308 315.335,305.333 315.762,305.358 316.189,305.383 316.617,305.409 317.044,305.434 317.471,305.459 317.898,305.484 318.326,305.509 318.753,305.534 319.18,305.559 319.607,305.584 320.035,305.609 320.462,305.634 320.889,305.66 321.316,305.685 321.744,305.71 322.171,305.735 322.598,305.76 323.025,305.786 323.453,305.811 323.88,305.836 324.307,305.861 324.734,305.887 325.162,305.912 325.589,305.937 326.016,305.963 326.443,305.988 326.871,306.013 327.298,306.039 327.725,306.064 328.152,306.089 328.58,306.115 329.007,306.14 329.434,306.166 329.861,306.191 330.289,306.217 330.716,306.242 331.143,306.268 331.57,306.293 331.998,306.319 332.425,306.344 332.852,306.37 333.279,306.395 333.707,306.421 334.134,306.447 334.561,306.472 334.988,306.498 335.416,306.523 335.843,306.549 336.27,306.575 336.697,306.6 337.125,306.626 337.552,306.652 337.979,306.678 338.406,306.703 338.833,306.729 339.261,306.755 339.688,306.781 340.115,306.806 340.542,306.832 340.97,306.858 341.397,306.884 341.824,306.91 342.251,306.936 342.679,306.962 343.106,306.988 343.533,307.014 343.96,307.039 344.388,307.065 344.815,307.091 345.242,307.117 345.669,307.143 346.097,307.169 346.524,307.196 346.951,307.222 347.378,307.248 347.806,307.274 348.233,307.3 348.66,307.326 349.087,307.352 349.515,307.378 349.942,307.405 350.369,307.431 350.796,307.457 351.224,307.483 351.651,307.509 352.078,307.536 352.505,307.562 352.933,307.588 353.36,307.615 353.787,307.641 354.214,307.667 354.642,307.694 355.069,307.72 355.496,307.746 355.923,307.773 356.351,307.799 356.778,307.826 357.205,307.852 357.632,307.879 358.06,307.905 358.487,307.932 358.914,307.958 359.341,307.985 359.769,308.011 360.196,308.038 360.623,308.064 361.05,308.091 361.478,308.118 361.905,308.144 362.332,308.171 362.759,308.198 363.187,308.225 363.614,308.251 364.041,308.278 364.468,308.305 364.896,308.332 365.323,308.358 365.75,308.385 366.177,308.412 366.604,308.439 367.032,308.466 367.459,308.493 367.886,308.52 368.313,308.547 368.741,308.573 369.168,308.6 369.595,308.627 370.022,308.654 370.45,308.681 370.877,308.709 371.304,308.736 371.731,308.763 372.159,308.79 372.586,308.817 373.013,308.844 373.44,308.871 373.868,308.898 374.295,308.926 374.722,308.953 375.149,308.98 375.577,309.007 376.004,309.035 376.431,309.062 376.858,309.089 377.286,309.117 377.713,309.144 378.14,309.171 378.567,309.199 378.995,309.226 379.422,309.254 379.849,309.281 380.276,309.309 380.704,309.336 381.131,309.364 381.558,309.391 381.985,309.419 382.413,309.446 382.84,309.474 383.267,309.502 383.694,309.529 384.122,309.557 384.549,309.585 384.976,309.612 385.403,309.64 385.831,309.668 386.258,309.696 386.685,309.723 387.112,309.751 387.54,309.779 387.967,309.807 388.394,309.835 388.821,309.863 389.249,309.891 389.676,309.918 390.103,309.946 390.53,309.974 390.958,310.002 391.385,310.03 391.812,310.059 392.239,310.087 392.667,310.115 393.094,310.143 393.521,310.171 393.948,310.199 394.375,310.227 394.803,310.256 395.23,310.284 395.657,310.312 396.084,310.34 396.512,310.369 396.939,310.397 397.366,310.425 397.793,310.454 398.221,310.482 398.648,310.51 399.075,310.539 399.502,310.567 399.93,310.596 400.357,310.624 400.784,310.653 401.211,310.681 401.639,310.71 402.066,310.739 402.493,310.767 402.92,310.796 403.348,310.825 403.775,310.853 404.202,310.882 404.629,310.911 405.057,310.939 405.484,310.968 405.911,310.997 406.338,311.026 406.766,311.055 407.193,311.084 407.62,311.113 408.047,311.142 408.475,311.17 408.902,311.199 409.329,311.228 409.756,311.257 410.184,311.287 410.611,311.316 411.038,311.345 411.465,311.374 411.893,311.403 412.32,311.432 412.747,311.461 413.174,311.491 413.602,311.52 414.029,311.549 414.456,311.579 414.883,311.608 415.311,311.637 415.738,311.667 416.165,311.696 416.592,311.725 417.02,311.755 417.447,311.784 417.874,311.814 418.301,311.843 418.729,311.873 419.156,311.903 419.583,311.932 420.01,311.962 420.438,311.992 420.865,312.021 421.292,312.051 421.719,312.081 422.146,312.111 422.574,312.14 423.001,312.17 423.428,312.2 423.855,312.23 424.283,312.26 424.71,312.29 425.137,312.32 425.564,312.35 425.992,312.38 426.419,312.41 426.846,312.44 427.273,312.47 427.701,312.5 428.128,312.53 428.555,312.561 428.982,312.591 429.41,312.621 429.837,312.651 430.264,312.682 430.691,312.712 431.119,312.742 431.546,312.773 431.973,312.803 432.4,312.834 432.828,312.864 433.255,312.895 433.682,312.925 434.109,312.956 434.537,312.986 434.964,313.017 435.391,313.048 435.818,313.078 436.246,313.109 436.673,313.14 437.1,313.17 437.527,313.201 437.955,313.232 438.382,313.263 438.809,313.294 439.236,313.325 439.664,313.356 440.091,313.387 440.518,313.418 440.945,313.449 441.373,313.48 441.8,313.511 442.227,313.542 442.654,313.573 443.082,313.604 443.509,313.636 443.936,313.667 444.363,313.698 444.791,313.729 445.218,313.761 445.645,313.792 446.072,313.824 446.5,313.855 446.927,313.887 447.354,313.918 447.781,313.95 448.208,313.981 448.636,314.013 449.063,314.044 449.49,314.076 449.917,314.108 450.345,314.14 450.772,314.171 451.199,314.203 451.626,314.235 452.054,314.267 452.481,314.299 452.908,314.331 453.335,314.363 453.763,314.395 454.19,314.427 454.617,314.459 455.044,314.491 455.472,314.523 455.899,314.555 456.326,314.587 456.753,314.619 457.181,314.652 457.608,314.684 458.035,314.716 458.462,314.749 458.89,314.781 459.317,314.814 459.744,314.846 460.171,314.879 460.599,314.911 461.026,314.944 461.453,314.976 461.88,315.009 462.308,315.042 462.735,315.074 463.162,315.107 463.589,315.14 464.017,315.173 464.444,315.205 464.871,315.238 465.298,315.271 465.726,315.304 466.153,315.337 466.58,315.37 467.007,315.403 467.435,315.436 467.862,315.47 468.289,315.503 468.716,315.536 469.144,315.569 469.571,315.603 469.998,315.636 470.425,315.669 470.853,315.703 471.28,315.736 471.707,315.77 472.134,315.803 472.562,315.837 472.989,315.87 473.416,315.904 473.843,315.938 474.271,315.971 474.698,316.005 475.125,316.039 475.552,316.073 475.979,316.106 476.407,316.14 476.834,316.174 477.261,316.208 477.688,316.242 478.116,316.276 478.543,316.31 478.97,316.344 479.397,316.379 479.825,316.413 480.252,316.447 480.679,316.481 481.106,316.516 481.534,316.55 481.961,316.584 482.388,316.619 482.815,316.653 483.243,316.688 483.67,316.723 484.097,316.757 484.524,316.792 484.952,316.826 485.379,316.861 485.806,316.896 486.233,316.931 486.661,316.966 487.088,317.001 487.515,317.035 487.942,317.07 488.37,317.105 488.797,317.141 489.224,317.176 489.651,317.211 490.079,317.246 490.506,317.281 490.933,317.316 491.36,317.352 491.788,317.387 492.215,317.423 492.642,317.458 493.069,317.493 493.497,317.529 493.924,317.565 494.351,317.6 494.778,317.636 495.206,317.672 495.633,317.707 496.06,317.743 496.487,317.779 496.915,317.815 497.342,317.851 497.769,317.887 498.196,317.923 498.624,317.959 499.051,317.995 499.478,318.031 499.905,318.067 500.333,318.104 500.76,318.14 501.187,318.176 501.614,318.213 502.042,318.249 502.469,318.286 502.896,318.322 503.323,318.359 503.75,318.395 504.178,318.432 504.605,318.469 505.032,318.505 505.459,318.542 505.887,318.579 506.314,318.616 506.741,318.653 507.168,318.69 507.596,318.727 508.023,318.764 508.45,318.801 508.877,318.838 509.305,318.876 509.732,318.913 510.159,318.95 510.586,318.988 511.014,319.025 511.441,319.063 511.868,319.1 512.295,319.138 512.723,319.175 513.15,319.213 513.577,319.251 514.004,319.288 514.432,319.326 514.859,319.364 515.286,319.402 515.713,319.44 516.141,319.478 516.568,319.516 516.995,319.554 517.422,319.593 517.85,319.631 518.277,319.669 518.704,319.707 519.131,319.746 519.559,319.784 519.986,319.823 520.413,319.861 520.84,319.9 521.268,319.939 521.695,319.977 522.122,320.016 522.549,320.055 522.977,320.094 523.404,320.133 523.831,320.172 524.258,320.211 524.686,320.25 525.113,320.289 525.54,320.328 525.967,320.367 526.395,320.407 526.822,320.446 527.249,320.486 527.676,320.525 528.104,320.565 528.531,320.604 528.958,320.644 529.385,320.684 529.813,320.723 530.24,320.763 530.667,320.803 531.094,320.843 531.521,320.883 531.949,320.923 532.376,320.963 532.803,321.003 533.23,321.043 533.658,321.084 534.085,321.124 534.512,321.164 534.939,321.205 535.367,321.245 535.794,321.286 536.221,321.327 536.648,321.367 537.076,321.408 537.503,321.449 537.93,321.49 538.357,321.531 538.785,321.572 539.212,321.613 539.639,321.654 540.066,321.695 540.494,321.736 540.921,321.777 541.348,321.819 541.775,321.86 542.203,321.902 542.63,321.943 543.057,321.985 543.484,322.026 543.912,322.068 544.339,322.11 544.766,322.152 545.193,322.194 545.621,322.236 546.048,322.278 546.475,322.32 546.902,322.362 547.33,322.404 547.757,322.447 548.184,322.489 548.611,322.531 549.039,322.574 549.466,322.617 549.893,322.659 550.32,322.702 550.748,322.745 551.175,322.787 551.602,322.83 552.029,322.873 552.457,322.916 552.884,322.959 553.311,323.003 553.738,323.046 554.166,323.089 554.593,323.132 555.02,323.176 555.447,323.219 555.875,323.263 556.302,323.307 556.729,323.35 557.156,323.394 557.583,323.438 558.011,323.482 558.438,323.526 558.865,323.57 559.292,323.614 559.72,323.658 560.147,323.703 560.574,323.747 561.001,323.791 561.429,323.836 561.856,323.88 562.283,323.925 562.71,323.97 563.138,324.015 563.565,324.059 563.992,324.104 564.419,324.149 564.847,324.194 565.274,324.24 565.701,324.285 566.128,324.33 566.556,324.375 566.983,324.421 567.41,324.466 567.837,324.512 568.265,324.558 568.692,324.603 569.119,324.649 569.546,324.695 569.974,324.741 570.401,324.787 570.828,324.833 571.255,324.88 571.683,324.926 572.11,324.972 572.537,325.019 572.964,325.065 573.392,325.112 573.819,325.159 574.246,325.205 574.673,325.252 575.101,325.299 575.528,325.346 575.955,325.393 576.382,325.44 576.81,325.488 577.237,325.535 577.664,325.582 578.091,325.63 578.519,325.678 578.946,325.725 579.373,325.773 579.8,325.821 580.228,325.869 580.655,325.917 581.082,325.965 581.509,326.013 581.937,326.061 582.364,326.11 582.791,326.158 583.218,326.207 583.646,326.255 584.073,326.304 584.5,326.353 584.927,326.402 585.354,326.451 585.782,326.5 586.209,326.549 586.636,326.598 587.063,326.647 587.491,326.697 587.918,326.746 588.345,326.796 588.772,326.845 589.2,326.895 589.627,326.945 590.054,326.995 590.481,327.045 590.909,327.095 591.336,327.145 591.763,327.196 592.19,327.246 592.618,327.297 593.045,327.347 593.472,327.398 593.899,327.449 594.327,327.5 594.754,327.551 595.181,327.602 595.608,327.653 596.036,327.704 596.463,327.755 596.89,327.807 597.317,327.858 597.745,327.91 598.172,327.962 598.599,328.014 599.026,328.066 599.454,328.118 599.881,328.17 600.308,328.222 600.735,328.274 601.163,328.327 601.59,328.379 602.017,328.432 602.444,328.485 602.872,328.538 603.299,328.591 603.726,328.644 604.153,328.697 604.581,328.75 605.008,328.804 605.435,328.857 605.862,328.911 606.29,328.964 606.717,329.018 607.144,329.072 607.571,329.126 607.999,329.18 608.426,329.234 608.853,329.289 609.28,329.343 609.708,329.398 610.135,329.452 610.562,329.507 610.989,329.562 611.417,329.617 611.844,329.672 612.271,329.727 612.698,329.783 613.125,329.838 613.553,329.894 613.98,329.949 614.407,330.005 614.834,330.061 615.262,330.117 615.689,330.173 616.116,330.23 616.543,330.286 616.971,330.342 617.398,330.399 617.825,330.456 618.252,330.513 618.68,330.569 619.107,330.627 619.534,330.684 619.961,330.741 620.389,330.799 620.816,330.856 621.243,330.914 621.67,330.972 622.098,331.029 622.525,331.088 622.952,331.146 623.379,331.204 623.807,331.262 624.234,331.321 624.661,331.38 625.088,331.438 625.516,331.497 625.943,331.556 626.37,331.616 626.797,331.675 627.225,331.734 627.652,331.794 628.079,331.854 628.506,331.913 628.934,331.973 629.361,332.033 629.788,332.094 630.215,332.154 630.643,332.215 631.07,332.275 631.497,332.336 631.924,332.397 632.352,332.458 632.779,332.519 633.206,332.58 633.633,332.642 634.061,332.703 634.488,332.765 634.915,332.827 635.342,332.889 635.77,332.951 636.197,333.013 636.624,333.076 637.051,333.138 637.479,333.201 637.906,333.264 638.333,333.327 638.76,333.39 639.188,333.453 639.615,333.517 640.042,333.58 640.469,333.644 640.896,333.708 641.324,333.772 641.751,333.836 642.178,333.901 642.605,333.965 643.033,334.03 643.46,334.095 643.887,334.159 644.314,334.225 644.742,334.29 645.169,334.355 645.596,334.421 646.023,334.487 646.451,334.552 646.878,334.618 647.305,334.685 647.732,334.751 648.16,334.818 648.587,334.884 649.014,334.951 649.441,335.018 649.869,335.085 650.296,335.153 650.723,335.22 651.15,335.288 651.578,335.356 652.005,335.424 652.432,335.492 652.859,335.56 653.287,335.629 653.714,335.697 654.141,335.766 654.568,335.835 654.996,335.904 655.423,335.974 655.85,336.043 656.277,336.113 656.705,336.183 657.132,336.253 657.559,336.323 657.986,336.394 658.414,336.464 658.841,336.535 659.268,336.606 659.695,336.677 660.123,336.749 660.55,336.82 660.977,336.892 661.404,336.964 661.832,337.036 662.259,337.108 662.686,337.181 663.113,337.253 663.541,337.326 663.968,337.399 664.395,337.473 664.822,337.546 665.25,337.62 665.677,337.694 666.104,337.768 666.531,337.842 666.958,337.916 667.386,337.991 667.813,338.066 668.24,338.141 668.667,338.216 669.095,338.291 669.522,338.367 669.949,338.443 670.376,338.519 670.804,338.595 671.231,338.672 671.658,338.749 672.085,338.825 672.513,338.903 672.94,338.98 673.367,339.058 673.794,339.135 674.222,339.213 674.649,339.292 675.076,339.37 675.503,339.449 675.931,339.528 676.358,339.607 676.785,339.686 677.212,339.766 677.64,339.845 678.067,339.925 678.494,340.006 678.921,340.086 679.349,340.167 679.776,340.248 680.203,340.329 680.63,340.411 681.058,340.492 681.485,340.574 681.912,340.656 682.339,340.739 682.767,340.821 683.194,340.904 683.621,340.987 684.048,341.071 684.476,341.155 684.903,341.238 685.33,341.323 685.757,341.407 686.185,341.492 686.612,341.577 687.039,341.662 687.466,341.747 687.894,341.833 688.321,341.919 688.748,342.005 689.175,342.092 689.603,342.179 690.03,342.266 690.457,342.353 690.884,342.441 691.312,342.528 691.739,342.617 692.166,342.705 692.593,342.794 693.021,342.883 693.448,342.972 693.875,343.062 694.302,343.152 694.729,343.242 695.157,343.332 695.584,343.423 696.011,343.514 696.438,343.605 696.866,343.697 697.293,343.789 697.72,343.881 698.147,343.974 698.575,344.067 699.002,344.16 699.429,344.254 699.856,344.347 700.284,344.441 700.711,344.536 701.138,344.631 701.565,344.726 701.993,344.821 702.42,344.917 702.847,345.013 703.274,345.11 703.702,345.206 704.129,345.304 704.556,345.401 704.983,345.499 705.411,345.597 705.838,345.695 706.265,345.794 706.692,345.893 707.12,345.993 707.547,346.093 707.974,346.193 708.401,346.294 708.829,346.395 709.256,346.496 709.683,346.598 710.11,346.7 710.538,346.803 710.965,346.905 711.392,347.009 711.819,347.112 712.247,347.216 712.674,347.321 713.101,347.426 713.528,347.531 713.956,347.637 714.383,347.743 714.81,347.849 715.237,347.956 715.665,348.063 716.092,348.171 716.519,348.279 716.946,348.388 717.374,348.497 717.801,348.606 718.228,348.716 718.655,348.826 719.083,348.937 719.51,349.048 719.937,349.16 720.364,349.272 720.792,349.384 721.219,349.497 721.646,349.611 722.073,349.725 722.5,349.839 722.928,349.954 723.355,350.069 723.782,350.185 724.209,350.302 724.637,350.419 725.064,350.536 725.491,350.654 725.918,350.772 726.346,350.891 726.773,351.011 727.2,351.13 727.627,351.251 728.055,351.372 728.482,351.494 728.909,351.616 729.336,351.738 729.764,351.861 730.191,351.985 730.618,352.11 731.045,352.234 731.473,352.36 731.9,352.486 732.327,352.613 732.754,352.74 733.182,352.868 733.609,352.996 734.036,353.125 734.463,353.255 734.891,353.385 735.318,353.516 735.745,353.648 736.172,353.78 736.6,353.913 737.027,354.047 737.454,354.181 737.881,354.316 738.309,354.451 738.736,354.588 739.163,354.725 739.59,354.862 740.018,355.001 740.445,355.14 740.872,355.28 741.299,355.42 741.727,355.561 742.154,355.703 742.581,355.846 743.008,355.99 743.436,356.134 743.863,356.279 744.29,356.425 744.717,356.572 745.145,356.719 745.572,356.868 745.999,357.017 746.426,357.167 746.854,357.318 747.281,357.469 747.708,357.622 748.135,357.775 748.563,357.93 748.99,358.085 749.417,358.241 749.844,358.398 750.271,358.556 750.699,358.715 751.126,358.875 751.553,359.036 751.98,359.197 752.408,359.36 752.835,359.524 753.262,359.689 753.689,359.854 754.117,360.021 754.544,360.189 754.971,360.358 755.398,360.528 755.826,360.699 756.253,360.871 756.68,361.044 757.107,361.218 757.535,361.394 757.962,361.57 758.389,361.748 758.816,361.927 759.244,362.106 759.671,362.288 760.098,362.47 760.525,362.653 760.953,362.838 761.38,363.024 761.807,363.211 762.234,363.399 762.662,363.589 763.089,363.78 763.516,363.972 763.943,364.165 764.371,364.36 764.798,364.556 765.225,364.753 765.652,364.952 766.08,365.152 766.507,365.353 766.934,365.556 767.361,365.76 767.789,365.965 768.216,366.172 768.643,366.38 769.07,366.589 769.498,366.8 769.925,367.012 770.352,367.226 770.779,367.441 771.207,367.657 771.634,367.875 772.061,368.094 772.488,368.314 772.916,368.536 773.343,368.759 773.77,368.984 774.197,369.21 774.625,369.437 775.052,369.666 775.479,369.896 775.906,370.127 776.333,370.36 776.761,370.594 777.188,370.829 777.615,371.066 778.042,371.304 778.47,371.543 778.897,371.783 779.324,372.024 779.751,372.267 780.179,372.511 780.606,372.756 781.033,373.002 781.46,373.249 781.888,373.497 782.315,373.746 782.742,373.997 783.169,374.248 783.597,374.5 784.024,374.753 784.451,375.006 784.878,375.261 785.306,375.516 785.733,375.772 786.16,376.029 786.587,376.286 787.015,376.544 787.442,376.802 787.869,377.061 788.296,377.321 788.724,377.58 789.151,377.841 789.578,378.101 790.005,378.362 790.433,378.623 790.86,378.884 791.287,379.145 791.714,379.406 792.142,379.667 792.569,379.928 792.996,380.19 793.423,380.451 793.851,380.711 794.278,380.972 794.705,381.232 795.132,381.492 795.56,381.752 795.987,382.011 796.414,382.27 796.841,382.528 797.269,382.786 797.696,383.043 798.123,383.3 798.55,383.556 798.978,383.811 799.405,384.066 799.832,384.32 800.259,384.573 800.687,384.826 801.114,385.077 801.541,385.328 801.968,385.578 802.396,385.827 802.823,386.075 803.25,386.322 803.677,386.568 804.104,386.813 804.532,387.058 804.959,387.301 805.386,387.543 805.813,387.784 806.241,388.025 806.668,388.264 807.095,388.502 807.522,388.739 807.95,388.975 808.377,389.21 808.804,389.443 809.231,389.676 809.659,389.908 810.086,390.138 810.513,390.368 810.94,390.596 811.368,390.823 811.795,391.05 812.222,391.275 812.649,391.499 813.077,391.722 813.504,391.944 813.931,392.165 814.358,392.385 814.786,392.603 815.213,392.821 815.64,393.038 816.067,393.253 816.495,393.468 816.922,393.682 817.349,393.894 817.776,394.106 818.204,394.317 818.631,394.526 819.058,394.735 819.485,394.943 819.913,395.149 820.34,395.355 820.767,395.56 821.194,395.764 821.622,395.967 822.049,396.169 822.476,396.371 822.903,396.571 823.331,396.77 823.758,396.969 824.185,397.167 824.612,397.364 825.04,397.56 825.467,397.755 825.894,397.949 826.321,398.143 826.749,398.336 827.176,398.528 827.603,398.719 828.03,398.91 828.458,399.1 828.885,399.289 829.312,399.477 829.739,399.664 830.167,399.851 830.594,400.037 831.021,400.223 831.448,400.408 831.875,400.592 832.303,400.775 832.73,400.958 833.157,401.14 833.584,401.321 834.012,401.502 834.439,401.682 834.866,401.861 835.293,402.04 835.721,402.219 836.148,402.396 836.575,402.573 837.002,402.75 837.43,402.926 837.857,403.101 838.284,403.276 838.711,403.45 839.139,403.624 839.566,403.797 839.993,403.969 840.42,404.141 840.848,404.313 841.275,404.484 841.702,404.654 842.129,404.824 842.557,404.994 842.984,405.163 843.411,405.331 843.838,405.499 844.266,405.667 844.693,405.834 845.12,406.001 845.547,406.167 845.975,406.332 846.402,406.498 846.829,406.662 847.256,406.827 847.684,406.991 848.111,407.154 848.538,407.317 848.965,407.48 849.393,407.642 849.82,407.804 850.247,407.965 850.674,408.126 851.102,408.287 851.529,408.447 851.956,408.607 852.383,408.766 852.811,408.925 853.238,409.084 853.665,409.242 854.092,409.4 854.52,409.558 854.947,409.715 855.374,409.872 855.801,410.028 856.229,410.184 856.656,410.34 857.083,410.496 857.51,410.651 857.938,410.806 858.365,410.96 858.792,411.114 859.219,411.268 859.646,411.421 860.074,411.574 860.501,411.727 860.928,411.88 861.355,412.032 861.783,412.184 862.21,412.335 862.637,412.487 863.064,412.638 863.492,412.788 863.919,412.939 864.346,413.089 864.773,413.238 865.201,413.388 865.628,413.537 866.055,413.686 866.482,413.835 866.91,413.983 867.337,414.131 867.764,414.279 868.191,414.426 868.619,414.574 869.046,414.721 869.473,414.867 869.9,415.014 870.328,415.16 870.755,415.306 871.182,415.452 871.609,415.597 872.037,415.743 872.464,415.887 872.891,416.032 873.318,416.177 873.746,416.321 874.173,416.465 874.6,416.609 875.027,416.752 875.455,416.895 875.882,417.038 876.309,417.181 876.736,417.324 877.164,417.466 877.591,417.608 878.018,417.75 878.445,417.892 878.873,418.033 879.3,418.174 879.727,418.316 880.154,418.456 880.582,418.597 881.009,418.737 881.436,418.877 881.863,419.017 882.291,419.157 882.718,419.297 883.145,419.436 883.572,419.575 884,419.714 884.427,419.853 884.854,419.991 885.281,420.13 885.708,420.268 886.136,420.406 886.563,420.543 886.99,420.681 887.417,420.818 887.845,420.956 888.272,421.093 888.699,421.229 889.126,421.366 889.554,421.502 889.981,421.639 890.408,421.775 890.835,421.911 891.263,422.046 891.69,422.182 892.117,422.317 892.544,422.452 892.972,422.587 893.399,422.722 893.826,422.857 894.253,422.991 894.681,423.126 895.108,423.26 895.535,423.394 895.962,423.528 896.39,423.661 896.817,423.795 897.244,423.928 897.671,424.061 898.099,424.194 898.526,424.327 898.953,424.46 899.38,424.592 899.808,424.725 900.235,424.857 900.662,424.989 901.089,425.121 901.517,425.253 901.944,425.384 902.371,425.516 902.798,425.647 903.226,425.778 903.653,425.909 904.08,426.04 904.507,426.171 904.935,426.302 905.362,426.432 905.789,426.562 906.216,426.693 906.644,426.823 907.071,426.953 907.498,427.082 907.925,427.212 908.353,427.341 908.78,427.471 909.207,427.6 909.634,427.729 910.062,427.858 910.489,427.987 910.916,428.116 911.343,428.244 911.771,428.372 912.198,428.501 912.625,428.629 913.052,428.757 913.479,428.885 913.907,429.013 914.334,429.14 914.761,429.268 915.188,429.395 915.616,429.523 916.043,429.65 916.47,429.777 916.897,429.904 917.325,430.031 917.752,430.157 918.179,430.284 918.606,430.41 919.034,430.537 919.461,430.663 919.888,430.789 920.315,430.915 920.743,431.041 921.17,431.167 921.597,431.293 922.024,431.418 922.452,431.544 922.879,431.669 923.306,431.794 923.733,431.919 924.161,432.044 924.588,432.169 925.015,432.294 925.442,432.419 925.87,432.543 926.297,432.668 926.724,432.792 927.151,432.917 927.579,433.041 928.006,433.165 928.433,433.289 928.86,433.413 929.288,433.537 929.715,433.66 930.142,433.784 930.569,433.907 930.997,434.031 931.424,434.154 931.851,434.277 932.278,434.401 932.706,434.524 933.133,434.647 933.56,434.769 933.987,434.892 934.415,435.015 934.842,435.137 935.269,435.26 935.696,435.382 936.124,435.505 936.551,435.627 936.978,435.749 937.405,435.871 937.833,435.993 938.26,436.115 938.687,436.237 939.114,436.358 939.542,436.48 939.969,436.602 940.396,436.723 940.823,436.844 941.25,436.966 941.678,437.087 942.105,437.208 942.532,437.329 942.959,437.45 943.387,437.571 943.814,437.692 944.241,437.813 944.668,437.933 945.096,438.054 945.523,438.174 945.95,438.295 946.377,438.415 946.805,438.535 947.232,438.656 947.659,438.776 948.086,438.896 948.514,439.016 948.941,439.136 949.368,439.256 949.795,439.375 950.223,439.495 950.65,439.615 951.077,439.734 951.504,439.854 951.932,439.973 952.359,440.093 952.786,440.212 953.213,440.331 953.641,440.45 954.068,440.569 954.495,440.688 954.922,440.807 955.35,440.926 955.777,441.045 956.204,441.164 956.631,441.283 957.059,441.401 957.486,441.52 957.913,441.639 958.34,441.757 958.768,441.875 959.195,441.994 959.622,442.112 960.049,442.23 960.477,442.349 960.904,442.467 961.331,442.585 961.758,442.703 962.186,442.821 962.613,442.939 963.04,443.056 963.467,443.174 963.895,443.292 964.322,443.41 964.749,443.527 965.176,443.645 965.604,443.762 966.031,443.88 966.458,443.997 966.885,444.115 967.313,444.232 967.74,444.349 968.167,444.466 968.594,444.584 969.021,444.701 969.449,444.818 969.876,444.935 970.303,445.052 970.73,445.169 971.158,445.286 971.585,445.402 972.012,445.519 972.439,445.636 972.867,445.753 973.294,445.869 973.721,445.986 974.148,446.103 974.576,446.219 975.003,446.336 975.43,446.452 975.857,446.568 976.285,446.685 976.712,446.801 977.139,446.917 977.566,447.034 977.994,447.15 978.421,447.266 978.848,447.382 979.275,447.498 979.703,447.614 980.13,447.73 980.557,447.846 980.984,447.962 981.412,448.078 981.839,448.194 982.266,448.31 982.693,448.425 983.121,448.541 983.548,448.657 983.975,448.772 984.402,448.888 984.83,449.004 985.257,449.119 985.684,449.235 986.111,449.35 986.539,449.466 986.966,449.581 987.393,449.697 987.82,449.812 988.248,449.927 988.675,450.043 989.102,450.158 989.529,450.273 989.957,450.388 990.384,450.504 990.811,450.619 991.238,450.734 991.666,450.849 992.093,450.964 992.52,451.079 992.947,451.194 993.375,451.309 993.802,451.424 994.229,451.539 994.656,451.654 995.083,451.769 995.511,451.884 995.938,451.999 996.365,452.114 996.792,452.229 997.22,452.344 997.647,452.458 998.074,452.573 998.501,452.688 998.929,452.803 999.356,452.917 999.783,453.032 1000.21,453.147 1000.64,453.261 1001.06,453.376 1001.49,453.491 1001.92,453.605 1002.35,453.72 1002.77,453.834 1003.2,453.949 1003.63,454.063 1004.06,454.178 1004.48,454.292 1004.91,454.407 1005.34,454.521 1005.76,454.636 1006.19,454.75 1006.62,454.865 1007.05,454.979 1007.47,455.093 1007.9,455.208 1008.33,455.322 1008.76,455.436 1009.18,455.551 1009.61,455.665 1010.04,455.78 1010.46,455.894 1010.89,456.008 1011.32,456.122 1011.75,456.237 1012.17,456.351 1012.6,456.465 1013.03,456.58 1013.46,456.694 1013.88,456.808 1014.31,456.922 1014.74,457.036 1015.16,457.151 1015.59,457.265 1016.02,457.379 1016.45,457.493 1016.87,457.608 1017.3,457.722 1017.73,457.836 1018.15,457.95 1018.58,458.064 1019.01,458.179 1019.44,458.293 1019.86,458.407 1020.29,458.521 1020.72,458.635 1021.15,458.749 1021.57,458.864 " />
</g>

<g fill="#ffffff" fill-opacity="1" stroke="none" transform="matrix(7.50081e-05,0,0,7.49987e-05,-76.2084,-16.8934)"
font-family="Helvetica" font-size="13" font-weight="700" font-style="normal" 
>
<path vector-effect="none" fill-rule="evenodd" d="M1.47e+06,390000 L1.47e+06,2.18e+06 L1.022e+07,2.18e+06 L1.022e+07,390000 L1.47e+06,390000"/>
</g>

<g fill="#212121" fill-opacity="0.14902" stroke="#212121" stroke-opacity="0.14902" stroke-width="0.666667" stroke-linecap="butt" stroke-linejoin="round" transform="matrix(0.750081,0,0,0.749987,-76.2084,-16.8934)"
font-family="Helvetica" font-size="13" font-weight="700" font-style="normal" 
>
<polyline fill="none" vector-effect="none" points="147,39 147,218 " />
<polyline fill="none" vector-effect="none" points="256.375,39 256.375,218 " />
<polyline fill="none" vector-effect="none" points="365.75,39 365.75,218 " />
<polyline fill="none" vector-effect="none" points="475.125,39 475.125,218 " />
<polyline fill="none" vector-effect="none" points="584.5,39 584.5,218 " />
<polyline fill="none" vector-effect="none" points="693.875,39 693.875,218 " />
<polyline fill="none" vector-effect="none" points="803.25,39 803.25,218 " />
<polyline fill="none" vector-effect="none" points="912.625,39 912.625,218 " />
<polyline fill="none" vector-effect="none" points="1022,39 1022,218 " />
<polyline fill="none" vector-effect="none" points="147,190.296 1022,190.296 " />
<polyline fill="none" vector-effect="none" points="147,162.361 1022,162.361 " />
<polyline fill="none" vector-effect="none" points="147,134.426 1022,134.426 " />
<polyline fill="none" vector-effect="none" points="147,106.491 1022,106.491 " />
<polyline fill="none" vector-effect="none" points="147,78.5558 1022,78.5558 " />
<polyline fill="none" vector-effect="none" points="147,50.6208 1022,50.6208 " />
</g>

<g fill="#212121" fill-opacity="1" stroke="#212121" stroke-opacity="1" stroke-width="1" stroke-linecap="square" stroke-linejoin="bevel" transform="matrix(0.750081,0,0,0.749987,326.21,169.403)"
font-family="Helvetica" font-size="13" font-weight="400" font-style="normal" 
>
<text fill="#212121" fill-opacity="1" stroke="none" xml:space="preserve" x="0" y="0" font-family="Helvetica" font-size="13" font-weight="400" font-style="normal" 
 >Frequency (kHz)</text>
</g>

<g fill="#212121" fill-opacity="1" stroke="#212121" stroke-opacity="1" stroke-width="0.666667" stroke-linecap="square" stroke-linejoin="round" transform="matrix(0.750081,0,0,0.749987,-76.2084,-16.8934)"
font-family="Helvetica" font-size="13" font-weight="400" font-style="normal" 
>
<polyline fill="none" vector-effect="none" points="147,218 1022,218 " />
<polyline fill="none" vector-effect="none" points="147,39 1022,39 " />
<polyline fill="none" vector-effect="none" points="147,218 147,209.25 " />
<polyline fill="none" vector-effect="none" points="147,47.75 147,39 " />
<polyline fill="none" vector-effect="none" points="256.375,218 256.375,209.25 " />
<polyline fill="none" vector-effect="none" points="256.375,47.75 256.375,39 " />
<polyline fill="none" vector-effect="none" points="365.75,218 365.75,209.25 " />
<polyline fill="none" vector-effect="none" points="365.75,47.75 365.75,39 " />
<polyline fill="none" vector-effect="none" points="475.125,218 475.125,209.25 " />
<polyline fill="none" vector-effect="none" points="475.125,47.75 475.125,39 " />
<polyline fill="none" vector-effect="none" points="584.5,218 584.5,209.25 " />
<polyline fill="none" vector-effect="none" points="584.5,47.75 584.5,39 " />
<polyline fill="none" vector-effect="none" points="693.875,218 693.875,209.25 " />
<polyline fill="none" vector-effect="none" points="693.875,47.75 693.875,39 " />
<polyline fill="none" vector-effect="none" points="803.25,218 803.25,209.25 " />
<polyline fill="none" vector-effect="none" points="803.25,47.75 803.25,39 " />
<polyline fill="none" vector-effect="none" points="912.625,218 912.625,209.25 " />
<polyline fill="none" vector-effect="none" points="912.625,47.75 912.625,39 " />
<polyline fill="none" vector-effect="none" points="1022,218 1022,209.25 " />
<polyline fill="none" vector-effect="none" points="1022,47.75 1022,39 " />
</g>

<g fill="#212121" fill-opacity="1" stroke="#212121" stroke-opacity="1" stroke-width="1" stroke-linecap="square" stroke-linejoin="bevel" transform="matrix(0.750081,0,0,0.749987,31.4283,157.654)"
font-family="Helvetica" font-size="12" font-weight="400" font-style="normal" 
>
<text fill="#212121" fill-opacity="1" stroke="none" xml:space="preserve" x="0" y="0" font-family="Helvetica" font-size="12" font-weight="400" font-style="normal" 
 >0</text>
</g>

<g fill="#212121" fill-opacity="1" stroke="#212121" stroke-opacity="1" stroke-width="1" stroke-linecap="square" stroke-linejoin="bevel" transform="matrix(0.750081,0,0,0.749987,109.718,157.654)"
font-family="Helvetica" font-size="12" font-weight="400" font-style="normal" 
>
<text fill="#212121" fill-opacity="1" stroke="none" xml:space="preserve" x="0" y="0" font-family="Helvetica" font-size="12" font-weight="400" font-style="normal" 
 >0.5</text>
</g>

<g fill="#212121" fill-opacity="1" stroke="#212121" stroke-opacity="1" stroke-width="1" stroke-linecap="square" stroke-linejoin="bevel" transform="matrix(0.750081,0,0,0.749987,195.509,157.654)"
font-family="Helvetica" font-size="12" font-weight="400" font-style="normal" 
>
<text fill="#212121" fill-opacity="1" stroke="none" xml:space="preserve" x="0" y="0" font-family="Helvetica" font-size="12" font-weight="400" font-style="normal" 
 >1</text>
</g>

<g fill="#212121" fill-opacity="1" stroke="#212121" stroke-opacity="1" stroke-width="1" stroke-linecap="square" stroke-linejoin="bevel" transform="matrix(0.750081,0,0,0.749987,273.798,157.654)"
font-family="Helvetica" font-size="12" font-weight="400" font-style="normal" 
>
<text fill="#212121" fill-opacity="1" stroke="none" xml:space="preserve" x="0" y="0" font-family="Helvetica" font-size="12" font-weight="400" font-style="normal" 
 >1.5</text>
</g>

<g fill="#212121" fill-opacity="1" stroke="#212121" stroke-opacity="1" stroke-width="1" stroke-linecap="square" stroke-linejoin="bevel" transform="matrix(0.750081,0,0,0.749987,359.589,157.654)"
font-family="Helvetica" font-size="12" font-weight="400" font-style="normal" 
>
<text fill="#212121" fill-opacity="1" stroke="none" xml:space="preserve" x="0" y="0" font-family="Helvetica" font-size="12" font-weight="400" font-style="normal" 
 >2</text>
</g>

<g fill="#212121" fill-opacity="1" stroke="#212121" stroke-opacity="1" stroke-width="1" stroke-linecap="square" stroke-linejoin="bevel" transform="matrix(0.750081,0,0,0.749987,437.879,157.654)"
font-family="Helvetica" font-size="12" font-weight="400" font-style="normal" 
>
<text fill="#212121" fill-opacity="1" stroke="none" xml:space="preserve" x="0" y="0" font-family="Helvetica" font-size="12" font-weight="400" font-style="normal" 
 >2.5</text>
</g>

<g fill="#212121" fill-opacity="1" stroke="#212121" stroke-opacity="1" stroke-width="1" stroke-linecap="square" stroke-linejoin="bevel" transform="matrix(0.750081,0,0,0.749987,523.669,157.654)"
font-family="Helvetica" font-size="12" font-weight="400" font-style="normal" 
>
<text fill="#212121" fill-opacity="1" stroke="none" xml:space="preserve" x="0" y="0" font-family="Helvetica" font-size="12" font-weight="400" font-style="normal" 
 >3</text>
</g>

<g fill="#212121" fill-opacity="1" stroke="#212121" stroke-opacity="1" stroke-width="1" stroke-linecap="square" stroke-linejoin="bevel" transform="matrix(0.750081,0,0,0.749987,601.959,157.654)"
font-family="Helvetica" font-size="12" font-weight="400" font-style="normal" 
>
<text fill="#212121" fill-opacity="1" stroke="none" xml:space="preserve" x="0" y="0" font-family="Helvetica" font-size="12" font-weight="400" font-style="normal" 
 >3.5</text>
</g>

<g fill="#212121" fill-opacity="1" stroke="#212121" stroke-opacity="1" stroke-width="1" stroke-linecap="square" stroke-linejoin="bevel" transform="matrix(0.750081,0,0,0.749987,687.75,157.654)"
font-family="Helvetica" font-size="12" font-weight="400" font-style="normal" 
>
<text fill="#212121" fill-opacity="1" stroke="none" xml:space="preserve" x="0" y="0" font-family="Helvetica" font-size="12" font-weight="400" font-style="normal" 
 >4</text>
</g>

<g fill="#212121" fill-opacity="1" stroke="#212121" stroke-opacity="1" stroke-width="1" stroke-linecap="square" stroke-linejoin="bevel" transform="matrix(0,-0.749987,0.750081,0,8.25074,112.854)"
font-family="Helvetica" font-size="13" font-weight="400" font-style="normal" 
>
<text fill="#212121" fill-opacity="1" stroke="none" xml:space="preserve" x="0" y="0" font-family="Helvetica" font-size="13" font-weight="400" font-style="normal" 
 >Magnitude (dB)</text>
</g>

<g fill="#212121" fill-opacity="1" stroke="#212121" stroke-opacity="1" stroke-width="0.666667" stroke-linecap="square" stroke-linejoin="round" transform="matrix(0.750081,0,0,0.749987,-76.2084,-16.8934)"
font-family="Helvetica" font-size="13" font-weight="400" font-style="normal" 
>
<polyline fill="none" vector-effect="none" points="147,218 147,39 " />
<polyline fill="none" vector-effect="none" points="1022,218 1022,39 " />
<polyline fill="none" vector-effect="none" points="147,190.296 155.75,190.296 " />
<polyline fill="none" vector-effect="none" points="1013.25,190.296 1022,190.296 " />
<polyline fill="none" vector-effect="none" points="147,162.361 155.75,162.361 " />
<polyline fill="none" vector-effect="none" points="1013.25,162.361 1022,162.361 " />
<polyline fill="none" vector-effect="none" points="147,134.426 155.75,134.426 " />
<polyline fill="none" vector-effect="none" points="1013.25,134.426 1022,134.426 " />
<polyline fill="none" vector-effect="none" points="147,106.491 155.75,106.491 " />
<polyline fill="none" vector-effect="none" points="1013.25,106.491 1022,106.491 " />
<polyline fill="none" vector-effect="none" points="147,78.5558 155.75,78.5558 " />
<polyline fill="none" vector-effect="none" points="1013.25,78.5558 1022,78.5558 " />
<polyline fill="none" vector-effect="none" points="147,50.6208 155.75,50.6208 " />
<polyline fill="none" vector-effect="none" points="1013.25,50.6208 1022,50.6208 " />
</g>

<g fill="#212121" fill-opacity="1" stroke="#212121" stroke-opacity="1" stroke-width="1" stroke-linecap="square" stroke-linejoin="bevel" transform="matrix(0.750081,0,0,0.749987,13.2513,128.826)"
font-family="Helvetica" font-size="12" font-weight="400" font-style="normal" 
>
<text fill="#212121" fill-opacity="1" stroke="none" xml:space="preserve" x="0" y="0" font-family="Helvetica" font-size="12" font-weight="400" font-style="normal" 
 >-250</text>
</g>

<g fill="#212121" fill-opacity="1" stroke="#212121" stroke-opacity="1" stroke-width="1" stroke-linecap="square" stroke-linejoin="bevel" transform="matrix(0.750081,0,0,0.749987,13.2513,107.875)"
font-family="Helvetica" font-size="12" font-weight="400" font-style="normal" 
>
<text fill="#212121" fill-opacity="1" stroke="none" xml:space="preserve" x="0" y="0" font-family="Helvetica" font-size="12" font-weight="400" font-style="normal" 
 >-200</text>
</g>

<g fill="#212121" fill-opacity="1" stroke="#212121" stroke-opacity="1" stroke-width="1" stroke-linecap="square" stroke-linejoin="bevel" transform="matrix(0.750081,0,0,0.749987,13.2513,86.924)"
font-family="Helvetica" font-size="12" font-weight="400" font-style="normal" 
>
<text fill="#212121" fill-opacity="1" stroke="none" xml:space="preserve" x="0" y="0" font-family="Helvetica" font-size="12" font-weight="400" font-style="normal" 
 >-150</text>
</g>

<g fill="#212121" fill-opacity="1" stroke="#212121" stroke-opacity="1" stroke-width="1" stroke-linecap="square" stroke-linejoin="bevel" transform="matrix(0.750081,0,0,0.749987,13.2513,65.9732)"
font-family="Helvetica" font-size="12" font-weight="400" font-style="normal" 
>
<text fill="#212121" fill-opacity="1" stroke="none" xml:space="preserve" x="0" y="0" font-family="Helvetica" font-size="12" font-weight="400" font-style="normal" 
 >-100</text>
</g>

<g fill="#212121" fill-opacity="1" stroke="#212121" stroke-opacity="1" stroke-width="1" stroke-linecap="square" stroke-linejoin="bevel" transform="matrix(0.750081,0,0,0.749987,18.5019,45.0223)"
font-family="Helvetica" font-size="12" font-weight="400" font-style="normal" 
>
<text fill="#212121" fill-opacity="1" stroke="none" xml:space="preserve" x="0" y="0" font-family="Helvetica" font-size="12" font-weight="400" font-style="normal" 
 >-50</text>
</g>

<g fill="#212121" fill-opacity="1" stroke="#212121" stroke-opacity="1" stroke-width="1" stroke-linecap="square" stroke-linejoin="bevel" transform="matrix(0.750081,0,0,0.749987,26.0027,24.0715)"
font-family="Helvetica" font-size="12" font-weight="400" font-style="normal" 
>
<text fill="#212121" fill-opacity="1" stroke="none" xml:space="preserve" x="0" y="0" font-family="Helvetica" font-size="12" font-weight="400" font-style="normal" 
 >0</text>
</g>

<g fill="#212121" fill-opacity="1" stroke="#212121" stroke-opacity="1" stroke-width="1" stroke-linecap="square" stroke-linejoin="bevel" transform="matrix(0.750081,0,0,0.749987,337.837,8.24988)"
font-family="Helvetica" font-size="13" font-weight="700" font-style="normal" 
>
<text fill="#212121" fill-opacity="1" stroke="none" xml:space="preserve" x="0" y="0" font-family="Helvetica" font-size="13" font-weight="700" font-style="normal" 
 >Magnitude</text>
</g>

<g fill="none" stroke="#1171be" stroke-opacity="1" stroke-width="0.666667" stroke-linecap="butt" stroke-linejoin="round" transform="matrix(0.750081,0,0,0.749987,-76.2084,-16.8934)"
font-family="Helvetica" font-size="13" font-weight="700" font-style="normal" 
>
<polyline fill="none" vector-effect="none" points="186.686,218 186.734,217.941 187.161,217.42 187.588,216.905 188.016,216.395 188.443,215.89 188.87,215.39 189.297,214.896 189.725,214.406 190.152,213.921 190.579,213.441 191.006,212.966 191.434,212.495 191.861,212.029 192.288,211.567 192.715,211.109 193.143,210.656 193.57,210.206 193.997,209.761 194.424,209.32 194.852,208.882 195.279,208.449 195.706,208.019 196.133,207.593 196.561,207.171 196.988,206.752 197.415,206.337 197.842,205.925 198.27,205.517 198.697,205.111 199.124,204.71 199.551,204.311 199.979,203.916 200.406,203.524 200.833,203.135 201.26,202.749 201.688,202.366 202.115,201.986 202.542,201.608 202.969,201.234 203.396,200.862 203.824,200.494 204.251,200.128 204.678,199.764 205.105,199.403 205.533,199.045 205.96,198.69 206.387,198.337 206.814,197.986 207.242,197.638 207.669,197.292 208.096,196.949 208.523,196.608 208.951,196.27 209.378,195.933 209.805,195.599 210.232,195.267 210.66,194.938 211.087,194.61 211.514,194.285 211.941,193.962 212.369,193.641 212.796,193.322 213.223,193.005 213.65,192.689 214.078,192.376 214.505,192.065 214.932,191.756 215.359,191.449 215.787,191.143 216.214,190.84 216.641,190.538 217.068,190.238 217.496,189.94 217.923,189.643 218.35,189.349 218.777,189.056 219.205,188.765 219.632,188.475 220.059,188.187 220.486,187.901 220.914,187.616 221.341,187.333 221.768,187.052 222.195,186.772 222.623,186.494 223.05,186.217 223.477,185.942 223.904,185.668 224.332,185.395 224.759,185.125 225.186,184.855 225.613,184.587 226.041,184.321 226.468,184.055 226.895,183.792 227.322,183.529 227.75,183.268 228.177,183.008 228.604,182.75 229.031,182.493 229.458,182.237 229.886,181.983 230.313,181.729 230.74,181.477 231.167,181.227 231.595,180.977 232.022,180.729 232.449,180.482 232.876,180.236 233.304,179.991 233.731,179.748 234.158,179.505 234.585,179.264 235.013,179.024 235.44,178.785 235.867,178.547 236.294,178.31 236.722,178.075 237.149,177.84 237.576,177.606 238.003,177.374 238.431,177.143 238.858,176.912 239.285,176.683 239.712,176.455 240.14,176.227 240.567,176.001 240.994,175.776 241.421,175.551 241.849,175.328 242.276,175.105 242.703,174.884 243.13,174.664 243.558,174.444 243.985,174.225 244.412,174.008 244.839,173.791 245.267,173.575 245.694,173.36 246.121,173.146 246.548,172.933 246.976,172.72 247.403,172.509 247.83,172.298 248.257,172.089 248.685,171.88 249.112,171.672 249.539,171.464 249.966,171.258 250.394,171.052 250.821,170.847 251.248,170.643 251.675,170.44 252.103,170.238 252.53,170.036 252.957,169.835 253.384,169.635 253.812,169.436 254.239,169.237 254.666,169.039 255.093,168.842 255.521,168.646 255.948,168.45 256.375,168.256 256.802,168.061 257.229,167.868 257.657,167.675 258.084,167.483 258.511,167.292 258.938,167.101 259.366,166.911 259.793,166.722 260.22,166.533 260.647,166.345 261.075,166.158 261.502,165.971 261.929,165.786 262.356,165.6 262.784,165.416 263.211,165.232 263.638,165.048 264.065,164.865 264.493,164.683 264.92,164.502 265.347,164.321 265.774,164.141 266.202,163.961 266.629,163.782 267.056,163.604 267.483,163.426 267.911,163.248 268.338,163.072 268.765,162.896 269.192,162.72 269.62,162.545 270.047,162.371 270.474,162.197 270.901,162.024 271.329,161.851 271.756,161.679 272.183,161.507 272.61,161.336 273.038,161.166 273.465,160.996 273.892,160.826 274.319,160.657 274.747,160.489 275.174,160.321 275.601,160.154 276.028,159.987 276.456,159.82 276.883,159.655 277.31,159.489 277.737,159.324 278.165,159.16 278.592,158.996 279.019,158.833 279.446,158.67 279.874,158.508 280.301,158.346 280.728,158.184 281.155,158.024 281.583,157.863 282.01,157.703 282.437,157.544 282.864,157.385 283.292,157.226 283.719,157.068 284.146,156.91 284.573,156.753 285,156.596 285.428,156.44 285.855,156.284 286.282,156.128 286.709,155.973 287.137,155.819 287.564,155.665 287.991,155.511 288.418,155.357 288.846,155.205 289.273,155.052 289.7,154.9 290.127,154.748 290.555,154.597 290.982,154.446 291.409,154.296 291.836,154.146 292.264,153.996 292.691,153.847 293.118,153.698 293.545,153.55 293.973,153.402 294.4,153.254 294.827,153.107 295.254,152.96 295.682,152.814 296.109,152.667 296.536,152.522 296.963,152.376 297.391,152.231 297.818,152.087 298.245,151.943 298.672,151.799 299.1,151.655 299.527,151.512 299.954,151.369 300.381,151.227 300.809,151.085 301.236,150.943 301.663,150.802 302.09,150.661 302.518,150.52 302.945,150.38 303.372,150.24 303.799,150.1 304.227,149.961 304.654,149.822 305.081,149.683 305.508,149.545 305.936,149.407 306.363,149.269 306.79,149.132 307.217,148.995 307.645,148.858 308.072,148.722 308.499,148.586 308.926,148.45 309.354,148.315 309.781,148.179 310.208,148.045 310.635,147.91 311.063,147.776 311.49,147.642 311.917,147.509 312.344,147.376 312.771,147.243 313.199,147.11 313.626,146.978 314.053,146.846 314.48,146.714 314.908,146.582 315.335,146.451 315.762,146.32 316.189,146.19 316.617,146.06 317.044,145.93 317.471,145.8 317.898,145.671 318.326,145.541 318.753,145.413 319.18,145.284 319.607,145.156 320.035,145.028 320.462,144.9 320.889,144.772 321.316,144.645 321.744,144.518 322.171,144.392 322.598,144.265 323.025,144.139 323.453,144.013 323.88,143.887 324.307,143.762 324.734,143.637 325.162,143.512 325.589,143.388 326.016,143.263 326.443,143.139 326.871,143.015 327.298,142.892 327.725,142.769 328.152,142.645 328.58,142.523 329.007,142.4 329.434,142.278 329.861,142.156 330.289,142.034 330.716,141.912 331.143,141.791 331.57,141.67 331.998,141.549 332.425,141.428 332.852,141.308 333.279,141.188 333.707,141.068 334.134,140.948 334.561,140.829 334.988,140.709 335.416,140.59 335.843,140.472 336.27,140.353 336.697,140.235 337.125,140.117 337.552,139.999 337.979,139.881 338.406,139.763 338.833,139.646 339.261,139.529 339.688,139.412 340.115,139.296 340.542,139.18 340.97,139.063 341.397,138.947 341.824,138.832 342.251,138.716 342.679,138.601 343.106,138.486 343.533,138.371 343.96,138.256 344.388,138.142 344.815,138.027 345.242,137.913 345.669,137.799 346.097,137.686 346.524,137.572 346.951,137.459 347.378,137.346 347.806,137.233 348.233,137.12 348.66,137.008 349.087,136.896 349.515,136.784 349.942,136.672 350.369,136.56 350.796,136.449 351.224,136.337 351.651,136.226 352.078,136.115 352.505,136.004 352.933,135.894 353.36,135.783 353.787,135.673 354.214,135.563 354.642,135.453 355.069,135.344 355.496,135.234 355.923,135.125 356.351,135.016 356.778,134.907 357.205,134.798 357.632,134.69 358.06,134.581 358.487,134.473 358.914,134.365 359.341,134.257 359.769,134.149 360.196,134.042 360.623,133.935 361.05,133.827 361.478,133.72 361.905,133.614 362.332,133.507 362.759,133.4 363.187,133.294 363.614,133.188 364.041,133.082 364.468,132.976 364.896,132.87 365.323,132.765 365.75,132.659 366.177,132.554 366.604,132.449 367.032,132.344 367.459,132.24 367.886,132.135 368.313,132.031 368.741,131.926 369.168,131.822 369.595,131.718 370.022,131.615 370.45,131.511 370.877,131.408 371.304,131.304 371.731,131.201 372.159,131.098 372.586,130.995 373.013,130.892 373.44,130.79 373.868,130.687 374.295,130.585 374.722,130.483 375.149,130.381 375.577,130.279 376.004,130.178 376.431,130.076 376.858,129.975 377.286,129.873 377.713,129.772 378.14,129.671 378.567,129.571 378.995,129.47 379.422,129.369 379.849,129.269 380.276,129.169 380.704,129.069 381.131,128.969 381.558,128.869 381.985,128.769 382.413,128.669 382.84,128.57 383.267,128.471 383.694,128.372 384.122,128.273 384.549,128.174 384.976,128.075 385.403,127.976 385.831,127.878 386.258,127.779 386.685,127.681 387.112,127.583 387.54,127.485 387.967,127.387 388.394,127.289 388.821,127.192 389.249,127.094 389.676,126.997 390.103,126.9 390.53,126.803 390.958,126.706 391.385,126.609 391.812,126.512 392.239,126.416 392.667,126.319 393.094,126.223 393.521,126.126 393.948,126.03 394.375,125.934 394.803,125.838 395.23,125.743 395.657,125.647 396.084,125.552 396.512,125.456 396.939,125.361 397.366,125.266 397.793,125.171 398.221,125.076 398.648,124.981 399.075,124.886 399.502,124.792 399.93,124.697 400.357,124.603 400.784,124.508 401.211,124.414 401.639,124.32 402.066,124.226 402.493,124.132 402.92,124.039 403.348,123.945 403.775,123.852 404.202,123.758 404.629,123.665 405.057,123.572 405.484,123.479 405.911,123.386 406.338,123.293 406.766,123.2 407.193,123.108 407.62,123.015 408.047,122.923 408.475,122.83 408.902,122.738 409.329,122.646 409.756,122.554 410.184,122.462 410.611,122.37 411.038,122.279 411.465,122.187 411.893,122.096 412.32,122.004 412.747,121.913 413.174,121.822 413.602,121.731 414.029,121.64 414.456,121.549 414.883,121.458 415.311,121.367 415.738,121.277 416.165,121.186 416.592,121.096 417.02,121.005 417.447,120.915 417.874,120.825 418.301,120.735 418.729,120.645 419.156,120.555 419.583,120.465 420.01,120.376 420.438,120.286 420.865,120.197 421.292,120.107 421.719,120.018 422.146,119.929 422.574,119.84 423.001,119.751 423.428,119.662 423.855,119.573 424.283,119.484 424.71,119.395 425.137,119.307 425.564,119.218 425.992,119.13 426.419,119.042 426.846,118.953 427.273,118.865 427.701,118.777 428.128,118.689 428.555,118.601 428.982,118.513 429.41,118.426 429.837,118.338 430.264,118.25 430.691,118.163 431.119,118.076 431.546,117.988 431.973,117.901 432.4,117.814 432.828,117.727 433.255,117.64 433.682,117.553 434.109,117.466 434.537,117.379 434.964,117.293 435.391,117.206 435.818,117.12 436.246,117.033 436.673,116.947 437.1,116.861 437.527,116.774 437.955,116.688 438.382,116.602 438.809,116.516 439.236,116.43 439.664,116.344 440.091,116.259 440.518,116.173 440.945,116.087 441.373,116.002 441.8,115.916 442.227,115.831 442.654,115.746 443.082,115.661 443.509,115.575 443.936,115.49 444.363,115.405 444.791,115.32 445.218,115.236 445.645,115.151 446.072,115.066 446.5,114.981 446.927,114.897 447.354,114.812 447.781,114.728 448.208,114.643 448.636,114.559 449.063,114.475 449.49,114.391 449.917,114.307 450.345,114.223 450.772,114.139 451.199,114.055 451.626,113.971 452.054,113.887 452.481,113.803 452.908,113.72 453.335,113.636 453.763,113.553 454.19,113.469 454.617,113.386 455.044,113.303 455.472,113.219 455.899,113.136 456.326,113.053 456.753,112.97 457.181,112.887 457.608,112.804 458.035,112.721 458.462,112.638 458.89,112.556 459.317,112.473 459.744,112.39 460.171,112.308 460.599,112.225 461.026,112.143 461.453,112.061 461.88,111.978 462.308,111.896 462.735,111.814 463.162,111.732 463.589,111.65 464.017,111.568 464.444,111.486 464.871,111.404 465.298,111.322 465.726,111.24 466.153,111.158 466.58,111.077 467.007,110.995 467.435,110.913 467.862,110.832 468.289,110.75 468.716,110.669 469.144,110.588 469.571,110.506 469.998,110.425 470.425,110.344 470.853,110.263 471.28,110.182 471.707,110.101 472.134,110.02 472.562,109.939 472.989,109.858 473.416,109.777 473.843,109.697 474.271,109.616 474.698,109.535 475.125,109.455 475.552,109.374 475.979,109.294 476.407,109.213 476.834,109.133 477.261,109.052 477.688,108.972 478.116,108.892 478.543,108.812 478.97,108.731 479.397,108.651 479.825,108.571 480.252,108.491 480.679,108.411 481.106,108.331 481.534,108.252 481.961,108.172 482.388,108.092 482.815,108.012 483.243,107.933 483.67,107.853 484.097,107.773 484.524,107.694 484.952,107.614 485.379,107.535 485.806,107.456 486.233,107.376 486.661,107.297 487.088,107.218 487.515,107.138 487.942,107.059 488.37,106.98 488.797,106.901 489.224,106.822 489.651,106.743 490.079,106.664 490.506,106.585 490.933,106.506 491.36,106.427 491.788,106.349 492.215,106.27 492.642,106.191 493.069,106.113 493.497,106.034 493.924,105.955 494.351,105.877 494.778,105.798 495.206,105.72 495.633,105.641 496.06,105.563 496.487,105.485 496.915,105.406 497.342,105.328 497.769,105.25 498.196,105.172 498.624,105.094 499.051,105.016 499.478,104.937 499.905,104.859 500.333,104.781 500.76,104.703 501.187,104.626 501.614,104.548 502.042,104.47 502.469,104.392 502.896,104.314 503.323,104.236 503.75,104.159 504.178,104.081 504.605,104.003 505.032,103.926 505.459,103.848 505.887,103.771 506.314,103.693 506.741,103.616 507.168,103.538 507.596,103.461 508.023,103.384 508.45,103.306 508.877,103.229 509.305,103.152 509.732,103.075 510.159,102.997 510.586,102.92 511.014,102.843 511.441,102.766 511.868,102.689 512.295,102.612 512.723,102.535 513.15,102.458 513.577,102.381 514.004,102.304 514.432,102.227 514.859,102.15 515.286,102.074 515.713,101.997 516.141,101.92 516.568,101.843 516.995,101.767 517.422,101.69 517.85,101.613 518.277,101.537 518.704,101.46 519.131,101.384 519.559,101.307 519.986,101.231 520.413,101.154 520.84,101.078 521.268,101.001 521.695,100.925 522.122,100.848 522.549,100.772 522.977,100.696 523.404,100.62 523.831,100.543 524.258,100.467 524.686,100.391 525.113,100.315 525.54,100.239 525.967,100.162 526.395,100.086 526.822,100.01 527.249,99.9342 527.676,99.8582 528.104,99.7822 528.531,99.7062 528.958,99.6302 529.385,99.5543 529.813,99.4784 530.24,99.4025 530.667,99.3266 531.094,99.2508 531.521,99.1749 531.949,99.0992 532.376,99.0234 532.803,98.9476 533.23,98.8719 533.658,98.7962 534.085,98.7205 534.512,98.6448 534.939,98.5692 535.367,98.4936 535.794,98.418 536.221,98.3424 536.648,98.2668 537.076,98.1913 537.503,98.1157 537.93,98.0402 538.357,97.9648 538.785,97.8893 539.212,97.8138 539.639,97.7384 540.066,97.663 540.494,97.5876 540.921,97.5122 541.348,97.4369 541.775,97.3616 542.203,97.2862 542.63,97.2109 543.057,97.1357 543.484,97.0604 543.912,96.9852 544.339,96.9099 544.766,96.8347 545.193,96.7595 545.621,96.6843 546.048,96.6092 546.475,96.534 546.902,96.4589 547.33,96.3838 547.757,96.3087 548.184,96.2336 548.611,96.1585 549.039,96.0835 549.466,96.0084 549.893,95.9334 550.32,95.8584 550.748,95.7834 551.175,95.7084 551.602,95.6334 552.029,95.5585 552.457,95.4835 552.884,95.4086 553.311,95.3337 553.738,95.2588 554.166,95.1839 554.593,95.109 555.02,95.0341 555.447,94.9593 555.875,94.8844 556.302,94.8096 556.729,94.7348 557.156,94.66 557.583,94.5852 558.011,94.5104 558.438,94.4356 558.865,94.3609 559.292,94.2861 559.72,94.2114 560.147,94.1366 560.574,94.0619 561.001,93.9872 561.429,93.9125 561.856,93.8378 562.283,93.7631 562.71,93.6885 563.138,93.6138 563.565,93.5391 563.992,93.4645 564.419,93.3899 564.847,93.3152 565.274,93.2406 565.701,93.166 566.128,93.0914 566.556,93.0168 566.983,92.9422 567.41,92.8676 567.837,92.793 568.265,92.7185 568.692,92.6439 569.119,92.5693 569.546,92.4948 569.974,92.4202 570.401,92.3457 570.828,92.2712 571.255,92.1966 571.683,92.1221 572.11,92.0476 572.537,91.9731 572.964,91.8986 573.392,91.8241 573.819,91.7496 574.246,91.6751 574.673,91.6006 575.101,91.5261 575.528,91.4516 575.955,91.3771 576.382,91.3027 576.81,91.2282 577.237,91.1537 577.664,91.0793 578.091,91.0048 578.519,90.9303 578.946,90.8559 579.373,90.7814 579.8,90.707 580.228,90.6325 580.655,90.5581 581.082,90.4836 581.509,90.4092 581.937,90.3347 582.364,90.2603 582.791,90.1859 583.218,90.1114 583.646,90.037 584.073,89.9625 584.5,89.8881 584.927,89.8136 585.354,89.7392 585.782,89.6648 586.209,89.5903 586.636,89.5159 587.063,89.4414 587.491,89.367 587.918,89.2925 588.345,89.2181 588.772,89.1436 589.2,89.0692 589.627,88.9947 590.054,88.9203 590.481,88.8458 590.909,88.7714 591.336,88.6969 591.763,88.6224 592.19,88.548 592.618,88.4735 593.045,88.399 593.472,88.3246 593.899,88.2501 594.327,88.1756 594.754,88.1011 595.181,88.0266 595.608,87.9521 596.036,87.8776 596.463,87.8031 596.89,87.7286 597.317,87.6541 597.745,87.5796 598.172,87.505 598.599,87.4305 599.026,87.3559 599.454,87.2814 599.881,87.2068 600.308,87.1323 600.735,87.0577 601.163,86.9832 601.59,86.9086 602.017,86.834 602.444,86.7594 602.872,86.6848 603.299,86.6102 603.726,86.5356 604.153,86.461 604.581,86.3863 605.008,86.3117 605.435,86.237 605.862,86.1624 606.29,86.0877 606.717,86.013 607.144,85.9384 607.571,85.8637 607.999,85.789 608.426,85.7143 608.853,85.6395 609.28,85.5648 609.708,85.4901 610.135,85.4153 610.562,85.3405 610.989,85.2658 611.417,85.191 611.844,85.1162 612.271,85.0414 612.698,84.9666 613.125,84.8917 613.553,84.8169 613.98,84.742 614.407,84.6672 614.834,84.5923 615.262,84.5174 615.689,84.4425 616.116,84.3676 616.543,84.2927 616.971,84.2177 617.398,84.1428 617.825,84.0678 618.252,83.9928 618.68,83.9178 619.107,83.8428 619.534,83.7678 619.961,83.6927 620.389,83.6177 620.816,83.5426 621.243,83.4675 621.67,83.3924 622.098,83.3173 622.525,83.2422 622.952,83.167 623.379,83.0919 623.807,83.0167 624.234,82.9415 624.661,82.8663 625.088,82.791 625.516,82.7158 625.943,82.6405 626.37,82.5652 626.797,82.4899 627.225,82.4146 627.652,82.3393 628.079,82.2639 628.506,82.1886 628.934,82.1132 629.361,82.0378 629.788,81.9623 630.215,81.8869 630.643,81.8114 631.07,81.7359 631.497,81.6604 631.924,81.5849 632.352,81.5094 632.779,81.4338 633.206,81.3582 633.633,81.2826 634.061,81.207 634.488,81.1314 634.915,81.0557 635.342,80.98 635.77,80.9043 636.197,80.8286 636.624,80.7528 637.051,80.677 637.479,80.6012 637.906,80.5254 638.333,80.4496 638.76,80.3737 639.188,80.2978 639.615,80.2219 640.042,80.146 640.469,80.07 640.896,79.994 641.324,79.918 641.751,79.842 642.178,79.766 642.605,79.6899 643.033,79.6138 643.46,79.5376 643.887,79.4615 644.314,79.3853 644.742,79.3091 645.169,79.2329 645.596,79.1566 646.023,79.0803 646.451,79.004 646.878,78.9277 647.305,78.8513 647.732,78.775 648.16,78.6985 648.587,78.6221 649.014,78.5456 649.441,78.4691 649.869,78.3926 650.296,78.3161 650.723,78.2395 651.15,78.1629 651.578,78.0862 652.005,78.0096 652.432,77.9329 652.859,77.8561 653.287,77.7794 653.714,77.7026 654.141,77.6258 654.568,77.5489 654.996,77.4721 655.423,77.3952 655.85,77.3182 656.277,77.2413 656.705,77.1643 657.132,77.0872 657.559,77.0102 657.986,76.9331 658.414,76.856 658.841,76.7788 659.268,76.7016 659.695,76.6244 660.123,76.5471 660.55,76.4699 660.977,76.3925 661.404,76.3152 661.832,76.2378 662.259,76.1604 662.686,76.0829 663.113,76.0054 663.541,75.9279 663.968,75.8503 664.395,75.7728 664.822,75.6951 665.25,75.6175 665.677,75.5398 666.104,75.462 666.531,75.3843 666.958,75.3065 667.386,75.2286 667.813,75.1507 668.24,75.0728 668.667,74.9949 669.095,74.9169 669.522,74.8389 669.949,74.7608 670.376,74.6827 670.804,74.6045 671.231,74.5264 671.658,74.4482 672.085,74.3699 672.513,74.2916 672.94,74.2133 673.367,74.1349 673.794,74.0565 674.222,73.978 674.649,73.8995 675.076,73.821 675.503,73.7424 675.931,73.6638 676.358,73.5852 676.785,73.5065 677.212,73.4277 677.64,73.3489 678.067,73.2701 678.494,73.1913 678.921,73.1124 679.349,73.0334 679.776,72.9544 680.203,72.8754 680.63,72.7963 681.058,72.7172 681.485,72.638 681.912,72.5588 682.339,72.4796 682.767,72.4003 683.194,72.3209 683.621,72.2416 684.048,72.1621 684.476,72.0826 684.903,72.0031 685.33,71.9236 685.757,71.844 686.185,71.7643 686.612,71.6846 687.039,71.6048 687.466,71.525 687.894,71.4452 688.321,71.3653 688.748,71.2854 689.175,71.2054 689.603,71.1254 690.03,71.0453 690.457,70.9651 690.884,70.885 691.312,70.8047 691.739,70.7245 692.166,70.6441 692.593,70.5638 693.021,70.4833 693.448,70.4029 693.875,70.3223 694.302,70.2418 694.729,70.1611 695.157,70.0805 695.584,69.9997 696.011,69.9189 696.438,69.8381 696.866,69.7572 697.293,69.6763 697.72,69.5953 698.147,69.5143 698.575,69.4332 699.002,69.352 699.429,69.2708 699.856,69.1896 700.284,69.1083 700.711,69.0269 701.138,68.9455 701.565,68.864 701.993,68.7825 702.42,68.7009 702.847,68.6193 703.274,68.5376 703.702,68.4559 704.129,68.3741 704.556,68.2922 704.983,68.2103 705.411,68.1284 705.838,68.0463 706.265,67.9643 706.692,67.8821 707.12,67.7999 707.547,67.7177 707.974,67.6354 708.401,67.553 708.829,67.4706 709.256,67.3881 709.683,67.3056 710.11,67.223 710.538,67.1404 710.965,67.0577 711.392,66.9749 711.819,66.8921 712.247,66.8092 712.674,66.7262 713.101,66.6432 713.528,66.5602 713.956,66.477 714.383,66.3938 714.81,66.3106 715.237,66.2273 715.665,66.1439 716.092,66.0605 716.519,65.977 716.946,65.8935 717.374,65.8099 717.801,65.7262 718.228,65.6425 718.655,65.5587 719.083,65.4748 719.51,65.3909 719.937,65.3069 720.364,65.2229 720.792,65.1388 721.219,65.0547 721.646,64.9704 722.073,64.8862 722.5,64.8018 722.928,64.7174 723.355,64.6329 723.782,64.5484 724.209,64.4638 724.637,64.3792 725.064,64.2945 725.491,64.2097 725.918,64.1249 726.346,64.04 726.773,63.955 727.2,63.87 727.627,63.7849 728.055,63.6998 728.482,63.6146 728.909,63.5294 729.336,63.444 729.764,63.3587 730.191,63.2732 730.618,63.1877 731.045,63.1022 731.473,63.0166 731.9,62.9309 732.327,62.8452 732.754,62.7594 733.182,62.6735 733.609,62.5877 734.036,62.5017 734.463,62.4157 734.891,62.3296 735.318,62.2435 735.745,62.1573 736.172,62.0711 736.6,61.9848 737.027,61.8985 737.454,61.8121 737.881,61.7257 738.309,61.6392 738.736,61.5527 739.163,61.4661 739.59,61.3795 740.018,61.2928 740.445,61.2061 740.872,61.1193 741.299,61.0325 741.727,60.9457 742.154,60.8588 742.581,60.7719 743.008,60.6849 743.436,60.5979 743.863,60.5109 744.29,60.4239 744.717,60.3368 745.145,60.2497 745.572,60.1625 745.999,60.0753 746.426,59.9882 746.854,59.9009 747.281,59.8137 747.708,59.7265 748.135,59.6392 748.563,59.5519 748.99,59.4647 749.417,59.3774 749.844,59.2901 750.271,59.2028 750.699,59.1155 751.126,59.0283 751.553,58.941 751.98,58.8537 752.408,58.7665 752.835,58.6793 753.262,58.5921 753.689,58.505 754.117,58.4178 754.544,58.3307 754.971,58.2437 755.398,58.1567 755.826,58.0698 756.253,57.9829 756.68,57.896 757.107,57.8093 757.535,57.7226 757.962,57.636 758.389,57.5495 758.816,57.4631 759.244,57.3767 759.671,57.2905 760.098,57.2044 760.525,57.1184 760.953,57.0326 761.38,56.9468 761.807,56.8613 762.234,56.7758 762.662,56.6906 763.089,56.6055 763.516,56.5206 763.943,56.4358 764.371,56.3513 764.798,56.267 765.225,56.1829 765.652,56.099 766.08,56.0154 766.507,55.932 766.934,55.8489 767.361,55.766 767.789,55.6835 768.216,55.6012 768.643,55.5193 769.07,55.4376 769.498,55.3564 769.925,55.2754 770.352,55.1949 770.779,55.1147 771.207,55.0349 771.634,54.9555 772.061,54.8765 772.488,54.798 772.916,54.7199 773.343,54.6423 773.77,54.5652 774.197,54.4886 774.625,54.4125 775.052,54.3369 775.479,54.2619 775.906,54.1875 776.333,54.1136 776.761,54.0404 777.188,53.9677 777.615,53.8957 778.042,53.8243 778.47,53.7536 778.897,53.6836 779.324,53.6143 779.751,53.5457 780.179,53.4779 780.606,53.4107 781.033,53.3444 781.46,53.2788 781.888,53.214 782.315,53.1501 782.742,53.0869 783.169,53.0246 783.597,52.9632 784.024,52.9026 784.451,52.8428 784.878,52.784 785.306,52.7261 785.733,52.669 786.16,52.6129 786.587,52.5577 787.015,52.5035 787.442,52.4502 787.869,52.3978 788.296,52.3464 788.724,52.296 789.151,52.2465 789.578,52.198 790.005,52.1505 790.433,52.1039 790.86,52.0583 791.287,52.0137 791.714,51.9701 792.142,51.9274 792.569,51.8857 792.996,51.845 793.423,51.8052 793.851,51.7664 794.278,51.7285 794.705,51.6916 795.132,51.6556 795.56,51.6205 795.987,51.5864 796.414,51.5531 796.841,51.5208 797.269,51.4893 797.696,51.4587 798.123,51.429 798.55,51.4002 798.978,51.3721 799.405,51.3449 799.832,51.3185 800.259,51.2929 800.687,51.2681 801.114,51.2441 801.541,51.2208 801.968,51.1982 802.396,51.1764 802.823,51.1553 803.25,51.1348 803.677,51.1151 804.104,51.096 804.532,51.0775 804.959,51.0597 805.386,51.0424 805.813,51.0258 806.241,51.0098 806.668,50.9943 807.095,50.9793 807.522,50.9649 807.95,50.9511 808.377,50.9377 808.804,50.9248 809.231,50.9124 809.659,50.9004 810.086,50.8889 810.513,50.8778 810.94,50.8672 811.368,50.8569 811.795,50.847 812.222,50.8376 812.649,50.8284 813.077,50.8197 813.504,50.8113 813.931,50.8032 814.358,50.7954 814.786,50.7879 815.213,50.7808 815.64,50.7739 816.067,50.7673 816.495,50.7609 816.922,50.7548 817.349,50.749 817.776,50.7434 818.204,50.738 818.631,50.7329 819.058,50.728 819.485,50.7232 819.913,50.7187 820.34,50.7144 820.767,50.7102 821.194,50.7062 821.622,50.7024 822.049,50.6987 822.476,50.6952 822.903,50.6919 823.331,50.6887 823.758,50.6856 824.185,50.6827 824.612,50.6799 825.04,50.6772 825.467,50.6746 825.894,50.6721 826.321,50.6698 826.749,50.6675 827.176,50.6654 827.603,50.6633 828.03,50.6614 828.458,50.6595 828.885,50.6577 829.312,50.656 829.739,50.6543 830.167,50.6528 830.594,50.6513 831.021,50.6498 831.448,50.6485 831.875,50.6472 832.303,50.6459 832.73,50.6447 833.157,50.6436 833.584,50.6425 834.012,50.6415 834.439,50.6405 834.866,50.6395 835.293,50.6386 835.721,50.6378 836.148,50.637 836.575,50.6362 837.002,50.6354 837.43,50.6347 837.857,50.6341 838.284,50.6334 838.711,50.6328 839.139,50.6322 839.566,50.6317 839.993,50.6311 840.42,50.6306 840.848,50.6301 841.275,50.6297 841.702,50.6292 842.129,50.6288 842.557,50.6284 842.984,50.628 843.411,50.6277 843.838,50.6273 844.266,50.627 844.693,50.6267 845.12,50.6264 845.547,50.6261 845.975,50.6259 846.402,50.6256 846.829,50.6254 847.256,50.6251 847.684,50.6249 848.111,50.6247 848.538,50.6245 848.965,50.6243 849.393,50.6241 849.82,50.624 850.247,50.6238 850.674,50.6236 851.102,50.6235 851.529,50.6234 851.956,50.6232 852.383,50.6231 852.811,50.623 853.238,50.6229 853.665,50.6228 854.092,50.6227 854.52,50.6226 854.947,50.6225 855.374,50.6224 855.801,50.6223 856.229,50.6222 856.656,50.6221 857.083,50.6221 857.51,50.622 857.938,50.6219 858.365,50.6219 858.792,50.6218 859.219,50.6218 859.646,50.6217 860.074,50.6217 860.501,50.6216 860.928,50.6216 861.355,50.6215 861.783,50.6215 862.21,50.6215 862.637,50.6214 863.064,50.6214 863.492,50.6214 863.919,50.6213 864.346,50.6213 864.773,50.6213 865.201,50.6212 865.628,50.6212 866.055,50.6212 866.482,50.6212 866.91,50.6212 867.337,50.6211 867.764,50.6211 868.191,50.6211 868.619,50.6211 869.046,50.6211 869.473,50.6211 869.9,50.621 870.328,50.621 870.755,50.621 871.182,50.621 871.609,50.621 872.037,50.621 872.464,50.621 872.891,50.621 873.318,50.621 873.746,50.6209 874.173,50.6209 874.6,50.6209 875.027,50.6209 875.455,50.6209 875.882,50.6209 876.309,50.6209 876.736,50.6209 877.164,50.6209 877.591,50.6209 878.018,50.6209 878.445,50.6209 878.873,50.6209 879.3,50.6209 879.727,50.6209 880.154,50.6209 880.582,50.6209 881.009,50.6209 881.436,50.6209 881.863,50.6209 882.291,50.6209 882.718,50.6208 883.145,50.6208 883.572,50.6208 884,50.6208 884.427,50.6208 884.854,50.6208 885.281,50.6208 885.708,50.6208 886.136,50.6208 886.563,50.6208 886.99,50.6208 887.417,50.6208 887.845,50.6208 888.272,50.6208 888.699,50.6208 889.126,50.6208 889.554,50.6208 889.981,50.6208 890.408,50.6208 890.835,50.6208 891.263,50.6208 891.69,50.6208 892.117,50.6208 892.544,50.6208 892.972,50.6208 893.399,50.6208 893.826,50.6208 894.253,50.6208 894.681,50.6208 895.108,50.6208 895.535,50.6208 895.962,50.6208 896.39,50.6208 896.817,50.6208 897.244,50.6208 897.671,50.6208 898.099,50.6208 898.526,50.6208 898.953,50.6208 899.38,50.6208 899.808,50.6208 900.235,50.6208 900.662,50.6208 901.089,50.6208 901.517,50.6208 901.944,50.6208 902.371,50.6208 902.798,50.6208 903.226,50.6208 903.653,50.6208 904.08,50.6208 904.507,50.6208 904.935,50.6208 905.362,50.6208 905.789,50.6208 906.216,50.6208 906.644,50.6208 907.071,50.6208 907.498,50.6208 907.925,50.6208 908.353,50.6208 908.78,50.6208 909.207,50.6208 909.634,50.6208 910.062,50.6208 910.489,50.6208 910.916,50.6208 911.343,50.6208 911.771,50.6208 912.198,50.6208 912.625,50.6208 913.052,50.6208 913.479,50.6208 913.907,50.6208 914.334,50.6208 914.761,50.6208 915.188,50.6208 915.616,50.6208 916.043,50.6208 916.47,50.6208 916.897,50.6208 917.325,50.6208 917.752,50.6208 918.179,50.6208 918.606,50.6208 919.034,50.6208 919.461,50.6208 919.888,50.6208 920.315,50.6208 920.743,50.6208 921.17,50.6208 921.597,50.6208 922.024,50.6208 922.452,50.6208 922.879,50.6208 923.306,50.6208 923.733,50.6208 924.161,50.6208 924.588,50.6208 925.015,50.6208 925.442,50.6208 925.87,50.6208 926.297,50.6208 926.724,50.6208 927.151,50.6208 927.579,50.6208 928.006,50.6208 928.433,50.6208 928.86,50.6208 929.288,50.6208 929.715,50.6208 930.142,50.6208 930.569,50.6208 930.997,50.6208 931.424,50.6208 931.851,50.6208 932.278,50.6208 932.706,50.6208 933.133,50.6208 933.56,50.6208 933.987,50.6208 934.415,50.6208 934.842,50.6208 935.269,50.6208 935.696,50.6208 936.124,50.6208 936.551,50.6208 936.978,50.6208 937.405,50.6208 937.833,50.6208 938.26,50.6208 938.687,50.6208 939.114,50.6208 939.542,50.6208 939.969,50.6208 940.396,50.6208 940.823,50.6208 941.25,50.6208 941.678,50.6208 942.105,50.6208 942.532,50.6208 942.959,50.6208 943.387,50.6208 943.814,50.6208 944.241,50.6208 944.668,50.6208 945.096,50.6208 945.523,50.6208 945.95,50.6208 946.377,50.6208 946.805,50.6208 947.232,50.6208 947.659,50.6208 948.086,50.6208 948.514,50.6208 948.941,50.6208 949.368,50.6208 949.795,50.6208 950.223,50.6208 950.65,50.6208 951.077,50.6208 951.504,50.6208 951.932,50.6208 952.359,50.6208 952.786,50.6208 953.213,50.6208 953.641,50.6208 954.068,50.6208 954.495,50.6208 954.922,50.6208 955.35,50.6208 955.777,50.6208 956.204,50.6208 956.631,50.6208 957.059,50.6208 957.486,50.6208 957.913,50.6208 958.34,50.6208 958.768,50.6208 959.195,50.6208 959.622,50.6208 960.049,50.6208 960.477,50.6208 960.904,50.6208 961.331,50.6208 961.758,50.6208 962.186,50.6208 962.613,50.6208 963.04,50.6208 963.467,50.6208 963.895,50.6208 964.322,50.6208 964.749,50.6208 965.176,50.6208 965.604,50.6208 966.031,50.6208 966.458,50.6208 966.885,50.6208 967.313,50.6208 967.74,50.6208 968.167,50.6208 968.594,50.6208 969.021,50.6208 969.449,50.6208 969.876,50.6208 970.303,50.6208 970.73,50.6208 971.158,50.6208 971.585,50.6208 972.012,50.6208 972.439,50.6208 972.867,50.6208 973.294,50.6208 973.721,50.6208 974.148,50.6208 974.576,50.6208 975.003,50.6208 975.43,50.6208 975.857,50.6208 976.285,50.6208 976.712,50.6208 977.139,50.6208 977.566,50.6208 977.994,50.6208 978.421,50.6208 978.848,50.6208 979.275,50.6208 979.703,50.6208 980.13,50.6208 980.557,50.6208 980.984,50.6208 981.412,50.6208 981.839,50.6208 982.266,50.6208 982.693,50.6208 983.121,50.6208 983.548,50.6208 983.975,50.6208 984.402,50.6208 984.83,50.6208 985.257,50.6208 985.684,50.6208 986.111,50.6208 986.539,50.6208 986.966,50.6208 987.393,50.6208 987.82,50.6208 988.248,50.6208 988.675,50.6208 989.102,50.6208 989.529,50.6208 989.957,50.6208 990.384,50.6208 990.811,50.6208 991.238,50.6208 991.666,50.6208 992.093,50.6208 992.52,50.6208 992.947,50.6208 993.375,50.6208 993.802,50.6208 994.229,50.6208 994.656,50.6208 995.083,50.6208 995.511,50.6208 995.938,50.6208 996.365,50.6208 996.792,50.6208 997.22,50.6208 997.647,50.6208 998.074,50.6208 998.501,50.6208 998.929,50.6208 999.356,50.6208 999.783,50.6208 1000.21,50.6208 1000.64,50.6208 1001.06,50.6208 1001.49,50.6208 1001.92,50.6208 1002.35,50.6208 1002.77,50.6208 1003.2,50.6208 1003.63,50.6208 1004.06,50.6208 1004.48,50.6208 1004.91,50.6208 1005.34,50.6208 1005.76,50.6208 1006.19,50.6208 1006.62,50.6208 1007.05,50.6208 1007.47,50.6208 1007.9,50.6208 1008.33,50.6208 1008.76,50.6208 1009.18,50.6208 1009.61,50.6208 1010.04,50.6208 1010.46,50.6208 1010.89,50.6208 1011.32,50.6208 1011.75,50.6208 1012.17,50.6208 1012.6,50.6208 1013.03,50.6208 1013.46,50.6208 1013.88,50.6208 1014.31,50.6208 1014.74,50.6208 1015.16,50.6208 1015.59,50.6208 1016.02,50.6208 1016.45,50.6208 1016.87,50.6208 1017.3,50.6208 1017.73,50.6208 1018.15,50.6208 1018.58,50.6208 1019.01,50.6208 1019.44,50.6208 1019.86,50.6208 1020.29,50.6208 1020.72,50.6208 1021.15,50.6208 1021.57,50.6208 " />
</g>
</g>
</svg>
