<?xml version="1.0" encoding="UTF-8" standalone="no"?>
<svg width="245.886mm" height="127.353mm"
 viewBox="0 0 697 361"
 xmlns="http://www.w3.org/2000/svg" xmlns:xlink="http://www.w3.org/1999/xlink"  version="1.2" baseProfile="tiny">
<title>Qt SVG Document</title>
<desc>MATLAB, The MathWorks, Inc. Version 25.1.0.2973910 R2025a Update 1</desc>
<defs>
</defs>
<g fill="none" stroke="black" stroke-width="1" fill-rule="evenodd" stroke-linecap="square" stroke-linejoin="bevel" >

<g fill="#f5f5f5" fill-opacity="1" stroke="none" transform="matrix(0.749703,0,0,0.749987,-74.3199,-16.8934)"
font-family="Sans Serif" font-size="9" font-weight="400" font-style="normal" 
>
<path vector-effect="none" fill-rule="evenodd" d="M98,21 L1029,21 L1029,504 L98,504 L98,21"/>
</g>

<g fill="#ffffff" fill-opacity="1" stroke="none" transform="matrix(7.49703e-05,0,0,7.49987e-05,-74.3199,-16.8934)"
font-family="Sans Serif" font-size="9" font-weight="400" font-style="normal" 
>
<path vector-effect="none" fill-rule="evenodd" d="M1.47e+06,2.88e+06 L1.47e+06,4.67e+06 L1.024e+07,4.67e+06 L1.024e+07,2.88e+06 L1.47e+06,2.88e+06"/>
</g>

<g fill="#212121" fill-opacity="0.14902" stroke="#212121" stroke-opacity="0.14902" stroke-width="0.666667" stroke-linecap="butt" stroke-linejoin="round" transform="matrix(0.749703,0,0,0.749987,-74.3199,-16.8934)"
font-family="Sans Serif" font-size="9" font-weight="400" font-style="normal" 
>
<polyline fill="none" vector-effect="none" points="147,288 147,467 " />
<polyline fill="none" vector-effect="none" points="256.625,288 256.625,467 " />
<polyline fill="none" vector-effect="none" points="366.25,288 366.25,467 " />
<polyline fill="none" vector-effect="none" points="475.875,288 475.875,467 " />
<polyline fill="none" vector-effect="none" points="585.5,288 585.5,467 " />
<polyline fill="none" vector-effect="none" points="695.125,288 695.125,467 " />
<polyline fill="none" vector-effect="none" points="804.75,288 804.75,467 " />
<polyline fill="none" vector-effect="none" points="914.375,288 914.375,467 " />
<polyline fill="none" vector-effect="none" points="1024,288 1024,467 " />
<polyline fill="none" vector-effect="none" points="147,440.806 1024,440.806 " />
<polyline fill="none" vector-effect="none" points="147,404.638 1024,404.638 " />
<polyline fill="none" vector-effect="none" points="147,368.471 1024,368.471 " />
<polyline fill="none" vector-effect="none" points="147,332.304 1024,332.304 " />
<polyline fill="none" vector-effect="none" points="147,296.136 1024,296.136 " />
</g>

<g fill="#212121" fill-opacity="1" stroke="#212121" stroke-opacity="1" stroke-width="1" stroke-linecap="square" stroke-linejoin="bevel" transform="matrix(0.749703,0,0,0.749987,328.645,357)"
font-family="Helvetica" font-size="13" font-weight="400" font-style="normal" 
>
<text fill="#212121" fill-opacity="1" stroke="none" xml:space="preserve" x="0" y="0" font-family="Helvetica" font-size="13" font-weight="400" font-style="normal" 
 >Frequency (kHz)</text>
</g>

<g fill="#212121" fill-opacity="1" stroke="#212121" stroke-opacity="1" stroke-width="0.666667" stroke-linecap="square" stroke-linejoin="round" transform="matrix(0.749703,0,0,0.749987,-74.3199,-16.8934)"
font-family="Helvetica" font-size="13" font-weight="400" font-style="normal" 
>
<polyline fill="none" vector-effect="none" points="147,467 1024,467 " />
<polyline fill="none" vector-effect="none" points="147,288 1024,288 " />
<polyline fill="none" vector-effect="none" points="147,467 147,458.23 " />
<polyline fill="none" vector-effect="none" points="147,296.77 147,288 " />
<polyline fill="none" vector-effect="none" points="256.625,467 256.625,458.23 " />
<polyline fill="none" vector-effect="none" points="256.625,296.77 256.625,288 " />
<polyline fill="none" vector-effect="none" points="366.25,467 366.25,458.23 " />
<polyline fill="none" vector-effect="none" points="366.25,296.77 366.25,288 " />
<polyline fill="none" vector-effect="none" points="475.875,467 475.875,458.23 " />
<polyline fill="none" vector-effect="none" points="475.875,296.77 475.875,288 " />
<polyline fill="none" vector-effect="none" points="585.5,467 585.5,458.23 " />
<polyline fill="none" vector-effect="none" points="585.5,296.77 585.5,288 " />
<polyline fill="none" vector-effect="none" points="695.125,467 695.125,458.23 " />
<polyline fill="none" vector-effect="none" points="695.125,296.77 695.125,288 " />
<polyline fill="none" vector-effect="none" points="804.75,467 804.75,458.23 " />
<polyline fill="none" vector-effect="none" points="804.75,296.77 804.75,288 " />
<polyline fill="none" vector-effect="none" points="914.375,467 914.375,458.23 " />
<polyline fill="none" vector-effect="none" points="914.375,296.77 914.375,288 " />
<polyline fill="none" vector-effect="none" points="1024,467 1024,458.23 " />
<polyline fill="none" vector-effect="none" points="1024,296.77 1024,288 " />
</g>

<g fill="#212121" fill-opacity="1" stroke="#212121" stroke-opacity="1" stroke-width="1" stroke-linecap="square" stroke-linejoin="bevel" transform="matrix(0.749703,0,0,0.749987,33.2624,345)"
font-family="Helvetica" font-size="12" font-weight="400" font-style="normal" 
>
<text fill="#212121" fill-opacity="1" stroke="none" xml:space="preserve" x="0" y="0" font-family="Helvetica" font-size="12" font-weight="400" font-style="normal" 
 >0</text>
</g>

<g fill="#212121" fill-opacity="1" stroke="#212121" stroke-opacity="1" stroke-width="1" stroke-linecap="square" stroke-linejoin="bevel" transform="matrix(0.749703,0,0,0.749987,111.7,345)"
font-family="Helvetica" font-size="12" font-weight="400" font-style="normal" 
>
<text fill="#212121" fill-opacity="1" stroke="none" xml:space="preserve" x="0" y="0" font-family="Helvetica" font-size="12" font-weight="400" font-style="normal" 
 >0.5</text>
</g>

<g fill="#212121" fill-opacity="1" stroke="#212121" stroke-opacity="1" stroke-width="1" stroke-linecap="square" stroke-linejoin="bevel" transform="matrix(0.749703,0,0,0.749987,197.635,345)"
font-family="Helvetica" font-size="12" font-weight="400" font-style="normal" 
>
<text fill="#212121" fill-opacity="1" stroke="none" xml:space="preserve" x="0" y="0" font-family="Helvetica" font-size="12" font-weight="400" font-style="normal" 
 >1</text>
</g>

<g fill="#212121" fill-opacity="1" stroke="#212121" stroke-opacity="1" stroke-width="1" stroke-linecap="square" stroke-linejoin="bevel" transform="matrix(0.749703,0,0,0.749987,276.072,345)"
font-family="Helvetica" font-size="12" font-weight="400" font-style="normal" 
>
<text fill="#212121" fill-opacity="1" stroke="none" xml:space="preserve" x="0" y="0" font-family="Helvetica" font-size="12" font-weight="400" font-style="normal" 
 >1.5</text>
</g>

<g fill="#212121" fill-opacity="1" stroke="#212121" stroke-opacity="1" stroke-width="1" stroke-linecap="square" stroke-linejoin="bevel" transform="matrix(0.749703,0,0,0.749987,362.007,345)"
font-family="Helvetica" font-size="12" font-weight="400" font-style="normal" 
>
<text fill="#212121" fill-opacity="1" stroke="none" xml:space="preserve" x="0" y="0" font-family="Helvetica" font-size="12" font-weight="400" font-style="normal" 
 >2</text>
</g>

<g fill="#212121" fill-opacity="1" stroke="#212121" stroke-opacity="1" stroke-width="1" stroke-linecap="square" stroke-linejoin="bevel" transform="matrix(0.749703,0,0,0.749987,440.445,345)"
font-family="Helvetica" font-size="12" font-weight="400" font-style="normal" 
>
<text fill="#212121" fill-opacity="1" stroke="none" xml:space="preserve" x="0" y="0" font-family="Helvetica" font-size="12" font-weight="400" font-style="normal" 
 >2.5</text>
</g>

<g fill="#212121" fill-opacity="1" stroke="#212121" stroke-opacity="1" stroke-width="1" stroke-linecap="square" stroke-linejoin="bevel" transform="matrix(0.749703,0,0,0.749987,526.379,345)"
font-family="Helvetica" font-size="12" font-weight="400" font-style="normal" 
>
<text fill="#212121" fill-opacity="1" stroke="none" xml:space="preserve" x="0" y="0" font-family="Helvetica" font-size="12" font-weight="400" font-style="normal" 
 >3</text>
</g>

<g fill="#212121" fill-opacity="1" stroke="#212121" stroke-opacity="1" stroke-width="1" stroke-linecap="square" stroke-linejoin="bevel" transform="matrix(0.749703,0,0,0.749987,604.817,345)"
font-family="Helvetica" font-size="12" font-weight="400" font-style="normal" 
>
<text fill="#212121" fill-opacity="1" stroke="none" xml:space="preserve" x="0" y="0" font-family="Helvetica" font-size="12" font-weight="400" font-style="normal" 
 >3.5</text>
</g>

<g fill="#212121" fill-opacity="1" stroke="#212121" stroke-opacity="1" stroke-width="1" stroke-linecap="square" stroke-linejoin="bevel" transform="matrix(0.749703,0,0,0.749987,690.752,345)"
font-family="Helvetica" font-size="12" font-weight="400" font-style="normal" 
>
<text fill="#212121" fill-opacity="1" stroke="none" xml:space="preserve" x="0" y="0" font-family="Helvetica" font-size="12" font-weight="400" font-style="normal" 
 >4</text>
</g>

<g fill="#212121" fill-opacity="1" stroke="#212121" stroke-opacity="1" stroke-width="1" stroke-linecap="square" stroke-linejoin="bevel" transform="matrix(0,-0.749987,0.749703,0,8.24733,302.226)"
font-family="Helvetica" font-size="13" font-weight="400" font-style="normal" 
>
<text fill="#212121" fill-opacity="1" stroke="none" xml:space="preserve" x="0" y="0" font-family="Helvetica" font-size="13" font-weight="400" font-style="normal" 
 >Phase (degrees)</text>
</g>

<g fill="#212121" fill-opacity="1" stroke="#212121" stroke-opacity="1" stroke-width="0.666667" stroke-linecap="square" stroke-linejoin="round" transform="matrix(0.749703,0,0,0.749987,-74.3199,-16.8934)"
font-family="Helvetica" font-size="13" font-weight="400" font-style="normal" 
>
<polyline fill="none" vector-effect="none" points="147,467 147,288 " />
<polyline fill="none" vector-effect="none" points="1024,467 1024,288 " />
<polyline fill="none" vector-effect="none" points="147,440.806 155.77,440.806 " />
<polyline fill="none" vector-effect="none" points="1015.23,440.806 1024,440.806 " />
<polyline fill="none" vector-effect="none" points="147,404.638 155.77,404.638 " />
<polyline fill="none" vector-effect="none" points="1015.23,404.638 1024,404.638 " />
<polyline fill="none" vector-effect="none" points="147,368.471 155.77,368.471 " />
<polyline fill="none" vector-effect="none" points="1015.23,368.471 1024,368.471 " />
<polyline fill="none" vector-effect="none" points="147,332.304 155.77,332.304 " />
<polyline fill="none" vector-effect="none" points="1015.23,332.304 1024,332.304 " />
<polyline fill="none" vector-effect="none" points="147,296.136 155.77,296.136 " />
<polyline fill="none" vector-effect="none" points="1015.23,296.136 1024,296.136 " />
</g>

<g fill="#212121" fill-opacity="1" stroke="#212121" stroke-opacity="1" stroke-width="1" stroke-linecap="square" stroke-linejoin="bevel" transform="matrix(0.749703,0,0,0.749987,14.4948,316.705)"
font-family="Helvetica" font-size="12" font-weight="400" font-style="normal" 
>
<text fill="#212121" fill-opacity="1" stroke="none" xml:space="preserve" x="0" y="0" font-family="Helvetica" font-size="12" font-weight="400" font-style="normal" 
 >-800</text>
</g>

<g fill="#212121" fill-opacity="1" stroke="#212121" stroke-opacity="1" stroke-width="1" stroke-linecap="square" stroke-linejoin="bevel" transform="matrix(0.749703,0,0,0.749987,14.4948,289.58)"
font-family="Helvetica" font-size="12" font-weight="400" font-style="normal" 
>
<text fill="#212121" fill-opacity="1" stroke="none" xml:space="preserve" x="0" y="0" font-family="Helvetica" font-size="12" font-weight="400" font-style="normal" 
 >-600</text>
</g>

<g fill="#212121" fill-opacity="1" stroke="#212121" stroke-opacity="1" stroke-width="1" stroke-linecap="square" stroke-linejoin="bevel" transform="matrix(0.749703,0,0,0.749987,14.4948,262.455)"
font-family="Helvetica" font-size="12" font-weight="400" font-style="normal" 
>
<text fill="#212121" fill-opacity="1" stroke="none" xml:space="preserve" x="0" y="0" font-family="Helvetica" font-size="12" font-weight="400" font-style="normal" 
 >-400</text>
</g>

<g fill="#212121" fill-opacity="1" stroke="#212121" stroke-opacity="1" stroke-width="1" stroke-linecap="square" stroke-linejoin="bevel" transform="matrix(0.749703,0,0,0.749987,14.4948,235.33)"
font-family="Helvetica" font-size="12" font-weight="400" font-style="normal" 
>
<text fill="#212121" fill-opacity="1" stroke="none" xml:space="preserve" x="0" y="0" font-family="Helvetica" font-size="12" font-weight="400" font-style="normal" 
 >-200</text>
</g>

<g fill="#212121" fill-opacity="1" stroke="#212121" stroke-opacity="1" stroke-width="1" stroke-linecap="square" stroke-linejoin="bevel" transform="matrix(0.749703,0,0,0.749987,27.2398,208.205)"
font-family="Helvetica" font-size="12" font-weight="400" font-style="normal" 
>
<text fill="#212121" fill-opacity="1" stroke="none" xml:space="preserve" x="0" y="0" font-family="Helvetica" font-size="12" font-weight="400" font-style="normal" 
 >0</text>
</g>

<g fill="#212121" fill-opacity="1" stroke="#212121" stroke-opacity="1" stroke-width="1" stroke-linecap="square" stroke-linejoin="bevel" transform="matrix(0.749703,0,0,0.749987,350.387,194.893)"
font-family="Helvetica" font-size="13" font-weight="700" font-style="normal" 
>
<text fill="#212121" fill-opacity="1" stroke="none" xml:space="preserve" x="0" y="0" font-family="Helvetica" font-size="13" font-weight="700" font-style="normal" 
 >Phase</text>
</g>

<g fill="none" stroke="#1171be" stroke-opacity="1" stroke-width="0.666667" stroke-linecap="butt" stroke-linejoin="round" transform="matrix(0.749703,0,0,0.749987,-74.3199,-16.8934)"
font-family="Helvetica" font-size="13" font-weight="700" font-style="normal" 
>
<polyline fill="none" vector-effect="none" points="147,296.136 147.428,296.236 147.856,296.336 148.285,296.435 148.713,296.535 149.141,296.635 149.569,296.735 149.998,296.834 150.426,296.934 150.854,297.034 151.282,297.133 151.71,297.233 152.139,297.333 152.567,297.433 152.995,297.532 153.423,297.632 153.852,297.732 154.28,297.832 154.708,297.931 155.136,298.031 155.564,298.131 155.993,298.23 156.421,298.33 156.849,298.43 157.277,298.53 157.706,298.63 158.134,298.729 158.562,298.829 158.99,298.929 159.418,299.029 159.847,299.129 160.275,299.228 160.703,299.328 161.131,299.428 161.56,299.528 161.988,299.628 162.416,299.728 162.844,299.828 163.272,299.928 163.701,300.027 164.129,300.127 164.557,300.227 164.985,300.327 165.414,300.427 165.842,300.527 166.27,300.627 166.698,300.727 167.126,300.827 167.555,300.927 167.983,301.027 168.411,301.127 168.839,301.227 169.268,301.327 169.696,301.427 170.124,301.527 170.552,301.628 170.98,301.728 171.409,301.828 171.837,301.928 172.265,302.028 172.693,302.128 173.122,302.229 173.55,302.329 173.978,302.429 174.406,302.529 174.834,302.629 175.263,302.73 175.691,302.83 176.119,302.93 176.547,303.031 176.976,303.131 177.404,303.232 177.832,303.332 178.26,303.432 178.688,303.533 179.117,303.633 179.545,303.734 179.973,303.834 180.401,303.935 180.83,304.035 181.258,304.136 181.686,304.237 182.114,304.337 182.542,304.438 182.971,304.538 183.399,304.639 183.827,304.74 184.255,304.841 184.684,304.941 185.112,305.042 185.54,305.143 185.968,305.244 186.396,305.345 186.825,305.445 187.253,305.546 187.681,305.647 188.109,305.748 188.538,305.849 188.966,305.95 189.394,306.051 189.822,306.152 190.25,306.254 190.679,306.355 191.107,306.456 191.535,306.557 191.963,306.658 192.392,306.759 192.82,306.861 193.248,306.962 193.676,307.063 194.104,307.165 194.533,307.266 194.961,307.368 195.389,307.469 195.817,307.571 196.246,307.672 196.674,307.774 197.102,307.875 197.53,307.977 197.958,308.079 198.387,308.18 198.815,308.282 199.243,308.384 199.671,308.486 200.1,308.587 200.528,308.689 200.956,308.791 201.384,308.893 201.813,308.995 202.241,309.097 202.669,309.199 203.097,309.301 203.525,309.403 203.954,309.505 204.382,309.608 204.81,309.71 205.238,309.812 205.667,309.915 206.095,310.017 206.523,310.119 206.951,310.222 207.379,310.324 207.808,310.427 208.236,310.529 208.664,310.632 209.092,310.735 209.521,310.837 209.949,310.94 210.377,311.043 210.805,311.146 211.233,311.248 211.662,311.351 212.09,311.454 212.518,311.557 212.946,311.66 213.375,311.763 213.803,311.867 214.231,311.97 214.659,312.073 215.087,312.176 215.516,312.28 215.944,312.383 216.372,312.486 216.8,312.59 217.229,312.693 217.657,312.797 218.085,312.9 218.513,313.004 218.941,313.108 219.37,313.212 219.798,313.315 220.226,313.419 220.654,313.523 221.083,313.627 221.511,313.731 221.939,313.835 222.367,313.939 222.795,314.044 223.224,314.148 223.652,314.252 224.08,314.356 224.508,314.461 224.937,314.565 225.365,314.67 225.793,314.774 226.221,314.879 226.649,314.984 227.078,315.088 227.506,315.193 227.934,315.298 228.362,315.403 228.791,315.508 229.219,315.613 229.647,315.718 230.075,315.823 230.503,315.928 230.932,316.033 231.36,316.139 231.788,316.244 232.216,316.35 232.645,316.455 233.073,316.561 233.501,316.666 233.929,316.772 234.357,316.878 234.786,316.983 235.214,317.089 235.642,317.195 236.07,317.301 236.499,317.407 236.927,317.514 237.355,317.62 237.783,317.726 238.211,317.832 238.64,317.939 239.068,318.045 239.496,318.152 239.924,318.258 240.353,318.365 240.781,318.472 241.209,318.579 241.637,318.686 242.065,318.793 242.494,318.9 242.922,319.007 243.35,319.114 243.778,319.221 244.207,319.328 244.635,319.436 245.063,319.543 245.491,319.651 245.919,319.758 246.348,319.866 246.776,319.974 247.204,320.082 247.632,320.19 248.061,320.298 248.489,320.406 248.917,320.514 249.345,320.622 249.773,320.731 250.202,320.839 250.63,320.947 251.058,321.056 251.486,321.165 251.915,321.273 252.343,321.382 252.771,321.491 253.199,321.6 253.627,321.709 254.056,321.818 254.484,321.927 254.912,322.037 255.34,322.146 255.769,322.256 256.197,322.365 256.625,322.475 257.053,322.585 257.481,322.694 257.91,322.804 258.338,322.914 258.766,323.024 259.194,323.135 259.623,323.245 260.051,323.355 260.479,323.466 260.907,323.576 261.335,323.687 261.764,323.798 262.192,323.908 262.62,324.019 263.048,324.13 263.477,324.242 263.905,324.353 264.333,324.464 264.761,324.575 265.189,324.687 265.618,324.799 266.046,324.91 266.474,325.022 266.902,325.134 267.331,325.246 267.759,325.358 268.187,325.47 268.615,325.583 269.043,325.695 269.472,325.808 269.9,325.92 270.328,326.033 270.756,326.146 271.185,326.259 271.613,326.372 272.041,326.485 272.469,326.598 272.897,326.711 273.326,326.825 273.754,326.939 274.182,327.052 274.61,327.166 275.039,327.28 275.467,327.394 275.895,327.508 276.323,327.622 276.751,327.737 277.18,327.851 277.608,327.966 278.036,328.081 278.464,328.195 278.893,328.31 279.321,328.425 279.749,328.541 280.177,328.656 280.605,328.771 281.034,328.887 281.462,329.003 281.89,329.118 282.318,329.234 282.747,329.35 283.175,329.467 283.603,329.583 284.031,329.699 284.459,329.816 284.888,329.932 285.316,330.049 285.744,330.166 286.172,330.283 286.601,330.401 287.029,330.518 287.457,330.635 287.885,330.753 288.313,330.871 288.742,330.989 289.17,331.107 289.598,331.225 290.026,331.343 290.455,331.461 290.883,331.58 291.311,331.699 291.739,331.817 292.167,331.936 292.596,332.056 293.024,332.175 293.452,332.294 293.88,332.414 294.309,332.533 294.737,332.653 295.165,332.773 295.593,332.893 296.021,333.014 296.45,333.134 296.878,333.255 297.306,333.376 297.734,333.496 298.163,333.618 298.591,333.739 299.019,333.86 299.447,333.982 299.875,334.103 300.304,334.225 300.732,334.347 301.16,334.469 301.588,334.592 302.017,334.714 302.445,334.837 302.873,334.96 303.301,335.083 303.729,335.206 304.158,335.329 304.586,335.453 305.014,335.576 305.442,335.7 305.871,335.824 306.299,335.948 306.727,336.073 307.155,336.197 307.583,336.322 308.012,336.447 308.44,336.572 308.868,336.697 309.296,336.823 309.725,336.949 310.153,337.074 310.581,337.2 311.009,337.327 311.438,337.453 311.866,337.58 312.294,337.706 312.722,337.833 313.15,337.96 313.579,338.088 314.007,338.215 314.435,338.343 314.863,338.471 315.292,338.599 315.72,338.728 316.148,338.856 316.576,338.985 317.004,339.114 317.433,339.243 317.861,339.373 318.289,339.502 318.717,339.632 319.146,339.762 319.574,339.892 320.002,340.023 320.43,340.154 320.858,340.284 321.287,340.416 321.715,340.547 322.143,340.679 322.571,340.81 323,340.942 323.428,341.075 323.856,341.207 324.284,341.34 324.712,341.473 325.141,341.606 325.569,341.74 325.997,341.874 326.425,342.008 326.854,342.142 327.282,342.276 327.71,342.411 328.138,342.546 328.566,342.681 328.995,342.817 329.423,342.952 329.851,343.088 330.279,343.225 330.708,343.361 331.136,343.498 331.564,343.635 331.992,343.772 332.42,343.91 332.849,344.048 333.277,344.186 333.705,344.325 334.133,344.464 334.562,344.603 334.99,344.742 335.418,344.882 335.846,345.021 336.274,345.162 336.703,345.302 337.131,345.443 337.559,345.584 337.987,345.726 338.416,345.867 338.844,346.009 339.272,346.152 339.7,346.295 340.128,346.438 340.557,346.581 340.985,346.725 341.413,346.869 341.841,347.013 342.27,347.158 342.698,347.303 343.126,347.448 343.554,347.594 343.982,347.74 344.411,347.887 344.839,348.033 345.267,348.181 345.695,348.328 346.124,348.476 346.552,348.624 346.98,348.773 347.408,348.922 347.836,349.072 348.265,349.221 348.693,349.372 349.121,349.522 349.549,349.673 349.978,349.825 350.406,349.977 350.834,350.129 351.262,350.282 351.69,350.435 352.119,350.588 352.547,350.742 352.975,350.897 353.403,351.052 353.832,351.207 354.26,351.363 354.688,351.519 355.116,351.676 355.544,351.833 355.973,351.99 356.401,352.148 356.829,352.307 357.257,352.466 357.686,352.626 358.114,352.786 358.542,352.947 358.97,353.108 359.398,353.269 359.827,353.432 360.255,353.594 360.683,353.757 361.111,353.921 361.54,354.086 361.968,354.25 362.396,354.416 362.824,354.582 363.252,354.749 363.681,354.916 364.109,355.084 364.537,355.252 364.965,355.421 365.394,355.591 365.822,355.761 366.25,355.932 366.678,356.103 367.106,356.275 367.535,356.448 367.963,356.621 368.391,356.795 368.819,356.97 369.248,357.146 369.676,357.322 370.104,357.499 370.532,357.676 370.96,357.854 371.389,358.033 371.817,358.213 372.245,358.393 372.673,358.574 373.102,358.756 373.53,358.939 373.958,359.122 374.386,359.306 374.814,359.491 375.243,359.677 375.671,359.864 376.099,360.051 376.527,360.239 376.956,360.428 377.384,360.618 377.812,360.808 378.24,361 378.668,361.192 379.097,361.385 379.525,361.579 379.953,361.774 380.381,361.97 380.81,362.166 381.238,362.364 381.666,362.562 382.094,362.761 382.522,362.962 382.951,363.163 383.379,363.365 383.807,363.567 384.235,363.771 384.664,363.976 385.092,364.182 385.52,364.388 385.948,364.596 386.376,364.804 386.805,365.013 387.233,365.224 387.661,365.435 388.089,365.647 388.518,365.86 388.946,366.074 389.374,366.289 389.802,366.505 390.23,366.721 390.659,366.939 391.087,367.158 391.515,367.377 391.943,367.597 392.372,367.819 392.8,368.041 393.228,368.264 393.656,368.487 394.084,368.712 394.513,368.938 394.941,369.164 395.369,369.391 395.797,369.619 396.226,369.847 396.654,370.077 397.082,370.307 397.51,370.538 397.938,370.769 398.367,371.001 398.795,371.234 399.223,371.468 399.651,371.702 400.08,371.936 400.508,372.171 400.936,372.407 401.364,372.643 401.792,372.88 402.221,373.117 402.649,373.354 403.077,373.592 403.505,373.83 403.934,374.068 404.362,374.307 404.79,374.546 405.218,374.785 405.646,375.024 406.075,375.264 406.503,375.503 406.931,375.743 407.359,375.982 407.788,376.222 408.216,376.461 408.644,376.7 409.072,376.94 409.5,377.179 409.929,377.417 410.357,377.656 410.785,377.894 411.213,378.132 411.642,378.37 412.07,378.607 412.498,378.844 412.926,379.08 413.354,379.316 413.783,379.551 414.211,379.786 414.639,380.02 415.067,380.253 415.496,380.486 415.924,380.718 416.352,380.949 416.78,381.18 417.208,381.41 417.637,381.639 418.065,381.867 418.493,382.094 418.921,382.321 419.35,382.546 419.778,382.771 420.206,382.995 420.634,383.217 421.063,383.439 421.491,383.66 421.919,383.88 422.347,384.098 422.775,384.316 423.204,384.532 423.632,384.748 424.06,384.962 424.488,385.176 424.917,385.388 425.345,385.599 425.773,385.809 426.201,386.018 426.629,386.226 427.058,386.432 427.486,386.638 427.914,386.842 428.342,387.045 428.771,387.247 429.199,387.448 429.627,387.648 430.055,387.846 430.483,388.044 430.912,388.24 431.34,388.435 431.768,388.629 432.196,388.822 432.625,389.014 433.053,389.204 433.481,389.394 433.909,389.582 434.337,389.769 434.766,389.955 435.194,390.14 435.622,390.324 436.05,390.507 436.479,390.688 436.907,390.869 437.335,391.049 437.763,391.227 438.191,391.404 438.62,391.581 439.048,391.756 439.476,391.93 439.904,392.103 440.333,392.275 440.761,392.447 441.189,392.617 441.617,392.786 442.045,392.954 442.474,393.121 442.902,393.287 443.33,393.452 443.758,393.617 444.187,393.78 444.615,393.942 445.043,394.104 445.471,394.264 445.899,394.424 446.328,394.583 446.756,394.74 447.184,394.897 447.612,395.053 448.041,395.209 448.469,395.363 448.897,395.516 449.325,395.669 449.753,395.821 450.182,395.972 450.61,396.122 451.038,396.271 451.466,396.42 451.895,396.567 452.323,396.714 452.751,396.861 453.179,397.006 453.607,397.151 454.036,397.295 454.464,397.438 454.892,397.58 455.32,397.722 455.749,397.863 456.177,398.003 456.605,398.142 457.033,398.281 457.461,398.419 457.89,398.557 458.318,398.694 458.746,398.83 459.174,398.965 459.603,399.1 460.031,399.234 460.459,399.368 460.887,399.5 461.315,399.633 461.744,399.764 462.172,399.895 462.6,400.026 463.028,400.155 463.457,400.284 463.885,400.413 464.313,400.541 464.741,400.668 465.169,400.795 465.598,400.921 466.026,401.047 466.454,401.172 466.882,401.297 467.311,401.42 467.739,401.544 468.167,401.667 468.595,401.789 469.023,401.911 469.452,402.032 469.88,402.153 470.308,402.273 470.736,402.393 471.165,402.512 471.593,402.631 472.021,402.749 472.449,402.867 472.877,402.984 473.306,403.101 473.734,403.217 474.162,403.333 474.59,403.448 475.019,403.563 475.447,403.678 475.875,403.792 476.303,403.905 476.731,404.018 477.16,404.131 477.588,404.243 478.016,404.355 478.444,404.466 478.873,404.577 479.301,404.687 479.729,404.797 480.157,404.907 480.585,405.016 481.014,405.125 481.442,405.233 481.87,405.341 482.298,405.449 482.727,405.556 483.155,405.663 483.583,405.769 484.011,405.875 484.439,405.98 484.868,406.086 485.296,406.19 485.724,406.295 486.152,406.399 486.581,406.502 487.009,406.606 487.437,406.709 487.865,406.811 488.293,406.913 488.722,407.015 489.15,407.117 489.578,407.218 490.006,407.319 490.435,407.419 490.863,407.519 491.291,407.619 491.719,407.718 492.147,407.817 492.576,407.916 493.004,408.014 493.432,408.113 493.86,408.21 494.289,408.308 494.717,408.405 495.145,408.502 495.573,408.598 496.001,408.694 496.43,408.79 496.858,408.885 497.286,408.981 497.714,409.075 498.143,409.17 498.571,409.264 498.999,409.358 499.427,409.452 499.855,409.545 500.284,409.638 500.712,409.731 501.14,409.824 501.568,409.916 501.997,410.008 502.425,410.099 502.853,410.191 503.281,410.282 503.709,410.373 504.138,410.463 504.566,410.553 504.994,410.643 505.422,410.733 505.851,410.822 506.279,410.911 506.707,411 507.135,411.089 507.563,411.177 507.992,411.265 508.42,411.353 508.848,411.441 509.276,411.528 509.705,411.615 510.133,411.702 510.561,411.788 510.989,411.874 511.417,411.96 511.846,412.046 512.274,412.132 512.702,412.217 513.13,412.302 513.559,412.387 513.987,412.471 514.415,412.556 514.843,412.64 515.271,412.724 515.7,412.807 516.128,412.89 516.556,412.974 516.984,413.056 517.413,413.139 517.841,413.222 518.269,413.304 518.697,413.386 519.125,413.467 519.554,413.549 519.982,413.63 520.41,413.711 520.838,413.792 521.267,413.873 521.695,413.953 522.123,414.033 522.551,414.113 522.979,414.193 523.408,414.273 523.836,414.352 524.264,414.431 524.692,414.51 525.121,414.589 525.549,414.667 525.977,414.746 526.405,414.824 526.833,414.902 527.262,414.979 527.69,415.057 528.118,415.134 528.546,415.211 528.975,415.288 529.403,415.365 529.831,415.441 530.259,415.518 530.688,415.594 531.116,415.67 531.544,415.745 531.972,415.821 532.4,415.896 532.829,415.971 533.257,416.046 533.685,416.121 534.113,416.196 534.542,416.27 534.97,416.344 535.398,416.418 535.826,416.492 536.254,416.566 536.683,416.639 537.111,416.712 537.539,416.786 537.967,416.858 538.396,416.931 538.824,417.004 539.252,417.076 539.68,417.148 540.108,417.221 540.537,417.292 540.965,417.364 541.393,417.436 541.821,417.507 542.25,417.578 542.678,417.649 543.106,417.72 543.534,417.791 543.962,417.861 544.391,417.932 544.819,418.002 545.247,418.072 545.675,418.142 546.104,418.212 546.532,418.281 546.96,418.35 547.388,418.42 547.816,418.489 548.245,418.558 548.673,418.626 549.101,418.695 549.529,418.763 549.958,418.832 550.386,418.9 550.814,418.968 551.242,419.036 551.67,419.103 552.099,419.171 552.527,419.238 552.955,419.305 553.383,419.372 553.812,419.439 554.24,419.506 554.668,419.573 555.096,419.639 555.524,419.705 555.953,419.771 556.381,419.837 556.809,419.903 557.237,419.969 557.666,420.035 558.094,420.1 558.522,420.165 558.95,420.231 559.378,420.296 559.807,420.36 560.235,420.425 560.663,420.49 561.091,420.554 561.52,420.619 561.948,420.683 562.376,420.747 562.804,420.811 563.232,420.874 563.661,420.938 564.089,421.002 564.517,421.065 564.945,421.128 565.374,421.191 565.802,421.254 566.23,421.317 566.658,421.38 567.086,421.442 567.515,421.505 567.943,421.567 568.371,421.629 568.799,421.691 569.228,421.753 569.656,421.815 570.084,421.877 570.512,421.938 570.94,422 571.369,422.061 571.797,422.122 572.225,422.183 572.653,422.244 573.082,422.305 573.51,422.366 573.938,422.426 574.366,422.487 574.794,422.547 575.223,422.607 575.651,422.667 576.079,422.727 576.507,422.787 576.936,422.847 577.364,422.906 577.792,422.966 578.22,423.025 578.648,423.084 579.077,423.143 579.505,423.202 579.933,423.261 580.361,423.32 580.79,423.379 581.218,423.437 581.646,423.496 582.074,423.554 582.502,423.612 582.931,423.67 583.359,423.728 583.787,423.786 584.215,423.844 584.644,423.902 585.072,423.959 585.5,424.017 585.928,424.074 586.356,424.131 586.785,424.188 587.213,424.245 587.641,424.302 588.069,424.359 588.498,424.416 588.926,424.472 589.354,424.529 589.782,424.585 590.21,424.641 590.639,424.698 591.067,424.754 591.495,424.81 591.923,424.865 592.352,424.921 592.78,424.977 593.208,425.032 593.636,425.088 594.064,425.143 594.493,425.198 594.921,425.253 595.349,425.308 595.777,425.363 596.206,425.418 596.634,425.473 597.062,425.528 597.49,425.582 597.918,425.637 598.347,425.691 598.775,425.745 599.203,425.799 599.631,425.853 600.06,425.907 600.488,425.961 600.916,426.015 601.344,426.069 601.772,426.122 602.201,426.176 602.629,426.229 603.057,426.282 603.485,426.335 603.914,426.389 604.342,426.442 604.77,426.495 605.198,426.547 605.626,426.6 606.055,426.653 606.483,426.705 606.911,426.758 607.339,426.81 607.768,426.862 608.196,426.915 608.624,426.967 609.052,427.019 609.48,427.071 609.909,427.122 610.337,427.174 610.765,427.226 611.193,427.277 611.622,427.329 612.05,427.38 612.478,427.432 612.906,427.483 613.334,427.534 613.763,427.585 614.191,427.636 614.619,427.687 615.047,427.738 615.476,427.788 615.904,427.839 616.332,427.89 616.76,427.94 617.188,427.99 617.617,428.041 618.045,428.091 618.473,428.141 618.901,428.191 619.33,428.241 619.758,428.291 620.186,428.341 620.614,428.391 621.042,428.44 621.471,428.49 621.899,428.539 622.327,428.589 622.755,428.638 623.184,428.687 623.612,428.737 624.04,428.786 624.468,428.835 624.896,428.884 625.325,428.932 625.753,428.981 626.181,429.03 626.609,429.079 627.038,429.127 627.466,429.176 627.894,429.224 628.322,429.272 628.75,429.321 629.179,429.369 629.607,429.417 630.035,429.465 630.463,429.513 630.892,429.561 631.32,429.608 631.748,429.656 632.176,429.704 632.604,429.751 633.033,429.799 633.461,429.846 633.889,429.894 634.317,429.941 634.746,429.988 635.174,430.035 635.602,430.082 636.03,430.129 636.458,430.176 636.887,430.223 637.315,430.27 637.743,430.317 638.171,430.363 638.6,430.41 639.028,430.457 639.456,430.503 639.884,430.549 640.313,430.596 640.741,430.642 641.169,430.688 641.597,430.734 642.025,430.78 642.454,430.826 642.882,430.872 643.31,430.918 643.738,430.964 644.167,431.009 644.595,431.055 645.023,431.1 645.451,431.146 645.879,431.191 646.308,431.237 646.736,431.282 647.164,431.327 647.592,431.372 648.021,431.418 648.449,431.463 648.877,431.508 649.305,431.552 649.733,431.597 650.162,431.642 650.59,431.687 651.018,431.731 651.446,431.776 651.875,431.821 652.303,431.865 652.731,431.909 653.159,431.954 653.587,431.998 654.016,432.042 654.444,432.086 654.872,432.13 655.3,432.175 655.729,432.218 656.157,432.262 656.585,432.306 657.013,432.35 657.441,432.394 657.87,432.437 658.298,432.481 658.726,432.525 659.154,432.568 659.583,432.611 660.011,432.655 660.439,432.698 660.867,432.741 661.295,432.785 661.724,432.828 662.152,432.871 662.58,432.914 663.008,432.957 663.437,433 663.865,433.042 664.293,433.085 664.721,433.128 665.149,433.171 665.578,433.213 666.006,433.256 666.434,433.298 666.862,433.341 667.291,433.383 667.719,433.425 668.147,433.468 668.575,433.51 669.003,433.552 669.432,433.594 669.86,433.636 670.288,433.678 670.716,433.72 671.145,433.762 671.573,433.804 672.001,433.846 672.429,433.887 672.857,433.929 673.286,433.971 673.714,434.012 674.142,434.054 674.57,434.095 674.999,434.137 675.427,434.178 675.855,434.219 676.283,434.26 676.711,434.302 677.14,434.343 677.568,434.384 677.996,434.425 678.424,434.466 678.853,434.507 679.281,434.548 679.709,434.589 680.137,434.629 680.565,434.67 680.994,434.711 681.422,434.751 681.85,434.792 682.278,434.832 682.707,434.873 683.135,434.913 683.563,434.954 683.991,434.994 684.419,435.034 684.848,435.075 685.276,435.115 685.704,435.155 686.132,435.195 686.561,435.235 686.989,435.275 687.417,435.315 687.845,435.355 688.273,435.395 688.702,435.434 689.13,435.474 689.558,435.514 689.986,435.553 690.415,435.593 690.843,435.633 691.271,435.672 691.699,435.712 692.127,435.751 692.556,435.79 692.984,435.83 693.412,435.869 693.84,435.908 694.269,435.947 694.697,435.986 695.125,436.026 695.553,436.065 695.981,436.104 696.41,436.142 696.838,436.181 697.266,436.22 697.694,436.259 698.123,436.298 698.551,436.337 698.979,436.375 699.407,436.414 699.835,436.452 700.264,436.491 700.692,436.529 701.12,436.568 701.548,436.606 701.977,436.645 702.405,436.683 702.833,436.721 703.261,436.76 703.689,436.798 704.118,436.836 704.546,436.874 704.974,436.912 705.402,436.95 705.831,436.988 706.259,437.026 706.687,437.064 707.115,437.102 707.543,437.139 707.972,437.177 708.4,437.215 708.828,437.253 709.256,437.29 709.685,437.328 710.113,437.365 710.541,437.403 710.969,437.44 711.397,437.478 711.826,437.515 712.254,437.553 712.682,437.59 713.11,437.627 713.539,437.664 713.967,437.702 714.395,437.739 714.823,437.776 715.251,437.813 715.68,437.85 716.108,437.887 716.536,437.924 716.964,437.961 717.393,437.998 717.821,438.034 718.249,438.071 718.677,438.108 719.105,438.145 719.534,438.181 719.962,438.218 720.39,438.255 720.818,438.291 721.247,438.328 721.675,438.364 722.103,438.401 722.531,438.437 722.959,438.473 723.388,438.51 723.816,438.546 724.244,438.582 724.672,438.619 725.101,438.655 725.529,438.691 725.957,438.727 726.385,438.763 726.813,438.799 727.242,438.835 727.67,438.871 728.098,438.907 728.526,438.943 728.955,438.979 729.383,439.014 729.811,439.05 730.239,439.086 730.667,439.122 731.096,439.157 731.524,439.193 731.952,439.229 732.38,439.264 732.809,439.3 733.237,439.335 733.665,439.371 734.093,439.406 734.521,439.441 734.95,439.477 735.378,439.512 735.806,439.547 736.234,439.583 736.663,439.618 737.091,439.653 737.519,439.688 737.947,439.723 738.375,439.758 738.804,439.793 739.232,439.828 739.66,439.863 740.088,439.898 740.517,439.933 740.945,439.968 741.373,440.003 741.801,440.038 742.229,440.072 742.658,440.107 743.086,440.142 743.514,440.177 743.942,440.211 744.371,440.246 744.799,440.28 745.227,440.315 745.655,440.349 746.083,440.384 746.512,440.418 746.94,440.453 747.368,440.487 747.796,440.522 748.225,440.556 748.653,440.59 749.081,440.624 749.509,440.659 749.938,440.693 750.366,440.727 750.794,440.761 751.222,440.795 751.65,440.829 752.079,440.863 752.507,440.897 752.935,440.931 753.363,440.965 753.792,440.999 754.22,441.033 754.648,441.067 755.076,441.101 755.504,441.134 755.933,441.168 756.361,441.202 756.789,441.236 757.217,441.269 757.646,441.303 758.074,441.336 758.502,441.37 758.93,441.404 759.358,441.437 759.787,441.471 760.215,441.504 760.643,441.538 761.071,441.571 761.5,441.604 761.928,441.638 762.356,441.671 762.784,441.704 763.212,441.737 763.641,441.771 764.069,441.804 764.497,441.837 764.925,441.87 765.354,441.903 765.782,441.936 766.21,441.969 766.638,442.002 767.066,442.035 767.495,442.068 767.923,442.101 768.351,442.134 768.779,442.167 769.208,442.2 769.636,442.233 770.064,442.266 770.492,442.298 770.92,442.331 771.349,442.364 771.777,442.397 772.205,442.429 772.633,442.462 773.062,442.495 773.49,442.527 773.918,442.56 774.346,442.592 774.774,442.625 775.203,442.657 775.631,442.69 776.059,442.722 776.487,442.754 776.916,442.787 777.344,442.819 777.772,442.851 778.2,442.884 778.628,442.916 779.057,442.948 779.485,442.98 779.913,443.013 780.341,443.045 780.77,443.077 781.198,443.109 781.626,443.141 782.054,443.173 782.482,443.205 782.911,443.237 783.339,443.269 783.767,443.301 784.195,443.333 784.624,443.365 785.052,443.397 785.48,443.429 785.908,443.461 786.336,443.492 786.765,443.524 787.193,443.556 787.621,443.588 788.049,443.62 788.478,443.651 788.906,443.683 789.334,443.714 789.762,443.746 790.19,443.778 790.619,443.809 791.047,443.841 791.475,443.872 791.903,443.904 792.332,443.935 792.76,443.967 793.188,443.998 793.616,444.03 794.044,444.061 794.473,444.092 794.901,444.124 795.329,444.155 795.757,444.186 796.186,444.217 796.614,444.249 797.042,444.28 797.47,444.311 797.898,444.342 798.327,444.373 798.755,444.405 799.183,444.436 799.611,444.467 800.04,444.498 800.468,444.529 800.896,444.56 801.324,444.591 801.752,444.622 802.181,444.653 802.609,444.684 803.037,444.715 803.465,444.746 803.894,444.776 804.322,444.807 804.75,444.838 805.178,444.869 805.606,444.9 806.035,444.93 806.463,444.961 806.891,444.992 807.319,445.022 807.748,445.053 808.176,445.084 808.604,445.114 809.032,445.145 809.46,445.176 809.889,445.206 810.317,445.237 810.745,445.267 811.173,445.298 811.602,445.328 812.03,445.359 812.458,445.389 812.886,445.419 813.314,445.45 813.743,445.48 814.171,445.511 814.599,445.541 815.027,445.571 815.456,445.602 815.884,445.632 816.312,445.662 816.74,445.692 817.168,445.722 817.597,445.753 818.025,445.783 818.453,445.813 818.881,445.843 819.31,445.873 819.738,445.903 820.166,445.933 820.594,445.963 821.022,445.993 821.451,446.023 821.879,446.053 822.307,446.083 822.735,446.113 823.164,446.143 823.592,446.173 824.02,446.203 824.448,446.233 824.876,446.263 825.305,446.293 825.733,446.323 826.161,446.352 826.589,446.382 827.018,446.412 827.446,446.442 827.874,446.471 828.302,446.501 828.73,446.531 829.159,446.561 829.587,446.59 830.015,446.62 830.443,446.649 830.872,446.679 831.3,446.709 831.728,446.738 832.156,446.768 832.584,446.797 833.013,446.827 833.441,446.856 833.869,446.886 834.297,446.915 834.726,446.945 835.154,446.974 835.582,447.003 836.01,447.033 836.438,447.062 836.867,447.092 837.295,447.121 837.723,447.15 838.151,447.18 838.58,447.209 839.008,447.238 839.436,447.267 839.864,447.297 840.292,447.326 840.721,447.355 841.149,447.384 841.577,447.413 842.005,447.443 842.434,447.472 842.862,447.501 843.29,447.53 843.718,447.559 844.146,447.588 844.575,447.617 845.003,447.646 845.431,447.675 845.859,447.704 846.288,447.733 846.716,447.762 847.144,447.791 847.572,447.82 848,447.849 848.429,447.878 848.857,447.907 849.285,447.936 849.713,447.964 850.142,447.993 850.57,448.022 850.998,448.051 851.426,448.08 851.854,448.108 852.283,448.137 852.711,448.166 853.139,448.195 853.567,448.223 853.996,448.252 854.424,448.281 854.852,448.31 855.28,448.338 855.708,448.367 856.137,448.395 856.565,448.424 856.993,448.453 857.421,448.481 857.85,448.51 858.278,448.538 858.706,448.567 859.134,448.595 859.563,448.624 859.991,448.652 860.419,448.681 860.847,448.709 861.275,448.738 861.704,448.766 862.132,448.795 862.56,448.823 862.988,448.852 863.417,448.88 863.845,448.908 864.273,448.937 864.701,448.965 865.129,448.993 865.558,449.022 865.986,449.05 866.414,449.078 866.842,449.106 867.271,449.135 867.699,449.163 868.127,449.191 868.555,449.219 868.983,449.248 869.412,449.276 869.84,449.304 870.268,449.332 870.696,449.36 871.125,449.388 871.553,449.416 871.981,449.445 872.409,449.473 872.837,449.501 873.266,449.529 873.694,449.557 874.122,449.585 874.55,449.613 874.979,449.641 875.407,449.669 875.835,449.697 876.263,449.725 876.691,449.753 877.12,449.781 877.548,449.809 877.976,449.837 878.404,449.865 878.833,449.892 879.261,449.92 879.689,449.948 880.117,449.976 880.545,450.004 880.974,450.032 881.402,450.06 881.83,450.087 882.258,450.115 882.687,450.143 883.115,450.171 883.543,450.199 883.971,450.226 884.399,450.254 884.828,450.282 885.256,450.31 885.684,450.337 886.112,450.365 886.541,450.393 886.969,450.42 887.397,450.448 887.825,450.476 888.253,450.503 888.682,450.531 889.11,450.558 889.538,450.586 889.966,450.614 890.395,450.641 890.823,450.669 891.251,450.696 891.679,450.724 892.107,450.751 892.536,450.779 892.964,450.806 893.392,450.834 893.82,450.861 894.249,450.889 894.677,450.916 895.105,450.944 895.533,450.971 895.961,450.999 896.39,451.026 896.818,451.054 897.246,451.081 897.674,451.108 898.103,451.136 898.531,451.163 898.959,451.19 899.387,451.218 899.815,451.245 900.244,451.272 900.672,451.3 901.1,451.327 901.528,451.354 901.957,451.382 902.385,451.409 902.813,451.436 903.241,451.464 903.669,451.491 904.098,451.518 904.526,451.545 904.954,451.572 905.382,451.6 905.811,451.627 906.239,451.654 906.667,451.681 907.095,451.708 907.523,451.736 907.952,451.763 908.38,451.79 908.808,451.817 909.236,451.844 909.665,451.871 910.093,451.898 910.521,451.925 910.949,451.952 911.377,451.979 911.806,452.007 912.234,452.034 912.662,452.061 913.09,452.088 913.519,452.115 913.947,452.142 914.375,452.169 914.803,452.196 915.231,452.223 915.66,452.25 916.088,452.277 916.516,452.304 916.944,452.331 917.373,452.358 917.801,452.384 918.229,452.411 918.657,452.438 919.085,452.465 919.514,452.492 919.942,452.519 920.37,452.546 920.798,452.573 921.227,452.6 921.655,452.627 922.083,452.653 922.511,452.68 922.939,452.707 923.368,452.734 923.796,452.761 924.224,452.788 924.652,452.814 925.081,452.841 925.509,452.868 925.937,452.895 926.365,452.921 926.793,452.948 927.222,452.975 927.65,453.002 928.078,453.028 928.506,453.055 928.935,453.082 929.363,453.109 929.791,453.135 930.219,453.162 930.647,453.189 931.076,453.215 931.504,453.242 931.932,453.269 932.36,453.295 932.789,453.322 933.217,453.349 933.645,453.375 934.073,453.402 934.501,453.429 934.93,453.455 935.358,453.482 935.786,453.508 936.214,453.535 936.643,453.562 937.071,453.588 937.499,453.615 937.927,453.641 938.355,453.668 938.784,453.695 939.212,453.721 939.64,453.748 940.068,453.774 940.497,453.801 940.925,453.827 941.353,453.854 941.781,453.88 942.209,453.907 942.638,453.933 943.066,453.96 943.494,453.986 943.922,454.013 944.351,454.039 944.779,454.066 945.207,454.092 945.635,454.119 946.063,454.145 946.492,454.171 946.92,454.198 947.348,454.224 947.776,454.251 948.205,454.277 948.633,454.304 949.061,454.33 949.489,454.356 949.917,454.383 950.346,454.409 950.774,454.435 951.202,454.462 951.63,454.488 952.059,454.515 952.487,454.541 952.915,454.567 953.343,454.594 953.771,454.62 954.2,454.646 954.628,454.673 955.056,454.699 955.484,454.725 955.913,454.752 956.341,454.778 956.769,454.804 957.197,454.83 957.625,454.857 958.054,454.883 958.482,454.909 958.91,454.936 959.338,454.962 959.767,454.988 960.195,455.014 960.623,455.041 961.051,455.067 961.479,455.093 961.908,455.119 962.336,455.146 962.764,455.172 963.192,455.198 963.621,455.224 964.049,455.25 964.477,455.277 964.905,455.303 965.333,455.329 965.762,455.355 966.19,455.382 966.618,455.408 967.046,455.434 967.475,455.46 967.903,455.486 968.331,455.512 968.759,455.539 969.188,455.565 969.616,455.591 970.044,455.617 970.472,455.643 970.9,455.669 971.329,455.695 971.757,455.722 972.185,455.748 972.613,455.774 973.042,455.8 973.47,455.826 973.898,455.852 974.326,455.878 974.754,455.904 975.183,455.931 975.611,455.957 976.039,455.983 976.467,456.009 976.896,456.035 977.324,456.061 977.752,456.087 978.18,456.113 978.608,456.139 979.037,456.165 979.465,456.191 979.893,456.217 980.321,456.243 980.75,456.27 981.178,456.296 981.606,456.322 982.034,456.348 982.462,456.374 982.891,456.4 983.319,456.426 983.747,456.452 984.175,456.478 984.604,456.504 985.032,456.53 985.46,456.556 985.888,456.582 986.316,456.608 986.745,456.634 987.173,456.66 987.601,456.686 988.029,456.712 988.458,456.738 988.886,456.764 989.314,456.79 989.742,456.816 990.17,456.842 990.599,456.868 991.027,456.894 991.455,456.92 991.883,456.946 992.312,456.972 992.74,456.998 993.168,457.024 993.596,457.05 994.024,457.076 994.453,457.102 994.881,457.128 995.309,457.154 995.737,457.18 996.166,457.206 996.594,457.232 997.022,457.257 997.45,457.283 997.878,457.309 998.307,457.335 998.735,457.361 999.163,457.387 999.591,457.413 1000.02,457.439 1000.45,457.465 1000.88,457.491 1001.3,457.517 1001.73,457.543 1002.16,457.569 1002.59,457.595 1003.02,457.621 1003.45,457.646 1003.87,457.672 1004.3,457.698 1004.73,457.724 1005.16,457.75 1005.59,457.776 1006.01,457.802 1006.44,457.828 1006.87,457.854 1007.3,457.88 1007.73,457.906 1008.16,457.932 1008.58,457.957 1009.01,457.983 1009.44,458.009 1009.87,458.035 1010.3,458.061 1010.73,458.087 1011.15,458.113 1011.58,458.139 1012.01,458.165 1012.44,458.191 1012.87,458.216 1013.29,458.242 1013.72,458.268 1014.15,458.294 1014.58,458.32 1015.01,458.346 1015.44,458.372 1015.86,458.398 1016.29,458.424 1016.72,458.449 1017.15,458.475 1017.58,458.501 1018,458.527 1018.43,458.553 1018.86,458.579 1019.29,458.605 1019.72,458.631 1020.15,458.657 1020.57,458.682 1021,458.708 1021.43,458.734 1021.86,458.76 1022.29,458.786 1022.72,458.812 1023.14,458.838 1023.57,458.864 " />
</g>

<g fill="#ffffff" fill-opacity="1" stroke="none" transform="matrix(7.49703e-05,0,0,7.49987e-05,-74.3199,-16.8934)"
font-family="Helvetica" font-size="13" font-weight="700" font-style="normal" 
>
<path vector-effect="none" fill-rule="evenodd" d="M1.47e+06,390000 L1.47e+06,2.18e+06 L1.024e+07,2.18e+06 L1.024e+07,390000 L1.47e+06,390000"/>
</g>

<g fill="#212121" fill-opacity="0.14902" stroke="#212121" stroke-opacity="0.14902" stroke-width="0.666667" stroke-linecap="butt" stroke-linejoin="round" transform="matrix(0.749703,0,0,0.749987,-74.3199,-16.8934)"
font-family="Helvetica" font-size="13" font-weight="700" font-style="normal" 
>
<polyline fill="none" vector-effect="none" points="147,39 147,218 " />
<polyline fill="none" vector-effect="none" points="256.625,39 256.625,218 " />
<polyline fill="none" vector-effect="none" points="366.25,39 366.25,218 " />
<polyline fill="none" vector-effect="none" points="475.875,39 475.875,218 " />
<polyline fill="none" vector-effect="none" points="585.5,39 585.5,218 " />
<polyline fill="none" vector-effect="none" points="695.125,39 695.125,218 " />
<polyline fill="none" vector-effect="none" points="804.75,39 804.75,218 " />
<polyline fill="none" vector-effect="none" points="914.375,39 914.375,218 " />
<polyline fill="none" vector-effect="none" points="1024,39 1024,218 " />
<polyline fill="none" vector-effect="none" points="147,196.612 1024,196.612 " />
<polyline fill="none" vector-effect="none" points="147,167.473 1024,167.473 " />
<polyline fill="none" vector-effect="none" points="147,138.334 1024,138.334 " />
<polyline fill="none" vector-effect="none" points="147,109.195 1024,109.195 " />
<polyline fill="none" vector-effect="none" points="147,80.056 1024,80.056 " />
<polyline fill="none" vector-effect="none" points="147,50.9169 1024,50.9169 " />
</g>

<g fill="#212121" fill-opacity="1" stroke="#212121" stroke-opacity="1" stroke-width="1" stroke-linecap="square" stroke-linejoin="bevel" transform="matrix(0.749703,0,0,0.749987,328.645,169.403)"
font-family="Helvetica" font-size="13" font-weight="400" font-style="normal" 
>
<text fill="#212121" fill-opacity="1" stroke="none" xml:space="preserve" x="0" y="0" font-family="Helvetica" font-size="13" font-weight="400" font-style="normal" 
 >Frequency (kHz)</text>
</g>

<g fill="#212121" fill-opacity="1" stroke="#212121" stroke-opacity="1" stroke-width="0.666667" stroke-linecap="square" stroke-linejoin="round" transform="matrix(0.749703,0,0,0.749987,-74.3199,-16.8934)"
font-family="Helvetica" font-size="13" font-weight="400" font-style="normal" 
>
<polyline fill="none" vector-effect="none" points="147,218 1024,218 " />
<polyline fill="none" vector-effect="none" points="147,39 1024,39 " />
<polyline fill="none" vector-effect="none" points="147,218 147,209.23 " />
<polyline fill="none" vector-effect="none" points="147,47.77 147,39 " />
<polyline fill="none" vector-effect="none" points="256.625,218 256.625,209.23 " />
<polyline fill="none" vector-effect="none" points="256.625,47.77 256.625,39 " />
<polyline fill="none" vector-effect="none" points="366.25,218 366.25,209.23 " />
<polyline fill="none" vector-effect="none" points="366.25,47.77 366.25,39 " />
<polyline fill="none" vector-effect="none" points="475.875,218 475.875,209.23 " />
<polyline fill="none" vector-effect="none" points="475.875,47.77 475.875,39 " />
<polyline fill="none" vector-effect="none" points="585.5,218 585.5,209.23 " />
<polyline fill="none" vector-effect="none" points="585.5,47.77 585.5,39 " />
<polyline fill="none" vector-effect="none" points="695.125,218 695.125,209.23 " />
<polyline fill="none" vector-effect="none" points="695.125,47.77 695.125,39 " />
<polyline fill="none" vector-effect="none" points="804.75,218 804.75,209.23 " />
<polyline fill="none" vector-effect="none" points="804.75,47.77 804.75,39 " />
<polyline fill="none" vector-effect="none" points="914.375,218 914.375,209.23 " />
<polyline fill="none" vector-effect="none" points="914.375,47.77 914.375,39 " />
<polyline fill="none" vector-effect="none" points="1024,218 1024,209.23 " />
<polyline fill="none" vector-effect="none" points="1024,47.77 1024,39 " />
</g>

<g fill="#212121" fill-opacity="1" stroke="#212121" stroke-opacity="1" stroke-width="1" stroke-linecap="square" stroke-linejoin="bevel" transform="matrix(0.749703,0,0,0.749987,33.2624,157.654)"
font-family="Helvetica" font-size="12" font-weight="400" font-style="normal" 
>
<text fill="#212121" fill-opacity="1" stroke="none" xml:space="preserve" x="0" y="0" font-family="Helvetica" font-size="12" font-weight="400" font-style="normal" 
 >0</text>
</g>

<g fill="#212121" fill-opacity="1" stroke="#212121" stroke-opacity="1" stroke-width="1" stroke-linecap="square" stroke-linejoin="bevel" transform="matrix(0.749703,0,0,0.749987,111.7,157.654)"
font-family="Helvetica" font-size="12" font-weight="400" font-style="normal" 
>
<text fill="#212121" fill-opacity="1" stroke="none" xml:space="preserve" x="0" y="0" font-family="Helvetica" font-size="12" font-weight="400" font-style="normal" 
 >0.5</text>
</g>

<g fill="#212121" fill-opacity="1" stroke="#212121" stroke-opacity="1" stroke-width="1" stroke-linecap="square" stroke-linejoin="bevel" transform="matrix(0.749703,0,0,0.749987,197.635,157.654)"
font-family="Helvetica" font-size="12" font-weight="400" font-style="normal" 
>
<text fill="#212121" fill-opacity="1" stroke="none" xml:space="preserve" x="0" y="0" font-family="Helvetica" font-size="12" font-weight="400" font-style="normal" 
 >1</text>
</g>

<g fill="#212121" fill-opacity="1" stroke="#212121" stroke-opacity="1" stroke-width="1" stroke-linecap="square" stroke-linejoin="bevel" transform="matrix(0.749703,0,0,0.749987,276.072,157.654)"
font-family="Helvetica" font-size="12" font-weight="400" font-style="normal" 
>
<text fill="#212121" fill-opacity="1" stroke="none" xml:space="preserve" x="0" y="0" font-family="Helvetica" font-size="12" font-weight="400" font-style="normal" 
 >1.5</text>
</g>

<g fill="#212121" fill-opacity="1" stroke="#212121" stroke-opacity="1" stroke-width="1" stroke-linecap="square" stroke-linejoin="bevel" transform="matrix(0.749703,0,0,0.749987,362.007,157.654)"
font-family="Helvetica" font-size="12" font-weight="400" font-style="normal" 
>
<text fill="#212121" fill-opacity="1" stroke="none" xml:space="preserve" x="0" y="0" font-family="Helvetica" font-size="12" font-weight="400" font-style="normal" 
 >2</text>
</g>

<g fill="#212121" fill-opacity="1" stroke="#212121" stroke-opacity="1" stroke-width="1" stroke-linecap="square" stroke-linejoin="bevel" transform="matrix(0.749703,0,0,0.749987,440.445,157.654)"
font-family="Helvetica" font-size="12" font-weight="400" font-style="normal" 
>
<text fill="#212121" fill-opacity="1" stroke="none" xml:space="preserve" x="0" y="0" font-family="Helvetica" font-size="12" font-weight="400" font-style="normal" 
 >2.5</text>
</g>

<g fill="#212121" fill-opacity="1" stroke="#212121" stroke-opacity="1" stroke-width="1" stroke-linecap="square" stroke-linejoin="bevel" transform="matrix(0.749703,0,0,0.749987,526.379,157.654)"
font-family="Helvetica" font-size="12" font-weight="400" font-style="normal" 
>
<text fill="#212121" fill-opacity="1" stroke="none" xml:space="preserve" x="0" y="0" font-family="Helvetica" font-size="12" font-weight="400" font-style="normal" 
 >3</text>
</g>

<g fill="#212121" fill-opacity="1" stroke="#212121" stroke-opacity="1" stroke-width="1" stroke-linecap="square" stroke-linejoin="bevel" transform="matrix(0.749703,0,0,0.749987,604.817,157.654)"
font-family="Helvetica" font-size="12" font-weight="400" font-style="normal" 
>
<text fill="#212121" fill-opacity="1" stroke="none" xml:space="preserve" x="0" y="0" font-family="Helvetica" font-size="12" font-weight="400" font-style="normal" 
 >3.5</text>
</g>

<g fill="#212121" fill-opacity="1" stroke="#212121" stroke-opacity="1" stroke-width="1" stroke-linecap="square" stroke-linejoin="bevel" transform="matrix(0.749703,0,0,0.749987,690.752,157.654)"
font-family="Helvetica" font-size="12" font-weight="400" font-style="normal" 
>
<text fill="#212121" fill-opacity="1" stroke="none" xml:space="preserve" x="0" y="0" font-family="Helvetica" font-size="12" font-weight="400" font-style="normal" 
 >4</text>
</g>

<g fill="#212121" fill-opacity="1" stroke="#212121" stroke-opacity="1" stroke-width="1" stroke-linecap="square" stroke-linejoin="bevel" transform="matrix(0,-0.749987,0.749703,0,10.0966,112.854)"
font-family="Helvetica" font-size="13" font-weight="400" font-style="normal" 
>
<text fill="#212121" fill-opacity="1" stroke="none" xml:space="preserve" x="0" y="0" font-family="Helvetica" font-size="13" font-weight="400" font-style="normal" 
 >Magnitude (dB)</text>
</g>

<g fill="#212121" fill-opacity="1" stroke="#212121" stroke-opacity="1" stroke-width="0.666667" stroke-linecap="square" stroke-linejoin="round" transform="matrix(0.749703,0,0,0.749987,-74.3199,-16.8934)"
font-family="Helvetica" font-size="13" font-weight="400" font-style="normal" 
>
<polyline fill="none" vector-effect="none" points="147,218 147,39 " />
<polyline fill="none" vector-effect="none" points="1024,218 1024,39 " />
<polyline fill="none" vector-effect="none" points="147,196.612 155.77,196.612 " />
<polyline fill="none" vector-effect="none" points="1015.23,196.612 1024,196.612 " />
<polyline fill="none" vector-effect="none" points="147,167.473 155.77,167.473 " />
<polyline fill="none" vector-effect="none" points="1015.23,167.473 1024,167.473 " />
<polyline fill="none" vector-effect="none" points="147,138.334 155.77,138.334 " />
<polyline fill="none" vector-effect="none" points="1015.23,138.334 1024,138.334 " />
<polyline fill="none" vector-effect="none" points="147,109.195 155.77,109.195 " />
<polyline fill="none" vector-effect="none" points="1015.23,109.195 1024,109.195 " />
<polyline fill="none" vector-effect="none" points="147,80.056 155.77,80.056 " />
<polyline fill="none" vector-effect="none" points="1015.23,80.056 1024,80.056 " />
<polyline fill="none" vector-effect="none" points="147,50.9169 155.77,50.9169 " />
<polyline fill="none" vector-effect="none" points="1015.23,50.9169 1024,50.9169 " />
</g>

<g fill="#212121" fill-opacity="1" stroke="#212121" stroke-opacity="1" stroke-width="1" stroke-linecap="square" stroke-linejoin="bevel" transform="matrix(0.749703,0,0,0.749987,15.0946,133.563)"
font-family="Helvetica" font-size="12" font-weight="400" font-style="normal" 
>
<text fill="#212121" fill-opacity="1" stroke="none" xml:space="preserve" x="0" y="0" font-family="Helvetica" font-size="12" font-weight="400" font-style="normal" 
 >-250</text>
</g>

<g fill="#212121" fill-opacity="1" stroke="#212121" stroke-opacity="1" stroke-width="1" stroke-linecap="square" stroke-linejoin="bevel" transform="matrix(0.749703,0,0,0.749987,15.0946,111.709)"
font-family="Helvetica" font-size="12" font-weight="400" font-style="normal" 
>
<text fill="#212121" fill-opacity="1" stroke="none" xml:space="preserve" x="0" y="0" font-family="Helvetica" font-size="12" font-weight="400" font-style="normal" 
 >-200</text>
</g>

<g fill="#212121" fill-opacity="1" stroke="#212121" stroke-opacity="1" stroke-width="1" stroke-linecap="square" stroke-linejoin="bevel" transform="matrix(0.749703,0,0,0.749987,15.0946,89.8554)"
font-family="Helvetica" font-size="12" font-weight="400" font-style="normal" 
>
<text fill="#212121" fill-opacity="1" stroke="none" xml:space="preserve" x="0" y="0" font-family="Helvetica" font-size="12" font-weight="400" font-style="normal" 
 >-150</text>
</g>

<g fill="#212121" fill-opacity="1" stroke="#212121" stroke-opacity="1" stroke-width="1" stroke-linecap="square" stroke-linejoin="bevel" transform="matrix(0.749703,0,0,0.749987,15.0946,68.0014)"
font-family="Helvetica" font-size="12" font-weight="400" font-style="normal" 
>
<text fill="#212121" fill-opacity="1" stroke="none" xml:space="preserve" x="0" y="0" font-family="Helvetica" font-size="12" font-weight="400" font-style="normal" 
 >-100</text>
</g>

<g fill="#212121" fill-opacity="1" stroke="#212121" stroke-opacity="1" stroke-width="1" stroke-linecap="square" stroke-linejoin="bevel" transform="matrix(0.749703,0,0,0.749987,20.3425,46.1475)"
font-family="Helvetica" font-size="12" font-weight="400" font-style="normal" 
>
<text fill="#212121" fill-opacity="1" stroke="none" xml:space="preserve" x="0" y="0" font-family="Helvetica" font-size="12" font-weight="400" font-style="normal" 
 >-50</text>
</g>

<g fill="#212121" fill-opacity="1" stroke="#212121" stroke-opacity="1" stroke-width="1" stroke-linecap="square" stroke-linejoin="bevel" transform="matrix(0.749703,0,0,0.749987,27.8396,24.2935)"
font-family="Helvetica" font-size="12" font-weight="400" font-style="normal" 
>
<text fill="#212121" fill-opacity="1" stroke="none" xml:space="preserve" x="0" y="0" font-family="Helvetica" font-size="12" font-weight="400" font-style="normal" 
 >0</text>
</g>

<g fill="#212121" fill-opacity="1" stroke="#212121" stroke-opacity="1" stroke-width="1" stroke-linecap="square" stroke-linejoin="bevel" transform="matrix(0.749703,0,0,0.749987,340.266,8.24988)"
font-family="Helvetica" font-size="13" font-weight="700" font-style="normal" 
>
<text fill="#212121" fill-opacity="1" stroke="none" xml:space="preserve" x="0" y="0" font-family="Helvetica" font-size="13" font-weight="700" font-style="normal" 
 >Magnitude</text>
</g>

<g fill="none" stroke="#1171be" stroke-opacity="1" stroke-width="0.666667" stroke-linecap="butt" stroke-linejoin="round" transform="matrix(0.749703,0,0,0.749987,-74.3199,-16.8934)"
font-family="Helvetica" font-size="13" font-weight="700" font-style="normal" 
>
<polyline fill="none" vector-effect="none" points="147,50.9169 147.428,50.9169 147.856,50.9169 148.285,50.9169 148.713,50.9169 149.141,50.9169 149.569,50.9169 149.998,50.9169 150.426,50.9169 150.854,50.9169 151.282,50.9169 151.71,50.9169 152.139,50.9169 152.567,50.9169 152.995,50.9169 153.423,50.9169 153.852,50.9169 154.28,50.9169 154.708,50.9169 155.136,50.9169 155.564,50.9169 155.993,50.9169 156.421,50.9169 156.849,50.9169 157.277,50.9169 157.706,50.9169 158.134,50.9169 158.562,50.9169 158.99,50.9169 159.418,50.9169 159.847,50.9169 160.275,50.9169 160.703,50.9169 161.131,50.9169 161.56,50.9169 161.988,50.9169 162.416,50.9169 162.844,50.9169 163.272,50.9169 163.701,50.9169 164.129,50.9169 164.557,50.9169 164.985,50.9169 165.414,50.9169 165.842,50.9169 166.27,50.9169 166.698,50.9169 167.126,50.9169 167.555,50.9169 167.983,50.9169 168.411,50.9169 168.839,50.9169 169.268,50.9169 169.696,50.9169 170.124,50.9169 170.552,50.9169 170.98,50.9169 171.409,50.9169 171.837,50.9169 172.265,50.9169 172.693,50.9169 173.122,50.9169 173.55,50.9169 173.978,50.9169 174.406,50.9169 174.834,50.9169 175.263,50.9169 175.691,50.9169 176.119,50.9169 176.547,50.9169 176.976,50.9169 177.404,50.9169 177.832,50.9169 178.26,50.9169 178.688,50.9169 179.117,50.9169 179.545,50.9169 179.973,50.9169 180.401,50.9169 180.83,50.9169 181.258,50.9169 181.686,50.9169 182.114,50.9169 182.542,50.9169 182.971,50.9169 183.399,50.9169 183.827,50.9169 184.255,50.9169 184.684,50.9169 185.112,50.9169 185.54,50.9169 185.968,50.9169 186.396,50.9169 186.825,50.9169 187.253,50.9169 187.681,50.9169 188.109,50.9169 188.538,50.9169 188.966,50.9169 189.394,50.9169 189.822,50.9169 190.25,50.9169 190.679,50.9169 191.107,50.9169 191.535,50.9169 191.963,50.9169 192.392,50.9169 192.82,50.9169 193.248,50.9169 193.676,50.9169 194.104,50.9169 194.533,50.9169 194.961,50.9169 195.389,50.9169 195.817,50.9169 196.246,50.9169 196.674,50.9169 197.102,50.9169 197.53,50.9169 197.958,50.9169 198.387,50.9169 198.815,50.9169 199.243,50.9169 199.671,50.9169 200.1,50.9169 200.528,50.9169 200.956,50.9169 201.384,50.9169 201.813,50.9169 202.241,50.9169 202.669,50.9169 203.097,50.9169 203.525,50.9169 203.954,50.9169 204.382,50.9169 204.81,50.9169 205.238,50.9169 205.667,50.9169 206.095,50.9169 206.523,50.9169 206.951,50.9169 207.379,50.9169 207.808,50.9169 208.236,50.9169 208.664,50.9169 209.092,50.9169 209.521,50.9169 209.949,50.9169 210.377,50.9169 210.805,50.9169 211.233,50.9169 211.662,50.9169 212.09,50.9169 212.518,50.9169 212.946,50.9169 213.375,50.9169 213.803,50.9169 214.231,50.9169 214.659,50.9169 215.087,50.9169 215.516,50.9169 215.944,50.9169 216.372,50.9169 216.8,50.9169 217.229,50.9169 217.657,50.9169 218.085,50.9169 218.513,50.9169 218.941,50.9169 219.37,50.9169 219.798,50.9169 220.226,50.9169 220.654,50.9169 221.083,50.9169 221.511,50.9169 221.939,50.9169 222.367,50.9169 222.795,50.9169 223.224,50.9169 223.652,50.9169 224.08,50.9169 224.508,50.9169 224.937,50.9169 225.365,50.9169 225.793,50.9169 226.221,50.9169 226.649,50.9169 227.078,50.9169 227.506,50.9169 227.934,50.9169 228.362,50.9169 228.791,50.9169 229.219,50.9169 229.647,50.9169 230.075,50.9169 230.503,50.9169 230.932,50.9169 231.36,50.9169 231.788,50.9169 232.216,50.9169 232.645,50.9169 233.073,50.9169 233.501,50.9169 233.929,50.9169 234.357,50.9169 234.786,50.9169 235.214,50.9169 235.642,50.9169 236.07,50.9169 236.499,50.9169 236.927,50.9169 237.355,50.9169 237.783,50.9169 238.211,50.9169 238.64,50.9169 239.068,50.9169 239.496,50.9169 239.924,50.9169 240.353,50.9169 240.781,50.9169 241.209,50.9169 241.637,50.9169 242.065,50.9169 242.494,50.9169 242.922,50.9169 243.35,50.9169 243.778,50.9169 244.207,50.9169 244.635,50.9169 245.063,50.9169 245.491,50.9169 245.919,50.9169 246.348,50.9169 246.776,50.9169 247.204,50.9169 247.632,50.9169 248.061,50.9169 248.489,50.9169 248.917,50.9169 249.345,50.9169 249.773,50.9169 250.202,50.9169 250.63,50.9169 251.058,50.9169 251.486,50.9169 251.915,50.9169 252.343,50.9169 252.771,50.9169 253.199,50.9169 253.627,50.9169 254.056,50.9169 254.484,50.9169 254.912,50.9169 255.34,50.9169 255.769,50.9169 256.197,50.9169 256.625,50.9169 257.053,50.9169 257.481,50.9169 257.91,50.9169 258.338,50.9169 258.766,50.9169 259.194,50.9169 259.623,50.9169 260.051,50.9169 260.479,50.9169 260.907,50.9169 261.335,50.9169 261.764,50.9169 262.192,50.9169 262.62,50.9169 263.048,50.9169 263.477,50.9169 263.905,50.9169 264.333,50.9169 264.761,50.9169 265.189,50.9169 265.618,50.9169 266.046,50.9169 266.474,50.9169 266.902,50.9169 267.331,50.9169 267.759,50.9169 268.187,50.9169 268.615,50.9169 269.043,50.9169 269.472,50.9169 269.9,50.9169 270.328,50.9169 270.756,50.9169 271.185,50.9169 271.613,50.9169 272.041,50.9169 272.469,50.9169 272.897,50.9169 273.326,50.9169 273.754,50.9169 274.182,50.9169 274.61,50.9169 275.039,50.9169 275.467,50.9169 275.895,50.9169 276.323,50.9169 276.751,50.9169 277.18,50.9169 277.608,50.9169 278.036,50.9169 278.464,50.9169 278.893,50.9169 279.321,50.9169 279.749,50.9169 280.177,50.9169 280.605,50.9169 281.034,50.9169 281.462,50.9169 281.89,50.9169 282.318,50.9169 282.747,50.9169 283.175,50.9169 283.603,50.9169 284.031,50.9169 284.459,50.9169 284.888,50.9169 285.316,50.9169 285.744,50.9169 286.172,50.9169 286.601,50.9169 287.029,50.9169 287.457,50.9169 287.885,50.9169 288.313,50.9169 288.742,50.9169 289.17,50.9169 289.598,50.9169 290.026,50.9169 290.455,50.9169 290.883,50.9169 291.311,50.9169 291.739,50.9169 292.167,50.9169 292.596,50.9169 293.024,50.9169 293.452,50.9169 293.88,50.9169 294.309,50.9169 294.737,50.9169 295.165,50.9169 295.593,50.9169 296.021,50.9169 296.45,50.9169 296.878,50.9169 297.306,50.9169 297.734,50.9169 298.163,50.9169 298.591,50.9169 299.019,50.9169 299.447,50.9169 299.875,50.9169 300.304,50.9169 300.732,50.9169 301.16,50.9169 301.588,50.9169 302.017,50.9169 302.445,50.9169 302.873,50.9169 303.301,50.9169 303.729,50.9169 304.158,50.9169 304.586,50.9169 305.014,50.9169 305.442,50.9169 305.871,50.9169 306.299,50.9169 306.727,50.9169 307.155,50.9169 307.583,50.9169 308.012,50.9169 308.44,50.9169 308.868,50.9169 309.296,50.9169 309.725,50.917 310.153,50.917 310.581,50.917 311.009,50.917 311.438,50.917 311.866,50.917 312.294,50.917 312.722,50.917 313.15,50.917 313.579,50.917 314.007,50.917 314.435,50.917 314.863,50.917 315.292,50.917 315.72,50.917 316.148,50.917 316.576,50.917 317.004,50.917 317.433,50.9171 317.861,50.9171 318.289,50.9171 318.717,50.9171 319.146,50.9171 319.574,50.9171 320.002,50.9171 320.43,50.9171 320.858,50.9171 321.287,50.9172 321.715,50.9172 322.143,50.9172 322.571,50.9172 323,50.9172 323.428,50.9172 323.856,50.9173 324.284,50.9173 324.712,50.9173 325.141,50.9173 325.569,50.9173 325.997,50.9174 326.425,50.9174 326.854,50.9174 327.282,50.9174 327.71,50.9175 328.138,50.9175 328.566,50.9175 328.995,50.9176 329.423,50.9176 329.851,50.9177 330.279,50.9177 330.708,50.9177 331.136,50.9178 331.564,50.9178 331.992,50.9179 332.42,50.9179 332.849,50.918 333.277,50.918 333.705,50.9181 334.133,50.9181 334.562,50.9182 334.99,50.9183 335.418,50.9183 335.846,50.9184 336.274,50.9185 336.703,50.9186 337.131,50.9187 337.559,50.9187 337.987,50.9188 338.416,50.9189 338.844,50.919 339.272,50.9191 339.7,50.9193 340.128,50.9194 340.557,50.9195 340.985,50.9196 341.413,50.9198 341.841,50.9199 342.27,50.92 342.698,50.9202 343.126,50.9204 343.554,50.9205 343.982,50.9207 344.411,50.9209 344.839,50.9211 345.267,50.9213 345.695,50.9215 346.124,50.9217 346.552,50.922 346.98,50.9222 347.408,50.9224 347.836,50.9227 348.265,50.923 348.693,50.9233 349.121,50.9236 349.549,50.9239 349.978,50.9242 350.406,50.9246 350.834,50.9249 351.262,50.9253 351.69,50.9257 352.119,50.9261 352.547,50.9266 352.975,50.927 353.403,50.9275 353.832,50.928 354.26,50.9285 354.688,50.929 355.116,50.9296 355.544,50.9302 355.973,50.9308 356.401,50.9314 356.829,50.9321 357.257,50.9328 357.686,50.9335 358.114,50.9342 358.542,50.935 358.97,50.9359 359.398,50.9367 359.827,50.9376 360.255,50.9386 360.683,50.9395 361.111,50.9406 361.54,50.9416 361.968,50.9427 362.396,50.9439 362.824,50.9451 363.252,50.9464 363.681,50.9477 364.109,50.949 364.537,50.9505 364.965,50.9519 365.394,50.9535 365.822,50.9551 366.25,50.9568 366.678,50.9585 367.106,50.9604 367.535,50.9623 367.963,50.9643 368.391,50.9663 368.819,50.9685 369.248,50.9707 369.676,50.9731 370.104,50.9755 370.532,50.978 370.96,50.9806 371.389,50.9834 371.817,50.9862 372.245,50.9892 372.673,50.9923 373.102,50.9955 373.53,50.9989 373.958,51.0023 374.386,51.006 374.814,51.0097 375.243,51.0136 375.671,51.0177 376.099,51.0219 376.527,51.0263 376.956,51.0309 377.384,51.0357 377.812,51.0406 378.24,51.0457 378.668,51.0511 379.097,51.0566 379.525,51.0624 379.953,51.0683 380.381,51.0745 380.81,51.081 381.238,51.0877 381.666,51.0946 382.094,51.1018 382.522,51.1093 382.951,51.117 383.379,51.1251 383.807,51.1334 384.235,51.142 384.664,51.151 385.092,51.1603 385.52,51.1699 385.948,51.1799 386.376,51.1902 386.805,51.2009 387.233,51.212 387.661,51.2234 388.089,51.2353 388.518,51.2476 388.946,51.2603 389.374,51.2734 389.802,51.287 390.23,51.3011 390.659,51.3156 391.087,51.3307 391.515,51.3462 391.943,51.3622 392.372,51.3787 392.8,51.3958 393.228,51.4135 393.656,51.4317 394.084,51.4505 394.513,51.4698 394.941,51.4898 395.369,51.5104 395.797,51.5316 396.226,51.5534 396.654,51.5759 397.082,51.5991 397.51,51.6229 397.938,51.6475 398.367,51.6727 398.795,51.6986 399.223,51.7253 399.651,51.7527 400.08,51.7808 400.508,51.8097 400.936,51.8394 401.364,51.8698 401.792,51.901 402.221,51.9331 402.649,51.9659 403.077,51.9995 403.505,52.034 403.934,52.0692 404.362,52.1053 404.79,52.1423 405.218,52.18 405.646,52.2187 406.075,52.2581 406.503,52.2985 406.931,52.3397 407.359,52.3817 407.788,52.4246 408.216,52.4684 408.644,52.513 409.072,52.5585 409.5,52.6049 409.929,52.6521 410.357,52.7002 410.785,52.7491 411.213,52.7989 411.642,52.8495 412.07,52.901 412.498,52.9533 412.926,53.0064 413.354,53.0604 413.783,53.1152 414.211,53.1708 414.639,53.2272 415.067,53.2844 415.496,53.3423 415.924,53.4011 416.352,53.4606 416.78,53.5208 417.208,53.5819 417.637,53.6436 418.065,53.7061 418.493,53.7692 418.921,53.8331 419.35,53.8977 419.778,53.9629 420.206,54.0288 420.634,54.0953 421.063,54.1625 421.491,54.2303 421.919,54.2987 422.347,54.3677 422.775,54.4372 423.204,54.5074 423.632,54.5781 424.06,54.6493 424.488,54.7211 424.917,54.7934 425.345,54.8662 425.773,54.9394 426.201,55.0132 426.629,55.0874 427.058,55.1621 427.486,55.2372 427.914,55.3127 428.342,55.3886 428.771,55.4649 429.199,55.5416 429.627,55.6187 430.055,55.6962 430.483,55.774 430.912,55.8521 431.34,55.9306 431.768,56.0094 432.196,56.0884 432.625,56.1678 433.053,56.2475 433.481,56.3274 433.909,56.4076 434.337,56.4881 434.766,56.5688 435.194,56.6498 435.622,56.7309 436.05,56.8123 436.479,56.8939 436.907,56.9757 437.335,57.0577 437.763,57.1399 438.191,57.2222 438.62,57.3047 439.048,57.3874 439.476,57.4702 439.904,57.5532 440.333,57.6363 440.761,57.7196 441.189,57.803 441.617,57.8865 442.045,57.9701 442.474,58.0538 442.902,58.1376 443.33,58.2216 443.758,58.3056 444.187,58.3897 444.615,58.4739 445.043,58.5581 445.471,58.6425 445.899,58.7269 446.328,58.8114 446.756,58.8959 447.184,58.9805 447.612,59.0651 448.041,59.1498 448.469,59.2346 448.897,59.3193 449.325,59.4041 449.753,59.489 450.182,59.5739 450.61,59.6588 451.038,59.7437 451.466,59.8286 451.895,59.9136 452.323,59.9986 452.751,60.0836 453.179,60.1686 453.607,60.2536 454.036,60.3386 454.464,60.4237 454.892,60.5087 455.32,60.5937 455.749,60.6788 456.177,60.7638 456.605,60.8488 457.033,60.9338 457.461,61.0188 457.89,61.1038 458.318,61.1888 458.746,61.2738 459.174,61.3587 459.603,61.4437 460.031,61.5286 460.459,61.6135 460.887,61.6984 461.315,61.7832 461.744,61.8681 462.172,61.9529 462.6,62.0377 463.028,62.1224 463.457,62.2072 463.885,62.2919 464.313,62.3766 464.741,62.4612 465.169,62.5458 465.598,62.6304 466.026,62.715 466.454,62.7995 466.882,62.884 467.311,62.9684 467.739,63.0529 468.167,63.1373 468.595,63.2216 469.023,63.3059 469.452,63.3902 469.88,63.4745 470.308,63.5587 470.736,63.6428 471.165,63.727 471.593,63.8111 472.021,63.8951 472.449,63.9791 472.877,64.0631 473.306,64.1471 473.734,64.231 474.162,64.3148 474.59,64.3986 475.019,64.4824 475.447,64.5662 475.875,64.6499 476.303,64.7335 476.731,64.8171 477.16,64.9007 477.588,64.9842 478.016,65.0677 478.444,65.1512 478.873,65.2346 479.301,65.318 479.729,65.4013 480.157,65.4846 480.585,65.5678 481.014,65.651 481.442,65.7342 481.87,65.8173 482.298,65.9004 482.727,65.9834 483.155,66.0664 483.583,66.1493 484.011,66.2322 484.439,66.3151 484.868,66.3979 485.296,66.4807 485.724,66.5634 486.152,66.6461 486.581,66.7288 487.009,66.8114 487.437,66.894 487.865,66.9765 488.293,67.059 488.722,67.1414 489.15,67.2238 489.578,67.3062 490.006,67.3885 490.435,67.4708 490.863,67.553 491.291,67.6352 491.719,67.7174 492.147,67.7995 492.576,67.8816 493.004,67.9636 493.432,68.0456 493.86,68.1276 494.289,68.2095 494.717,68.2914 495.145,68.3732 495.573,68.455 496.001,68.5368 496.43,68.6185 496.858,68.7002 497.286,68.7818 497.714,68.8635 498.143,68.945 498.571,69.0266 498.999,69.108 499.427,69.1895 499.855,69.2709 500.284,69.3523 500.712,69.4336 501.14,69.5149 501.568,69.5962 501.997,69.6774 502.425,69.7586 502.853,69.8398 503.281,69.9209 503.709,70.002 504.138,70.083 504.566,70.164 504.994,70.245 505.422,70.3259 505.851,70.4068 506.279,70.4877 506.707,70.5685 507.135,70.6493 507.563,70.7301 507.992,70.8108 508.42,70.8915 508.848,70.9722 509.276,71.0528 509.705,71.1334 510.133,71.2139 510.561,71.2945 510.989,71.375 511.417,71.4554 511.846,71.5358 512.274,71.6162 512.702,71.6966 513.13,71.7769 513.559,71.8572 513.987,71.9375 514.415,72.0177 514.843,72.0979 515.271,72.1781 515.7,72.2582 516.128,72.3383 516.556,72.4184 516.984,72.4985 517.413,72.5785 517.841,72.6585 518.269,72.7384 518.697,72.8184 519.125,72.8983 519.554,72.9781 519.982,73.058 520.41,73.1378 520.838,73.2176 521.267,73.2973 521.695,73.3771 522.123,73.4567 522.551,73.5364 522.979,73.6161 523.408,73.6957 523.836,73.7753 524.264,73.8548 524.692,73.9344 525.121,74.0139 525.549,74.0933 525.977,74.1728 526.405,74.2522 526.833,74.3316 527.262,74.411 527.69,74.4904 528.118,74.5697 528.546,74.649 528.975,74.7283 529.403,74.8075 529.831,74.8867 530.259,74.9659 530.688,75.0451 531.116,75.1243 531.544,75.2034 531.972,75.2825 532.4,75.3616 532.829,75.4406 533.257,75.5197 533.685,75.5987 534.113,75.6777 534.542,75.7567 534.97,75.8356 535.398,75.9145 535.826,75.9934 536.254,76.0723 536.683,76.1512 537.111,76.23 537.539,76.3088 537.967,76.3876 538.396,76.4664 538.824,76.5452 539.252,76.6239 539.68,76.7026 540.108,76.7813 540.537,76.86 540.965,76.9386 541.393,77.0173 541.821,77.0959 542.25,77.1745 542.678,77.2531 543.106,77.3316 543.534,77.4102 543.962,77.4887 544.391,77.5672 544.819,77.6457 545.247,77.7242 545.675,77.8026 546.104,77.881 546.532,77.9595 546.96,78.0379 547.388,78.1162 547.816,78.1946 548.245,78.273 548.673,78.3513 549.101,78.4296 549.529,78.5079 549.958,78.5862 550.386,78.6645 550.814,78.7428 551.242,78.821 551.67,78.8992 552.099,78.9774 552.527,79.0556 552.955,79.1338 553.383,79.212 553.812,79.2902 554.24,79.3683 554.668,79.4464 555.096,79.5246 555.524,79.6027 555.953,79.6808 556.381,79.7588 556.809,79.8369 557.237,79.915 557.666,79.993 558.094,80.071 558.522,80.149 558.95,80.2271 559.378,80.3051 559.807,80.383 560.235,80.461 560.663,80.539 561.091,80.6169 561.52,80.6949 561.948,80.7728 562.376,80.8507 562.804,80.9286 563.232,81.0065 563.661,81.0844 564.089,81.1623 564.517,81.2402 564.945,81.318 565.374,81.3959 565.802,81.4737 566.23,81.5516 566.658,81.6294 567.086,81.7072 567.515,81.7851 567.943,81.8629 568.371,81.9407 568.799,82.0185 569.228,82.0962 569.656,82.174 570.084,82.2518 570.512,82.3296 570.94,82.4073 571.369,82.4851 571.797,82.5628 572.225,82.6405 572.653,82.7183 573.082,82.796 573.51,82.8737 573.938,82.9515 574.366,83.0292 574.794,83.1069 575.223,83.1846 575.651,83.2623 576.079,83.34 576.507,83.4177 576.936,83.4954 577.364,83.5731 577.792,83.6507 578.22,83.7284 578.648,83.8061 579.077,83.8838 579.505,83.9614 579.933,84.0391 580.361,84.1168 580.79,84.1944 581.218,84.2721 581.646,84.3497 582.074,84.4274 582.502,84.505 582.931,84.5827 583.359,84.6603 583.787,84.738 584.215,84.8157 584.644,84.8933 585.072,84.9709 585.5,85.0486 585.928,85.1263 586.356,85.2039 586.785,85.2815 587.213,85.3592 587.641,85.4369 588.069,85.5145 588.498,85.5922 588.926,85.6698 589.354,85.7475 589.782,85.8251 590.21,85.9028 590.639,85.9805 591.067,86.0581 591.495,86.1358 591.923,86.2134 592.352,86.2911 592.78,86.3688 593.208,86.4465 593.636,86.5242 594.064,86.6018 594.493,86.6795 594.921,86.7572 595.349,86.8349 595.777,86.9126 596.206,86.9903 596.634,87.068 597.062,87.1457 597.49,87.2235 597.918,87.3012 598.347,87.3789 598.775,87.4566 599.203,87.5344 599.631,87.6121 600.06,87.6899 600.488,87.7676 600.916,87.8454 601.344,87.9232 601.772,88.001 602.201,88.0788 602.629,88.1565 603.057,88.2343 603.485,88.3121 603.914,88.39 604.342,88.4678 604.77,88.5456 605.198,88.6235 605.626,88.7013 606.055,88.7792 606.483,88.857 606.911,88.9349 607.339,89.0128 607.768,89.0907 608.196,89.1686 608.624,89.2465 609.052,89.3244 609.48,89.4023 609.909,89.4803 610.337,89.5582 610.765,89.6362 611.193,89.7142 611.622,89.7922 612.05,89.8702 612.478,89.9482 612.906,90.0262 613.334,90.1042 613.763,90.1823 614.191,90.2603 614.619,90.3384 615.047,90.4165 615.476,90.4946 615.904,90.5727 616.332,90.6508 616.76,90.7289 617.188,90.8071 617.617,90.8852 618.045,90.9634 618.473,91.0416 618.901,91.1198 619.33,91.198 619.758,91.2762 620.186,91.3545 620.614,91.4327 621.042,91.511 621.471,91.5893 621.899,91.6676 622.327,91.7459 622.755,91.8243 623.184,91.9026 623.612,91.981 624.04,92.0594 624.468,92.1378 624.896,92.2162 625.325,92.2947 625.753,92.3731 626.181,92.4516 626.609,92.5301 627.038,92.6086 627.466,92.6871 627.894,92.7657 628.322,92.8442 628.75,92.9228 629.179,93.0014 629.607,93.08 630.035,93.1587 630.463,93.2373 630.892,93.316 631.32,93.3947 631.748,93.4734 632.176,93.5521 632.604,93.6309 633.033,93.7097 633.461,93.7885 633.889,93.8673 634.317,93.9461 634.746,94.025 635.174,94.1039 635.602,94.1828 636.03,94.2617 636.458,94.3407 636.887,94.4196 637.315,94.4986 637.743,94.5777 638.171,94.6567 638.6,94.7358 639.028,94.8149 639.456,94.894 639.884,94.9731 640.313,95.0523 640.741,95.1314 641.169,95.2107 641.597,95.2899 642.025,95.3691 642.454,95.4484 642.882,95.5277 643.31,95.6071 643.738,95.6864 644.167,95.7658 644.595,95.8452 645.023,95.9247 645.451,96.0041 645.879,96.0836 646.308,96.1631 646.736,96.2427 647.164,96.3222 647.592,96.4018 648.021,96.4815 648.449,96.5611 648.877,96.6408 649.305,96.7205 649.733,96.8002 650.162,96.88 650.59,96.9598 651.018,97.0396 651.446,97.1195 651.875,97.1994 652.303,97.2793 652.731,97.3592 653.159,97.4392 653.587,97.5192 654.016,97.5992 654.444,97.6793 654.872,97.7594 655.3,97.8395 655.729,97.9197 656.157,97.9999 656.585,98.0801 657.013,98.1603 657.441,98.2406 657.87,98.3209 658.298,98.4013 658.726,98.4817 659.154,98.5621 659.583,98.6425 660.011,98.723 660.439,98.8035 660.867,98.8841 661.295,98.9647 661.724,99.0453 662.152,99.1259 662.58,99.2066 663.008,99.2874 663.437,99.3681 663.865,99.4489 664.293,99.5297 664.721,99.6106 665.149,99.6915 665.578,99.7725 666.006,99.8534 666.434,99.9344 666.862,100.015 667.291,100.097 667.719,100.178 668.147,100.259 668.575,100.34 669.003,100.421 669.432,100.503 669.86,100.584 670.288,100.665 670.716,100.747 671.145,100.828 671.573,100.91 672.001,100.991 672.429,101.073 672.857,101.154 673.286,101.236 673.714,101.318 674.142,101.399 674.57,101.481 674.999,101.563 675.427,101.645 675.855,101.727 676.283,101.808 676.711,101.89 677.14,101.972 677.568,102.054 677.996,102.137 678.424,102.219 678.853,102.301 679.281,102.383 679.709,102.465 680.137,102.548 680.565,102.63 680.994,102.712 681.422,102.795 681.85,102.877 682.278,102.96 682.707,103.043 683.135,103.125 683.563,103.208 683.991,103.291 684.419,103.373 684.848,103.456 685.276,103.539 685.704,103.622 686.132,103.705 686.561,103.788 686.989,103.871 687.417,103.954 687.845,104.037 688.273,104.12 688.702,104.204 689.13,104.287 689.558,104.37 689.986,104.454 690.415,104.537 690.843,104.621 691.271,104.704 691.699,104.788 692.127,104.871 692.556,104.955 692.984,105.039 693.412,105.123 693.84,105.207 694.269,105.291 694.697,105.374 695.125,105.458 695.553,105.543 695.981,105.627 696.41,105.711 696.838,105.795 697.266,105.879 697.694,105.964 698.123,106.048 698.551,106.133 698.979,106.217 699.407,106.302 699.835,106.386 700.264,106.471 700.692,106.556 701.12,106.641 701.548,106.725 701.977,106.81 702.405,106.895 702.833,106.98 703.261,107.065 703.689,107.15 704.118,107.236 704.546,107.321 704.974,107.406 705.402,107.492 705.831,107.577 706.259,107.663 706.687,107.748 707.115,107.834 707.543,107.919 707.972,108.005 708.4,108.091 708.828,108.177 709.256,108.263 709.685,108.349 710.113,108.435 710.541,108.521 710.969,108.607 711.397,108.693 711.826,108.78 712.254,108.866 712.682,108.952 713.11,109.039 713.539,109.126 713.967,109.212 714.395,109.299 714.823,109.386 715.251,109.472 715.68,109.559 716.108,109.646 716.536,109.733 716.964,109.82 717.393,109.908 717.821,109.995 718.249,110.082 718.677,110.17 719.105,110.257 719.534,110.345 719.962,110.432 720.39,110.52 720.818,110.607 721.247,110.695 721.675,110.783 722.103,110.871 722.531,110.959 722.959,111.047 723.388,111.135 723.816,111.224 724.244,111.312 724.672,111.4 725.101,111.489 725.529,111.577 725.957,111.666 726.385,111.754 726.813,111.843 727.242,111.932 727.67,112.021 728.098,112.11 728.526,112.199 728.955,112.288 729.383,112.377 729.811,112.467 730.239,112.556 730.667,112.645 731.096,112.735 731.524,112.825 731.952,112.914 732.38,113.004 732.809,113.094 733.237,113.184 733.665,113.274 734.093,113.364 734.521,113.454 734.95,113.544 735.378,113.634 735.806,113.725 736.234,113.815 736.663,113.906 737.091,113.997 737.519,114.087 737.947,114.178 738.375,114.269 738.804,114.36 739.232,114.451 739.66,114.542 740.088,114.634 740.517,114.725 740.945,114.816 741.373,114.908 741.801,114.999 742.229,115.091 742.658,115.183 743.086,115.275 743.514,115.367 743.942,115.459 744.371,115.551 744.799,115.643 745.227,115.735 745.655,115.828 746.083,115.92 746.512,116.013 746.94,116.106 747.368,116.198 747.796,116.291 748.225,116.384 748.653,116.477 749.081,116.57 749.509,116.664 749.938,116.757 750.366,116.85 750.794,116.944 751.222,117.038 751.65,117.131 752.079,117.225 752.507,117.319 752.935,117.413 753.363,117.507 753.792,117.601 754.22,117.696 754.648,117.79 755.076,117.885 755.504,117.979 755.933,118.074 756.361,118.169 756.789,118.264 757.217,118.359 757.646,118.454 758.074,118.549 758.502,118.644 758.93,118.74 759.358,118.835 759.787,118.931 760.215,119.027 760.643,119.123 761.071,119.219 761.5,119.315 761.928,119.411 762.356,119.507 762.784,119.604 763.212,119.7 763.641,119.797 764.069,119.894 764.497,119.99 764.925,120.087 765.354,120.184 765.782,120.282 766.21,120.379 766.638,120.476 767.066,120.574 767.495,120.671 767.923,120.769 768.351,120.867 768.779,120.965 769.208,121.063 769.636,121.161 770.064,121.26 770.492,121.358 770.92,121.457 771.349,121.555 771.777,121.654 772.205,121.753 772.633,121.852 773.062,121.951 773.49,122.05 773.918,122.15 774.346,122.249 774.774,122.349 775.203,122.449 775.631,122.549 776.059,122.649 776.487,122.749 776.916,122.849 777.344,122.949 777.772,123.05 778.2,123.151 778.628,123.251 779.057,123.352 779.485,123.453 779.913,123.554 780.341,123.656 780.77,123.757 781.198,123.859 781.626,123.96 782.054,124.062 782.482,124.164 782.911,124.266 783.339,124.368 783.767,124.471 784.195,124.573 784.624,124.676 785.052,124.779 785.48,124.881 785.908,124.984 786.336,125.088 786.765,125.191 787.193,125.294 787.621,125.398 788.049,125.502 788.478,125.606 788.906,125.71 789.334,125.814 789.762,125.918 790.19,126.022 790.619,126.127 791.047,126.232 791.475,126.337 791.903,126.442 792.332,126.547 792.76,126.652 793.188,126.758 793.616,126.863 794.044,126.969 794.473,127.075 794.901,127.181 795.329,127.287 795.757,127.393 796.186,127.5 796.614,127.607 797.042,127.713 797.47,127.82 797.898,127.928 798.327,128.035 798.755,128.142 799.183,128.25 799.611,128.358 800.04,128.466 800.468,128.574 800.896,128.682 801.324,128.79 801.752,128.899 802.181,129.008 802.609,129.117 803.037,129.226 803.465,129.335 803.894,129.444 804.322,129.554 804.75,129.664 805.178,129.773 805.606,129.884 806.035,129.994 806.463,130.104 806.891,130.215 807.319,130.326 807.748,130.436 808.176,130.548 808.604,130.659 809.032,130.77 809.46,130.882 809.889,130.994 810.317,131.106 810.745,131.218 811.173,131.33 811.602,131.443 812.03,131.555 812.458,131.668 812.886,131.781 813.314,131.895 813.743,132.008 814.171,132.122 814.599,132.235 815.027,132.349 815.456,132.464 815.884,132.578 816.312,132.693 816.74,132.807 817.168,132.922 817.597,133.037 818.025,133.153 818.453,133.268 818.881,133.384 819.31,133.5 819.738,133.616 820.166,133.732 820.594,133.849 821.022,133.966 821.451,134.083 821.879,134.2 822.307,134.317 822.735,134.434 823.164,134.552 823.592,134.67 824.02,134.788 824.448,134.907 824.876,135.025 825.305,135.144 825.733,135.263 826.161,135.382 826.589,135.502 827.018,135.621 827.446,135.741 827.874,135.861 828.302,135.981 828.73,136.102 829.159,136.223 829.587,136.344 830.015,136.465 830.443,136.586 830.872,136.708 831.3,136.83 831.728,136.952 832.156,137.074 832.584,137.196 833.013,137.319 833.441,137.442 833.869,137.565 834.297,137.689 834.726,137.812 835.154,137.936 835.582,138.061 836.01,138.185 836.438,138.31 836.867,138.434 837.295,138.559 837.723,138.685 838.151,138.81 838.58,138.936 839.008,139.062 839.436,139.189 839.864,139.315 840.292,139.442 840.721,139.569 841.149,139.697 841.577,139.824 842.005,139.952 842.434,140.08 842.862,140.208 843.29,140.337 843.718,140.466 844.146,140.595 844.575,140.725 845.003,140.854 845.431,140.984 845.859,141.114 846.288,141.245 846.716,141.376 847.144,141.507 847.572,141.638 848,141.77 848.429,141.901 848.857,142.034 849.285,142.166 849.713,142.299 850.142,142.432 850.57,142.565 850.998,142.698 851.426,142.832 851.854,142.966 852.283,143.101 852.711,143.236 853.139,143.371 853.567,143.506 853.996,143.641 854.424,143.777 854.852,143.914 855.28,144.05 855.708,144.187 856.137,144.324 856.565,144.461 856.993,144.599 857.421,144.737 857.85,144.875 858.278,145.014 858.706,145.153 859.134,145.292 859.563,145.432 859.991,145.572 860.419,145.712 860.847,145.853 861.275,145.994 861.704,146.135 862.132,146.276 862.56,146.418 862.988,146.56 863.417,146.703 863.845,146.846 864.273,146.989 864.701,147.133 865.129,147.277 865.558,147.421 865.986,147.566 866.414,147.711 866.842,147.856 867.271,148.002 867.699,148.148 868.127,148.294 868.555,148.441 868.983,148.588 869.412,148.735 869.84,148.883 870.268,149.031 870.696,149.18 871.125,149.329 871.553,149.478 871.981,149.628 872.409,149.778 872.837,149.928 873.266,150.079 873.694,150.23 874.122,150.382 874.55,150.534 874.979,150.686 875.407,150.839 875.835,150.992 876.263,151.146 876.691,151.3 877.12,151.455 877.548,151.609 877.976,151.765 878.404,151.92 878.833,152.076 879.261,152.233 879.689,152.39 880.117,152.547 880.545,152.705 880.974,152.863 881.402,153.022 881.83,153.181 882.258,153.34 882.687,153.5 883.115,153.66 883.543,153.821 883.971,153.982 884.399,154.144 884.828,154.306 885.256,154.469 885.684,154.632 886.112,154.796 886.541,154.96 886.969,155.124 887.397,155.289 887.825,155.454 888.253,155.62 888.682,155.787 889.11,155.954 889.538,156.121 889.966,156.289 890.395,156.457 890.823,156.626 891.251,156.795 891.679,156.965 892.107,157.136 892.536,157.307 892.964,157.478 893.392,157.65 893.82,157.822 894.249,157.995 894.677,158.169 895.105,158.343 895.533,158.517 895.961,158.693 896.39,158.868 896.818,159.044 897.246,159.221 897.674,159.398 898.103,159.576 898.531,159.755 898.959,159.934 899.387,160.113 899.815,160.294 900.244,160.474 900.672,160.656 901.1,160.837 901.528,161.02 901.957,161.203 902.385,161.387 902.813,161.571 903.241,161.756 903.669,161.942 904.098,162.128 904.526,162.314 904.954,162.502 905.382,162.69 905.811,162.879 906.239,163.068 906.667,163.258 907.095,163.449 907.523,163.64 907.952,163.832 908.38,164.024 908.808,164.218 909.236,164.412 909.665,164.606 910.093,164.802 910.521,164.998 910.949,165.194 911.377,165.392 911.806,165.59 912.234,165.789 912.662,165.988 913.09,166.189 913.519,166.39 913.947,166.592 914.375,166.794 914.803,166.997 915.231,167.201 915.66,167.406 916.088,167.612 916.516,167.818 916.944,168.025 917.373,168.233 917.801,168.442 918.229,168.651 918.657,168.862 919.085,169.073 919.514,169.285 919.942,169.498 920.37,169.711 920.798,169.926 921.227,170.141 921.655,170.357 922.083,170.574 922.511,170.792 922.939,171.011 923.368,171.231 923.796,171.451 924.224,171.673 924.652,171.895 925.081,172.119 925.509,172.343 925.937,172.568 926.365,172.794 926.793,173.021 927.222,173.249 927.65,173.478 928.078,173.708 928.506,173.939 928.935,174.171 929.363,174.404 929.791,174.638 930.219,174.873 930.647,175.109 931.076,175.347 931.504,175.585 931.932,175.824 932.36,176.064 932.789,176.306 933.217,176.548 933.645,176.792 934.073,177.036 934.501,177.282 934.93,177.529 935.358,177.777 935.786,178.027 936.214,178.277 936.643,178.529 937.071,178.782 937.499,179.036 937.927,179.291 938.355,179.547 938.784,179.805 939.212,180.064 939.64,180.324 940.068,180.586 940.497,180.849 940.925,181.113 941.353,181.378 941.781,181.645 942.209,181.913 942.638,182.183 943.066,182.454 943.494,182.726 943.922,183 944.351,183.275 944.779,183.552 945.207,183.83 945.635,184.109 946.063,184.39 946.492,184.673 946.92,184.957 947.348,185.242 947.776,185.53 948.205,185.818 948.633,186.109 949.061,186.401 949.489,186.694 949.917,186.989 950.346,187.286 950.774,187.585 951.202,187.885 951.63,188.187 952.059,188.491 952.487,188.797 952.915,189.104 953.343,189.413 953.771,189.724 954.2,190.037 954.628,190.352 955.056,190.668 955.484,190.987 955.913,191.308 956.341,191.63 956.769,191.955 957.197,192.281 957.625,192.61 958.054,192.941 958.482,193.273 958.91,193.608 959.338,193.946 959.767,194.285 960.195,194.627 960.623,194.97 961.051,195.316 961.479,195.665 961.908,196.016 962.336,196.369 962.764,196.725 963.192,197.083 963.621,197.443 964.049,197.806 964.477,198.172 964.905,198.54 965.333,198.911 965.762,199.285 966.19,199.661 966.618,200.04 967.046,200.422 967.475,200.807 967.903,201.194 968.331,201.585 968.759,201.978 969.188,202.375 969.616,202.774 970.044,203.177 970.472,203.583 970.9,203.992 971.329,204.404 971.757,204.82 972.185,205.239 972.613,205.661 973.042,206.087 973.47,206.517 973.898,206.95 974.326,207.387 974.754,207.827 975.183,208.272 975.611,208.72 976.039,209.172 976.467,209.628 976.896,210.089 977.324,210.553 977.752,211.022 978.18,211.495 978.608,211.972 979.037,212.454 979.465,212.941 979.893,213.432 980.321,213.928 980.75,214.428 981.178,214.934 981.606,215.445 982.034,215.961 982.462,216.482 982.891,217.008 983.319,217.54 983.685,218 " />
</g>
</g>
</svg>
